<svg height="800" width="800" version="1.1" id="Layer_1" xmlns="http://www.w3.org/2000/svg" viewBox="0 0 512.001 512.001" xml:space="preserve"><path style="fill:#f2f2f2" d="M369.216 220.695v.014c-3.349 107.968-45.556 206.123-113.088 280.998h-.124c-95.642 0-178.506-54.629-219.107-134.405 80.022-82.356 179.92-145.303 291.937-181.1 3.404 5.435 7.618 10.734 12.573 15.689 8.621 8.62 18.284 14.975 27.809 18.804zM501.699 255.999c0 26.958-4.337 52.9-12.367 77.167a243.752 243.752 0 0 1-12.449 30.568c5.463-54.176-31.542-115.202-63.963-149.201 8.977-11.708 7.234-30.815-3.39-48.933 37.005-11.695 69.481-.741 75.63 1.565 10.678 27.547 16.539 57.511 16.539 88.834zM328.574 21.189a436.9 436.9 0 0 1 33.642 105.717c-14.234-4.283-27.589-2.704-35.948 5.641-3.006 3.02-5.147 6.698-6.437 10.816-52.818-28.563-113.308-44.774-177.573-44.774-28.221 0-55.7 3.13-82.122 9.045C104.992 48.49 176.037 10.29 256.005 10.29c25.256 0 49.633 3.816 72.569 10.899z"/><path style="fill:#f95428" d="M409.53 165.6c10.624 18.118 12.367 37.225 3.39 48.933a23.33 23.33 0 0 1-2.169 2.498c-9.443 9.43-25.269 10.24-41.535 3.679v-.014c-9.526-3.83-19.189-10.185-27.809-18.805-4.955-4.955-9.169-10.253-12.573-15.689-9.416-14.961-12.765-30.842-9.004-42.839 1.29-4.118 3.431-7.796 6.437-10.816 8.359-8.345 21.714-9.924 35.948-5.641 11.269 3.39 23.087 10.473 33.395 20.795 5.629 5.614 10.296 11.708 13.92 17.899z"/><path style="fill:#2ba5f7" d="M412.92 214.533c32.421 33.999 69.426 95.025 63.963 149.201-39.901 81.656-123.753 137.918-220.754 137.973 67.532-74.875 109.739-173.029 113.088-280.998 16.265 6.561 32.091 5.751 41.535-3.679a23.423 23.423 0 0 0 2.168-2.497zM480.342 155.634a242.642 242.642 0 0 1 4.818 11.53c-6.149-2.306-38.625-13.259-75.63-1.565-3.624-6.19-8.29-12.285-13.918-17.899-10.308-10.322-22.126-17.405-33.395-20.795a436.987 436.987 0 0 0-33.642-105.717c67.805 20.933 123.08 70.429 151.767 134.446zM328.835 186.202c-75.877 24.254-146.209 60.957-208.552 107.735a709.703 709.703 0 0 0-83.385 73.365c-17.02-33.409-26.601-71.238-26.601-111.304 0-55.727 18.557-107.131 49.839-148.364 26.422-5.916 53.902-9.045 82.122-9.045 10.473 0 20.836.425 31.089 1.277 52.68 4.337 102.272 19.587 146.483 43.498-3.76 11.996-.411 27.877 9.005 42.838z"/><path style="fill:#2197d8" d="M167.198 107.635c-31.281 41.233-49.839 92.636-49.839 148.364a246.93 246.93 0 0 0 2.924 37.939 709.703 709.703 0 0 0-83.385 73.365c-17.02-33.409-26.601-71.238-26.601-111.304 0-55.727 18.557-107.131 49.839-148.364 26.422-5.916 53.902-9.045 82.122-9.045 10.473 0 20.836.425 31.089 1.277a219.076 219.076 0 0 0-6.149 7.768z"/><path style="fill:#ccc" d="M142.258 98.589c-28.221 0-55.7 3.13-82.122 9.045C104.992 48.49 176.037 10.29 256.005 10.29c18.393 0 36.305 2.031 53.559 5.861-54.396 12.093-102.011 42.166-136.216 83.715a375.75 375.75 0 0 0-31.09-1.277zM309.536 495.846c-17.199 3.83-35.07 5.847-53.408 5.861h-.124c-95.642 0-178.506-54.629-219.107-134.405a709.784 709.784 0 0 1 83.385-73.365 243.144 243.144 0 0 0 23.677 73.365c32.792 64.444 93.173 112.471 165.577 128.544z"/><path style="fill:#333" d="M489.733 151.421C459.576 84.111 401.941 33.058 331.606 11.35 307.207 3.819 281.77 0 256.001 0c-40.737 0-79.683 9.288-115.756 27.607-34.4 17.469-64.937 42.992-88.311 73.81C17.958 146.192.001 199.647.001 256c0 40.832 9.327 79.853 27.72 115.979 21.104 41.462 53.133 76.445 92.627 101.167 40.607 25.419 87.515 38.855 135.785 38.855 54.894-.029 107.222-17.179 151.326-49.596 43.211-31.762 74.904-75.334 91.65-126.004 8.554-25.858 12.893-52.909 12.893-80.4-.001-36.426-7.493-71.611-22.269-104.58zm-22.548.477c-13.764-2.325-32.544-3.318-53.129 1.753a101.203 101.203 0 0 0-11.166-13.232c-9.542-9.552-20.39-16.81-31.675-21.263a447.893 447.893 0 0 0-23.725-80.121c51.965 21.904 94.552 61.908 119.695 112.863zm-93.718 59.419a11.061 11.061 0 0 0-.416-.178c-8.56-3.438-16.983-9.154-24.359-16.53-4.324-4.325-8.072-8.993-11.144-13.888-7.67-12.186-10.697-25.319-7.899-34.275.822-2.622 2.136-4.847 3.902-6.613 5.279-5.279 14.644-6.399 25.695-3.07 10.043 3.025 20.371 9.491 29.088 18.218 4.877 4.867 9.021 10.19 12.319 15.821 8.502 14.515 10.149 29.575 4.033 37.558a13.47 13.47 0 0 1-1.215 1.392c-5.945 5.942-17.411 6.535-30.004 1.565zM149.566 45.965c33.159-16.839 68.969-25.377 106.435-25.377 22.166 0 44.058 3.07 65.145 9.128a427.198 427.198 0 0 1 28.041 84.622c-12.035-.379-22.601 3.344-30.193 10.935a35.332 35.332 0 0 0-3.561 4.185C262.08 102.5 202.44 88.288 142.258 88.288a387.62 387.62 0 0 0-55.361 3.996c18.185-18.754 39.466-34.536 62.669-46.319zM20.59 256c0-50.549 15.716-98.552 45.478-139.088a365.793 365.793 0 0 1 76.187-8.035c57.763 0 114.989 13.829 166.009 40.037-.987 9.759 1.017 20.552 5.772 31.331-102.464 34.723-196.724 92.993-274.092 169.397C27.097 320.139 20.59 288.706 20.59 256zm28.939 113.161c77.085-77.652 171.963-136.524 275.249-170.792 2.83 3.754 5.935 7.379 9.356 10.798 7.424 7.424 15.794 13.528 24.506 17.974-4.571 97.511-42.415 190.903-107.09 264.193-42.704-.8-84.203-13.058-120.279-35.641a236.303 236.303 0 0 1-81.742-86.532zm229.89 121.085c58.895-72.805 93.783-162.445 99.456-256.001 3.628.682 7.176 1.04 10.598 1.04 8.538 0 16.313-2.117 22.74-6.276 41.33 46.803 57.196 98.938 54.563 132.016-35.892 72.221-106.487 121.198-187.357 129.221zm203.739-172.28c-9.486-38.563-32.629-77.004-57.593-104.891 4.945-11.438 4.499-25.82-1.264-40.578 23.551-4.462 43.893.147 52.937 2.877 9.402 25.739 14.175 52.785 14.175 80.628-.001 21.076-2.781 41.862-8.255 61.964z"/><path style="fill:#fff" d="M344.72 458.226c-3.889 0-7.61-2.214-9.35-5.974-2.387-5.16-.14-11.279 5.02-13.666a200.599 200.599 0 0 0 23.543-12.879c31.375-20.007 56.572-48.206 72.864-81.546a200.613 200.613 0 0 0 10.182-24.999c6.711-20.281 10.111-41.529 10.111-63.163 0-25.099-4.546-49.551-13.51-72.676a204.339 204.339 0 0 0-3.943-9.438c-11.847-26.436-28.849-49.549-50.539-68.704-4.261-3.764-4.664-10.268-.902-14.53 3.764-4.261 10.268-4.665 14.532-.902 23.905 21.111 42.644 46.583 55.696 75.71a223.569 223.569 0 0 1 4.35 10.41c9.894 25.521 14.906 52.477 14.906 80.131 0 23.835-3.751 47.258-11.151 69.622a220.67 220.67 0 0 1-11.231 27.575c-17.959 36.751-45.724 67.827-80.295 89.871a221.425 221.425 0 0 1-25.967 14.204 10.28 10.28 0 0 1-4.316.954z"/><circle style="fill:#fff" cx="374.253" cy="80.704" r="10.294"/></svg>