<svg xmlns="http://www.w3.org/2000/svg" aria-hidden="true" style="width:0;height:0;position:absolute;overflow:hidden"><defs><symbol id="icon-search" viewBox="0 0 32 32"><path fill="none" stroke="#fff" stroke-linecap="round" stroke-linejoin="round" stroke-width="2.67" d="M14.67 25.33a10.67 10.67 0 1 0 0-21.33 10.67 10.67 0 0 0 0 21.33zM28 28l-5.8-5.8" style="stroke:var(--color1,#fff)"/></symbol><symbol id="plane-bags" viewBox="0 0 64 64"><path d="M17 6v15h4V8h14v13h4V6a2 2 0 0 0-2-2H19a2 2 0 0 0-2 2Z" fill="#AAE1F9"/><path d="M37 15V4H19a2 2 0 0 0-2 2v15h4v-3a2 2 0 0 1-2-2v-6a2 2 0 0 1 2-2h14v13h4v-3.184A2.99 2.99 0 0 1 37 15Z" fill="#57B7EB"/><path d="M40 21H16a4 4 0 0 0-4 4v28a4 4 0 0 0 4 4h24a4 4 0 0 0 4-4V25a4 4 0 0 0-4-4Z" fill="#F9E109"/><path d="M16 57h4v2a2 2 0 0 1-4 0v-2ZM36 57h4v2a2 2 0 0 1-4 0v-2Z" fill="#57B7EB"/><path d="M33 3H23a2 2 0 0 0-2 2v2a2 2 0 0 0 2 2h10a2 2 0 0 0 2-2V5a2 2 0 0 0-2-2Z" fill="#F9E109"/><path d="M23 3a2 2 0 0 0-2 2v2a2 2 0 0 0 2 2h10a2 2 0 0 0 2-2h-8a4 4 0 0 1-4-4ZM37 51a18 18 0 0 1-18-18V21h-3a4 4 0 0 0-4 4v28a4 4 0 0 0 4 4h24a4 4 0 0 0 4-4v-2h-7Z" fill="#FCBC04"/><path d="M38 60a2 2 0 0 1 2-2v-1h-4v2a2 2 0 0 0 2 2v-1ZM18 60a2 2 0 0 1 2-2v-1h-4v2a2 2 0 0 0 2 2v-1Z" fill="#4891D3"/><path d="M21 27H3v24h18V27Z" fill="#C4F236"/><path d="M19 46A12 12 0 0 1 7 34v-7H3v24h18v-5h-2Z" fill="#A1D51C"/><path d="m36.412 25.768 7 12.124 6.928-4-5.028-6.4a6.916 6.916 0 0 0-8.9-1.724Z" fill="#57B7EB"/><path d="M46.735 29.3a6 6 0 0 1-7.323-2.6l-.981-1.7c-.71.149-1.39.409-2.019.77l7 12.124 6.928-4-3.605-4.594Z" fill="#4891D3"/><path d="m50.072 29.428-17.321 10-.5-.866a4 4 0 0 0-5.464-1.462l2.5 4.33a6.72 6.72 0 0 0 7.366 3.18 37.058 37.058 0 0 0 10.006-3.972L61 32.356a8 8 0 0 0-10.928-2.928Z" fill="#57B7EB"/><path d="m58.823 29.923-8.164 4.713a37.058 37.058 0 0 1-10.006 3.972 6.711 6.711 0 0 1-5.061-.82l-2.841 1.64-.5-.866a4 4 0 0 0-5.464-1.462l2.5 4.33a6.72 6.72 0 0 0 7.366 3.18 37.058 37.058 0 0 0 10.006-3.972L61 32.356a7.974 7.974 0 0 0-2.177-2.433Z" fill="#4891D3"/><path d="m50.412 50.017-7-12.125 6.928-4 3.033 7.556a6.92 6.92 0 0 1-2.961 8.569Z" fill="#AAE1F9"/><path d="M53.8 43.091a3.366 3.366 0 0 1-2.3.909 3.3 3.3 0 0 1-2.626-1.3l-2.22-2.908a1.888 1.888 0 0 0-2.436-.493l6.188 10.717a6.916 6.916 0 0 0 3.394-6.925Z" fill="#57B7EB"/><path d="M44 45.021a1 1 0 0 0-1 1v3.633l-2.964 1.712a1 1 0 1 0 1 1.732L43 51.964V53a3 3 0 0 1-3 3H16a2.967 2.967 0 0 1-2.581-1.5 1 1 0 0 0-1.729 1A5.03 5.03 0 0 0 15 57.885V59a3 3 0 1 0 6 0v-1h14v1a3 3 0 0 0 6 0v-1.1a5.01 5.01 0 0 0 4-4.9v-6.979a1 1 0 0 0-1-1ZM19 59a1 1 0 0 1-2 0v-1h2v1Zm20 0a1 1 0 0 1-2 0v-1h2v1ZM18 39a6 6 0 1 0-12 0 6 6 0 0 0 12 0Zm-5.048-1h-1.9A5.118 5.118 0 0 1 12 35.025c.62.868.952 1.908.952 2.975Zm0 2A5.118 5.118 0 0 1 12 42.975 5.118 5.118 0 0 1 11.048 40h1.904Zm1.69 1.98c.164-.65.271-1.312.319-1.98h.9a3.985 3.985 0 0 1-1.219 1.98ZM15.858 38h-.9a11.414 11.414 0 0 0-.319-1.98A3.985 3.985 0 0 1 15.858 38Zm-6.5-1.98c-.164.65-.271 1.312-.319 1.98h-.9c.2-.767.625-1.456 1.219-1.98ZM8.142 40h.9c.048.668.155 1.33.319 1.98A3.985 3.985 0 0 1 8.142 40Z" fill="#39519D"/><path d="M22 51V27a1 1 0 0 0-1-1h-8v-1a3 3 0 0 1 3-3h24a1 1 0 0 0 0-2V6a3 3 0 0 0-3-3h-1.78A2.985 2.985 0 0 0 33 2H23a2.985 2.985 0 0 0-2.22 1H19a3 3 0 0 0-3 3v14a5.006 5.006 0 0 0-5 5v1H3a1 1 0 0 0-1 1v16a1 1 0 1 0 2 0V28h16v22H4v-3a1 1 0 1 0-2 0v4a1 1 0 0 0 1 1h18a1 1 0 0 0 1-1ZM37 5a1 1 0 0 1 1 1v14h-2V5h1ZM23 4h10a1 1 0 0 1 1 1v2a1 1 0 0 1-1 1H23a1 1 0 0 1-1-1V5a1 1 0 0 1 1-1Zm-5 2a1 1 0 0 1 1-1h1v2a3 3 0 0 0 3 3h10c.341-.003.68-.066 1-.184V20H22v-8a1 1 0 0 0-2 0v8h-2V6ZM31.056 53.955a1 1 0 0 0 .5-.134l9.526-5.5a1 1 0 0 0-1-1.733l-9.526 5.5a1 1 0 0 0 .5 1.867Z" fill="#39519D"/><path d="m33.447 29.366-3.464 2a1 1 0 1 0 1 1.732l3.464-2a1 1 0 0 0-1-1.732ZM60.5 38.366l-3.464 2a1 1 0 1 0 1 1.732l3.464-2a1 1 0 1 0-1-1.732ZM55.5 52.366l-3.464 2a1 1 0 1 0 1 1.732l3.464-2a1 1 0 1 0-1-1.732ZM60.5 46.366l-3.464 2a1 1 0 1 0 1 1.732l3.464-2a1 1 0 1 0-1-1.732ZM23.493 49.392a1 1 0 0 0 1.366.366l3.464-2a1 1 0 0 0-1-1.732l-3.464 2a1 1 0 0 0-.366 1.366Z" fill="#39519D"/><path d="m54.3 41.076-1.205-3 8.4-4.852a1 1 0 0 0 .366-1.367 9.011 9.011 0 0 0-12.294-3.294l-1.476.852-2-2.544a7.958 7.958 0 0 0-10.18-1.971 1 1 0 0 0-.366 1.366l3.155 5.466a1 1 0 0 0 1.733-1l-2.613-4.524a5.953 5.953 0 0 1 6.706 1.9l1.82 2.319-13.229 7.635a5.006 5.006 0 0 0-6.83-1.83 1 1 0 0 0-.366 1.366l2.5 4.33a7.668 7.668 0 0 0 6.657 3.865c.608 0 1.214-.071 1.806-.212a37.255 37.255 0 0 0 5.4-1.727A1 1 0 1 0 41.533 42a35.253 35.253 0 0 1-5.11 1.635 5.683 5.683 0 0 1-5.695-1.884l19.844-11.457a6.959 6.959 0 0 1 3.619-.935l-1.387.8a1 1 0 0 0 1 1.733l3.236-1.869a6.952 6.952 0 0 1 2.532 2L52.343 36.2l-1.075-2.68a1 1 0 1 0-1.856.745l3.033 7.556a5.954 5.954 0 0 1-1.711 6.755l-6.457-11.184a1.001 1.001 0 1 0-1.732 1l7 12.125a1 1 0 0 0 1.366.366 7.955 7.955 0 0 0 3.389-9.807Zm-22.915-2.014-1.3.75-.433.25-1.414-2.449a3 3 0 0 1 3.147 1.449Z" fill="#39519D"/></symbol><symbol id="sunrise" viewBox="0 0 64 64"><path d="M47 16a1 1 0 0 1-1-1v-3a1 1 0 0 1 2 0v3a1 1 0 0 1-1 1ZM47 51a1 1 0 0 1-1-1V28a1 1 0 0 1 2 0v22a1 1 0 0 1-1 1Z" fill="#EF5350"/><path d="M33 28a14 14 0 0 1 28 0H33Z" fill="#95D5B2"/><path d="M61 28H33a13.858 13.858 0 0 1 1.46-6.22A16.632 16.632 0 0 0 43 24c6.18 0 11.34-2.98 12.67-6.98A13.913 13.913 0 0 1 61 28Z" fill="#52B788"/><path d="M41 28c0-7.732 2.686-14 6-14s6 6.268 6 14H41Z" fill="#FCEA42"/><path d="M53 28H41a31.323 31.323 0 0 1 .26-4.08c.57.05 1.15.08 1.74.08a16.158 16.158 0 0 0 9.27-2.7c.498 2.198.743 4.446.73 6.7Z" fill="#FDC741"/><path d="m43.97 42.243-1.94-.486 1-4A1 1 0 0 1 44 37h10.857v2H44.781l-.811 3.243Z" fill="#0096C7"/><path d="m57 34-5 7H37l-5 11h5l3-7h12v6h4v-8l4-7-3-2Z" fill="#48CAE4"/><path d="m60 36-4 7v8h-4v-6H40l-3 7h-5l1.84-4.04a3.859 3.859 0 0 0 3.1-2.46 3.86 3.86 0 0 1 3.6-2.5h11.08a3.832 3.832 0 0 0 3.44-2.13l3.06-6.12L60 36Z" fill="#00B4D8"/><path d="M42.888 50.31a26.934 26.934 0 0 1-15.406-1.234l-2.035-.791a26.933 26.933 0 0 0-17.162-.795L3 49v12h58v-9l-5.936-1.484a26.936 26.936 0 0 0-12.176-.206Z" fill="#EFAD1B"/><path d="M47.27 50.31h-4.382a26.845 26.845 0 0 1-6.738.567 6.25 6.25 0 0 0-2.717.469l-.2.087a5.808 5.808 0 0 1-4.013.248c-.584-.18-1.162-.38-1.734-.6l-2.035-.791a26.934 26.934 0 0 0-17.166-.8L3 51v10h58v-9a68.26 68.26 0 0 0-13.73-1.69Z" fill="#D8950F"/><path d="m21 61 6.794-4.529a47.292 47.292 0 0 1 31.185-7.684L61 49v12H21Z" fill="#FDC741"/><path d="M52.113 49.706a12.178 12.178 0 0 1-3.808.973c-7.744.635-13.764 3.294-20.511 7.792L24 61h37V49l-2.021-.213a37.255 37.255 0 0 0-.712-.069 12.68 12.68 0 0 0-6.154.988Z" fill="#EFAD1B"/><path d="m22.085 54.011-9.849-1.736-.068-12.9a24 24 0 0 1 6.372-16.412l2.76-2.988a2 2 0 0 1 3.313.584l1.573 3.753a24 24 0 0 1 .373 17.6l-4.474 12.099Z" fill="#EF5350"/><path d="m26.56 41.92-4.48 12.09-9.84-1.74-.03-5.02a11.94 11.94 0 0 0 9.11-7.62l1-2.71a24.023 24.023 0 0 0-.3-17.44 2 2 0 0 1 2.59 1.08l1.58 3.75a24.018 24.018 0 0 1 .37 17.61Z" fill="#E53935"/><path d="m25.067 45.967-1.608 4.336-5.083-4.054-6.163 2.071-.028-4.625 7.059-2.37 5.823 4.642Z" fill="#52B788"/><path d="m25.07 45.97-1.61 4.33-5.08-4.05-6.17 2.07v-1.06a11.966 11.966 0 0 0 7.9-5.24l4.96 3.95Z" fill="#40916C"/><path d="m24.06 19.8-5.7 32.31-2.01-.14 5.74-32.52a2.032 2.032 0 0 1 1.97.35Z" fill="#ADE8F4"/><path d="m20.15 41.95-1.79 10.16-2.01-.14 1.27-7.18a11.854 11.854 0 0 0 2.53-2.84ZM24.06 19.8l-.72 4.07a22.507 22.507 0 0 0-1.28-4.27l.03-.15a2.032 2.032 0 0 1 1.97.35Z" fill="#48CAE4"/><path d="M42.888 55.31a26.934 26.934 0 0 1-15.406-1.234l-2.035-.791a26.933 26.933 0 0 0-17.162-.795L3 54v7h58v-4l-5.936-1.484a26.936 26.936 0 0 0-12.176-.206Z" fill="#FCEA42"/><path d="M61 57v4H3v-4l5.29-1.51a26.841 26.841 0 0 1 17.16.8l2.03.79a26.927 26.927 0 0 0 15.41 1.23c.44-.1.89-.18 1.34-.25a8.251 8.251 0 0 0 3.07-1.148 9.886 9.886 0 0 1 7.523-1.45l.236.058L61 57Z" fill="#FDC741"/><path d="M11 3a2.37 2.37 0 0 0 4 1.072A2.368 2.368 0 0 0 17.928 7 2.369 2.369 0 0 0 19 11a2.37 2.37 0 0 0-1.072 4A2.368 2.368 0 0 0 15 17.928 2.369 2.369 0 0 0 11 19a2.37 2.37 0 0 0-4-1.072A2.368 2.368 0 0 0 4.072 15 2.37 2.37 0 0 0 3 11a2.37 2.37 0 0 0 1.072-4A2.368 2.368 0 0 0 7 4.072 2.369 2.369 0 0 0 11 3Z" fill="#FCEA42"/><path d="M11 15.859a4.382 4.382 0 0 0-2.308-.654h-.12a4.392 4.392 0 0 0-1.781-1.776A4.35 4.35 0 0 0 6.14 11a4.35 4.35 0 0 0 .651-2.43 4.4 4.4 0 0 0 1.781-1.777h.12A4.382 4.382 0 0 0 11 6.141a4.382 4.382 0 0 0 2.308.654h.12a4.392 4.392 0 0 0 1.781 1.776c-.027.856.2 1.701.651 2.429a4.35 4.35 0 0 0-.651 2.43 4.4 4.4 0 0 0-1.781 1.777h-.12a4.382 4.382 0 0 0-2.308.652Z" fill="#FDC741"/><path d="M11 14a3 3 0 1 0 0-6 3 3 0 0 0 0 6Z" fill="#EF5350"/><path d="M25 16a.974.974 0 0 1-.244-.03l-4-1a1 1 0 0 1 .486-1.94l4 1A1 1 0 0 1 25 16ZM21 9a1 1 0 0 1-.242-1.97l4-1a1 1 0 1 1 .486 1.94l-4 1A.976.976 0 0 1 21 9ZM11 28a1 1 0 0 1-1-1v-5a1 1 0 0 1 2 0v5a1 1 0 0 1-1 1ZM4 26a1 1 0 0 1-.894-1.447l2-4a1 1 0 1 1 1.79.894l-2 4A1 1 0 0 1 4 26ZM18 26a1 1 0 0 1-.9-.553l-2-4a1 1 0 1 1 1.79-.894l2 4A1 1 0 0 1 18 26ZM24 22a.994.994 0 0 1-.514-.143l-5-3a1 1 0 0 1 1.03-1.714l5 3A1 1 0 0 1 24 22Z" fill="#FCEA42"/></symbol><symbol id="ancient" viewBox="0 0 512 512"><path d="M162.17 201.34h-28c0 8.94 6.16 16.18 13.76 16.18h28.44c7.6 0 13.76-7.24 13.76-16.18ZM176.39 401.52H148c-7.6 0-13.76 7.25-13.76 16.19h56c-.09-8.94-6.24-16.19-13.85-16.19Z" style="fill:#f4e7d7"/><path d="M185.93 352c-.51-20.35-2.75-63.68-11.83-134.45h-23.86c-9.08 70.77-11.32 114.1-11.83 134.45a89.29 89.29 0 0 0 6.53 36.72c3.71 8.8 7.14 12.83 7.14 12.83h20.18s3.43-4 7.14-12.83a89.29 89.29 0 0 0 6.53-36.72ZM71.8 201.34h-28c0 8.94 6.16 16.18 13.76 16.18H86c7.6 0 13.76-7.24 13.76-16.18ZM86 401.52H57.58c-7.6 0-13.76 7.25-13.76 16.19h56c-.04-8.94-6.2-16.19-13.82-16.19Z" style="fill:#f4e7d7"/><path d="M95.56 352c-.51-20.35-2.75-63.68-11.83-134.45H59.87C50.79 288.29 48.55 331.62 48 352a89.29 89.29 0 0 0 6.53 36.72c3.71 8.8 7.14 12.83 7.14 12.83h20.22s3.43-4 7.14-12.83A89.29 89.29 0 0 0 95.56 352ZM252.54 201.34h-28c0 8.94 6.16 16.18 13.76 16.18h28.44c7.6 0 13.76-7.24 13.76-16.18ZM266.76 401.52h-28.44c-7.6 0-13.76 7.25-13.76 16.19h56c-.04-8.94-6.2-16.19-13.8-16.19Z" style="fill:#f4e7d7"/><path d="M276.29 352c-.5-20.35-2.74-63.68-11.83-134.45h-23.85c-9.09 70.77-11.32 114.1-11.83 134.45a89.12 89.12 0 0 0 6.53 36.72c3.71 8.8 7.14 12.83 7.14 12.83h20.18s3.43-4 7.14-12.83a89.12 89.12 0 0 0 6.52-36.72Z" style="fill:#f4e7d7"/><path d="M342.91 201.34h-28c0 8.94 6.16 16.18 13.76 16.18h28.44c7.6 0 13.76-7.24 13.76-16.18ZM357.13 401.52h-28.44c-7.6 0-13.76 7.25-13.76 16.19h56c-.04-8.94-6.2-16.19-13.8-16.19Z" style="fill:#d6c2ab"/><path d="M366.66 352c-.5-20.35-2.74-63.68-11.83-134.45H331c-9.09 70.77-11.32 114.1-11.83 134.45a89 89 0 0 0 6.53 36.72c3.71 8.8 7.14 12.83 7.14 12.83H353s3.42-4 7.14-12.83a89.12 89.12 0 0 0 6.52-36.72ZM447.5 401.52h-28.44c-7.6 0-13.77 7.25-13.77 16.19h56c-.03-8.94-6.19-16.19-13.79-16.19Z" style="fill:#d6c2ab"/><path d="M409.52 352a89 89 0 0 0 6.53 36.72c3.71 8.8 7.13 12.83 7.13 12.83h20.19s3.42-4 7.14-12.83A89.12 89.12 0 0 0 457 352c-.27-11-1-28.59-3.12-53.54a6.34 6.34 0 0 0-6.32-5.8H419a6.33 6.33 0 0 0-6.31 5.8c-2.12 24.92-2.9 42.54-3.17 53.54Z" style="fill:#d6c2ab"/><path d="M25.55 176h340.87a15.06 15.06 0 0 1 15.06 15v10.31H25.55V176Z" style="fill:#f7d6b2"/><path d="M43.82 144.2V176h305.46l-12.71-5.7a22.87 22.87 0 0 1-13.46-19.68 6.72 6.72 0 0 0-6.71-6.38ZM48 125.58 66.5 105a44.74 44.74 0 0 1 12.35-9.65c11.21-6 33.17-17.51 46.44-23.91a8.81 8.81 0 0 1 12.12 5 25.25 25.25 0 0 0 20.27 16.48l16.95 2.36a10.12 10.12 0 0 1 8.6 9.44c.62 8.6 4.83 20.89 23.73 20.89 0 0 13.54 0 19.42-15.73a8 8 0 0 1 12.06-3.9l27.73 19.63Z" style="fill:#f4e7d7"/><path d="M366.42 176H252.54v25.38h128.94V191a15.06 15.06 0 0 0-15.06-15Z" style="fill:#e5b380"/><path d="M323.11 150.58a6.72 6.72 0 0 0-6.71-6.38h-63.86V176h96.74l-12.71-5.7a22.87 22.87 0 0 1-13.46-19.72Z" style="fill:#d6c2ab"/><path style="fill:#e5b380" d="M252.54 125.58h52.07v18.62h-52.07z"/><path d="M280.52 201.34h-28v216.37h28c0-8.94-6.16-16.19-13.76-16.19h-4.13s3.43-4 7.14-12.83a89.12 89.12 0 0 0 6.52-36.69c-.5-20.35-2.74-63.68-11.83-134.45h2.3c7.6-.03 13.76-7.27 13.76-16.21Z" style="fill:#d6c2ab"/><path d="M491.68 412.48h-25.83c-1.69-7.52-6.89-13.42-13.53-15.4.95-1.8 2-3.9 3-6.36a94.51 94.51 0 0 0 6.94-38.88c-.26-10.45-1-28.28-3.14-53.84a11.63 11.63 0 0 0-11.53-10.6H419a11.63 11.63 0 0 0-11.57 10.6c-2.12 25.57-2.88 43.39-3.14 53.84a94.45 94.45 0 0 0 6.94 38.88c1 2.46 2 4.56 3 6.36-6.64 2-11.84 7.88-13.53 15.4h-25.22c-1.69-7.52-6.88-13.42-13.53-15.4.95-1.8 2-3.9 3-6.36a94.45 94.45 0 0 0 6.94-38.88c-.47-19.19-2.59-61.26-11.18-129.49 7.24-1.57 13-7.79 14.77-15.78h11.23V191a20.31 20.31 0 0 0-20.29-20.29h-16l-11.68-5.25a17.51 17.51 0 0 1-10.38-15.17A12 12 0 0 0 316.4 139h-6.56v-18.65h-42l-26.38-18.67a13 13 0 0 0-11.38-1.82 13.33 13.33 0 0 0-8.6 8.16C217 120 207.31 120.34 207 120.35c-11.67 0-17.73-5.25-18.52-16a15.28 15.28 0 0 0-13.09-14.25l-16.99-2.4a19.91 19.91 0 0 1-16.06-13A14 14 0 0 0 123 66.72c-13.3 6.42-34.91 17.79-46.61 24a50 50 0 0 0-13.78 10.78l-16.93 18.85H20.32v29.08h18.27v21.3H20.32v35.84h18.91c1.79 8 7.53 14.21 14.77 15.78-8.59 68.23-10.71 110.3-11.19 129.49a94.81 94.81 0 0 0 6.94 38.88c1 2.47 2.06 4.56 3 6.36-6.64 2-11.83 7.88-13.52 15.4H20.32v34.2h471.36Zm-73.82-113.61a1.1 1.1 0 0 1 1.1-1h28.63a1.1 1.1 0 0 1 1.1 1c2.11 25.32 2.86 42.93 3.11 53.24a84.19 84.19 0 0 1-6.11 34.56 62.72 62.72 0 0 1-5 9.63h-14.82a61.64 61.64 0 0 1-5-9.63 84.19 84.19 0 0 1-6.11-34.56c.24-10.32.99-27.92 3.1-53.24Zm1.19 107.88h28.45c3.23 0 6 2.32 7.49 5.73h-43.43c1.44-3.41 4.26-5.73 7.49-5.73Zm-54.43 5.73h-43.43c1.45-3.41 4.27-5.73 7.5-5.73h28.44c3.23 0 6.04 2.32 7.49 5.73Zm-79.51 0c-1.69-7.52-6.88-13.42-13.52-15.4.94-1.8 2-3.9 3-6.36a94.64 94.64 0 0 0 6.93-38.88c-.47-19.16-2.58-61.17-11.18-129.49 7.24-1.57 13-7.79 14.77-15.78h25.23c1.79 8 7.53 14.21 14.76 15.78-8.6 68.32-10.71 110.33-11.18 129.49a94.81 94.81 0 0 0 6.94 38.88c1 2.46 2.05 4.56 3 6.36-6.64 2-11.83 7.88-13.52 15.4Zm-90.37 0c-1.69-7.52-6.88-13.42-13.52-15.4.94-1.8 2-3.9 3-6.36a94.62 94.62 0 0 0 6.95-38.88c-.48-19.18-2.6-61.22-11.19-129.49 7.24-1.57 13-7.79 14.77-15.78H220c1.79 8 7.53 14.21 14.76 15.78-8.59 68.23-10.7 110.3-11.18 129.49a94.78 94.78 0 0 0 6.94 38.88c1 2.46 2 4.56 3 6.36-6.64 2-11.83 7.88-13.52 15.4Zm-90.37 0c-1.69-7.52-6.88-13.42-13.52-15.4.94-1.8 2-3.9 3-6.36a94.81 94.81 0 0 0 6.94-38.88c-.48-19.16-2.59-61.17-11.19-129.49 7.24-1.57 13-7.79 14.77-15.78h25.23c1.8 8 7.53 14.21 14.77 15.78-8.6 68.27-10.71 110.31-11.19 129.49a94.84 94.84 0 0 0 6.94 38.88c1 2.46 2 4.56 3 6.36-6.64 2-11.83 7.88-13.52 15.4Zm70.21-25.82a62.72 62.72 0 0 1-5 9.63h-14.82a60.94 60.94 0 0 1-5-9.63 84.19 84.19 0 0 1-6.12-34.56c.47-19.07 2.57-61 11.21-129.35h14.64c8.64 68.39 10.73 110.25 11.21 129.35a84.19 84.19 0 0 1-6.12 34.56Zm1.81-174.37H148c-3.23 0-6-2.31-7.5-5.72h43.43c-1.49 3.43-4.31 5.72-7.54 5.72ZM148 406.75h28.44c3.23 0 6.05 2.32 7.49 5.73h-43.48c1.45-3.41 4.27-5.73 7.55-5.73Zm117-20.09a62.72 62.72 0 0 1-5 9.63h-14.87a60.94 60.94 0 0 1-5-9.63A84.19 84.19 0 0 1 234 352.1c.48-19.09 2.57-61 11.21-129.35h14.64c8.65 68.45 10.73 110.3 11.2 129.35a84.19 84.19 0 0 1-6.05 34.56Zm1.81-174.37h-28.49c-3.23 0-6-2.31-7.5-5.72h43.43c-1.45 3.43-4.25 5.72-7.49 5.72Zm-28.49 194.46h28.44c3.23 0 6 2.32 7.49 5.73h-43.43c1.45-3.41 4.27-5.73 7.5-5.73Zm123.11-54.65a84.19 84.19 0 0 1-6.11 34.56 62.72 62.72 0 0 1-5 9.63H335.5a61.64 61.64 0 0 1-5-9.63 84.35 84.35 0 0 1-6.11-34.56c.47-19.05 2.56-60.9 11.21-129.35h14.64C358.86 291.11 361 333 361.43 352.1Zm-4.3-139.81h-28.44c-3.23 0-6.05-2.31-7.5-5.72h43.43c-1.45 3.43-4.26 5.72-7.49 5.72Zm-40.73-62.86a1.49 1.49 0 0 1 1.49 1.42 27.94 27.94 0 0 0 9.75 19.88H217v-21.3h99.4Zm-191.67 0h81.85v21.3h-81.85Zm106.55-37.75a2.93 2.93 0 0 1 1.89-1.82 2.46 2.46 0 0 1 2.25.36l14.31 10.13h-23.17a33.34 33.34 0 0 0 4.72-8.67Zm-160.89-3.19A39.29 39.29 0 0 1 81.3 100c9.37-5 32.62-17.24 46.26-23.82a3.59 3.59 0 0 1 4.93 2A30.36 30.36 0 0 0 157 98.07l16.95 2.36a4.89 4.89 0 0 1 4.1 4.64 29.42 29.42 0 0 0 5.11 15.28H59.74ZM30.78 139v-8.16h268.6V139H30.78Zm18.27 10.46h65.22v21.3H49.05Zm-10.46 46.65h-7.81v-14.92h335.64a9.84 9.84 0 0 1 9.83 9.83v5.09H38.59Zm11.5 10.46h43.42c-1.44 3.41-4.26 5.72-7.49 5.72H57.58c-3.23 0-6.05-2.29-7.49-5.72Zm14.39 16.18h14.64c8.65 68.45 10.74 110.3 11.21 129.35a84.11 84.11 0 0 1-6.12 34.55 60.7 60.7 0 0 1-5 9.64H64.39a60.94 60.94 0 0 1-5-9.63 84.19 84.19 0 0 1-6.12-34.56c.48-19.1 2.57-60.99 11.21-129.35Zm-6.9 184H86c3.23 0 6 2.32 7.49 5.73h-43.4c1.44-3.41 4.26-5.73 7.49-5.73Zm423.64 29.47H30.78v-13.28h450.44Z" style="fill:#3d3d3d"/></symbol><symbol id="palm-tree" viewBox="0 0 512 512"><path style="fill:#3c8744" d="M419.19 193.85c2.47 10.84 3.13 21.67 2.199 32.18-16.819-28.29-46.33-46.99-79.06-50.15-.78-.69-1.561-1.36-2.35-2.02-.79-.68-1.591-1.33-2.391-1.97-.78-.64-1.57-1.26-2.37-1.87-.1-.08-.21-.16-.31-.23-.69-.54-1.391-1.06-2.101-1.57l-.329-.24a77.854 77.854 0 0 0-2.351-1.66c-.74-.52-1.49-1.03-2.24-1.52-.229-.16-.46-.31-.689-.45-.61-.41-1.23-.81-1.851-1.18-.279-.2-.569-.37-.859-.54-.48-.31-.971-.61-1.471-.9-.369-.23-.76-.46-1.14-.68-.54-.33-1.09-.64-1.64-.94-.62-.37-1.25-.71-1.88-1.05-.681-.38-1.37-.75-2.07-1.11-.74-.39-1.49-.77-2.24-1.14-.85-.43-1.71-.85-2.58-1.25-1.3-.62-2.62-1.21-3.95-1.77-.68-.31-1.359-.59-2.039-.87-.91-.38-1.841-.74-2.771-1.1-.88-.34-1.78-.67-2.68-.99-.141-.05-.29-.11-.44-.16-.64-.23-1.29-.45-1.93-.67-.641-.21-1.29-.43-1.95-.63-.58-.19-1.16-.37-1.74-.54-1.46-.45-2.93-.87-4.42-1.26-.55-.15-1.1-.29-1.66-.42-1.37-.35-2.76-.68-4.149-.97-.67-.15-1.351-.29-2.03-.42-.68-.14-1.36-.27-2.05-.39-1.22-.23-2.44-.44-3.67-.62-.25-.04-.5-.08-.76-.11a41.04 41.04 0 0 0-1.54-.22c-.841-.12-1.681-.22-2.53-.31-.76-.09-1.521-.17-2.28-.24-.45-.05-.91-.1-1.37-.13-.12-.02-.24-.03-.359-.03-.431-.44-.87-.87-1.311-1.29-.439-.43-.89-.86-1.34-1.27-.45-.43-.9-.84-1.36-1.25-.489-.45-1-.9-1.51-1.34a98.24 98.24 0 0 0-5.62-4.54 102.822 102.822 0 0 1 39.2-18.16c55.772-12.7 111.282 22.21 123.982 77.99z"/><path style="fill:#36753b" d="M419.19 193.85c-12.7-55.78-68.21-90.69-123.98-77.99a102.822 102.822 0 0 0-39.2 18.16 97.894 97.894 0 0 1 5.62 4.54c.327.282.646.571.968.859a102.957 102.957 0 0 1 31.362-12.809c55.771-12.7 111.28 22.21 123.98 77.99a103.828 103.828 0 0 1 2.551 19.969c.301.486.605.968.898 1.46a103.5 103.5 0 0 0-2.199-32.179z"/><path style="fill:#9e6133" d="m281.01 216.14 9.2 257.61h-110l46.66-256.66c5.83-1.34 11.8-2.3 17.89-2.83 3.77-.33 7.59-.51 11.45-.51 8.48 0 16.77.83 24.8 2.39z"/><path style="fill:#45994c" d="M132.49 303.75c-4.07-12.6-6.28-26.04-6.28-40 0-67.96 52.14-123.72 118.6-129.5.91-.08 1.82-.15 2.74-.2.05-.01.1-.01.15-.01.66-.05 1.32-.09 1.99-.12.59-.03 1.18-.05 1.78-.07.38-.02.76-.04 1.15-.04.71-.02 1.41-.03 2.12-.04.04-.01.09-.01.14-.01.44-.01.89-.01 1.33-.01.13 0 .26 0 .38.01.75 0 1.49.01 2.23.03.899.02 1.8.05 2.699.09.95.04 1.9.09 2.841.16.949.06 1.89.13 2.83.21l-.04-.04c.119 0 .239.01.359.03.46.04.91.08 1.37.13.76.06 1.53.14 2.28.24.85.09 1.689.19 2.53.31.52.07 1.029.14 1.54.22.26.03.51.07.76.11 1.229.19 2.45.39 3.67.62.68.12 1.359.25 2.05.39.68.13 1.35.27 2.03.42 1.39.29 2.779.62 4.149.97.561.14 1.11.28 1.66.42 1.49.39 2.96.81 4.42 1.26.58.17 1.16.35 1.74.54.66.2 1.31.42 1.95.63.8.27 1.59.54 2.37.83.899.32 1.8.65 2.68.99.93.36 1.85.73 2.771 1.1.689.28 1.369.57 2.039.87 1.33.56 2.65 1.15 3.95 1.77.87.4 1.73.82 2.58 1.25.75.37 1.5.75 2.24 1.14.7.36 1.38.73 2.07 1.11.63.34 1.26.68 1.88 1.05.55.3 1.1.62 1.64.94.39.22.771.44 1.14.68.5.29.99.59 1.471.9.29.17.58.34.859.54.62.38 1.24.77 1.851 1.18.229.14.46.29.689.45.75.5 1.5 1 2.24 1.52.79.54 1.57 1.1 2.351 1.66l.329.24c.71.52 1.41 1.04 2.101 1.57.1.07.21.15.31.23.8.62 1.59 1.24 2.37 1.87.811.64 1.601 1.3 2.391 1.97.789.66 1.579 1.34 2.35 2.02 26.91 23.82 43.88 58.61 43.88 97.37 0 13.96-2.21 27.4-6.28 40-14.399-44.56-52.21-78.59-98.92-87.61a129.923 129.923 0 0 0-24.8-2.39c-3.86 0-7.68.18-11.45.51-6.09.53-12.06 1.49-17.89 2.83-3.88.9-7.69 1.96-11.43 3.19-39.25 12.96-70.23 44.1-82.95 83.47z"/><path style="fill:#84502c" d="M235.12 225.59c5.83-1.34 11.8-2.3 17.89-2.83 3.77-.33 7.59-.51 11.45-.51 5.696 0 11.304.383 16.808 1.102l-.258-7.211a129.923 129.923 0 0 0-24.8-2.39c-3.86 0-7.68.18-11.45.51-6.09.53-12.06 1.49-17.89 2.83l-46.66 256.66h9.795L235.12 225.59z"/><path style="fill:#64bb46" d="M291.62 116.74a102.822 102.822 0 0 0-35.61 17.28c-.71-.54-1.43-1.07-2.15-1.57a93.818 93.818 0 0 0-6.69-4.38c-.76-.47-1.53-.92-2.31-1.35-.78-.45-1.57-.88-2.36-1.3a87.18 87.18 0 0 0-4.84-2.41 98.507 98.507 0 0 0-7.55-3.17c-.81-.3-1.63-.6-2.45-.88-.22-.08-.45-.15-.67-.22-.64-.22-1.27-.43-1.92-.63l-.27-.09c-.83-.26-1.66-.51-2.5-.75-.08-.02-.17-.04-.25-.07-.67-.19-1.35-.37-2.03-.55-.33-.09-.66-.17-.99-.25-.74-.19-1.49-.37-2.24-.54-1.99-.46-3.99-.84-5.98-1.18-14.32-35.53-43.89-63.29-80.6-75.15 12.6-4.07 26.04-6.28 40-6.28 55.41 0 102.7 34.67 121.41 83.49z"/><path style="fill:#53a535" d="M170.71 45.75c51.062 0 95.207 29.453 116.467 72.278a105.69 105.69 0 0 1 4.443-1.288c-18.71-48.82-66-83.49-121.41-83.49-13.96 0-27.4 2.21-40 6.28a129.183 129.183 0 0 1 19.205 7.974 130.517 130.517 0 0 1 21.295-1.754z"/><path style="fill:#4aaa48" d="M210.81 114.68c1.99.34 3.99.72 5.98 1.18.75.17 1.5.35 2.24.54.33.08.66.16.99.25.68.18 1.35.36 2.03.55.08.03.17.05.25.07.84.24 1.67.49 2.5.75l.27.09c.65.2 1.29.41 1.92.63.22.07.45.14.67.22.82.29 1.64.58 2.45.88a105.257 105.257 0 0 1 12.39 5.58c.79.43 1.58.86 2.36 1.3.77.44 1.55.89 2.31 1.35 2.3 1.38 4.53 2.84 6.69 4.38.72.52 1.43 1.04 2.14 1.57a104.22 104.22 0 0 0-11.15 9.69c-8.77.73-17.3 2.33-25.5 4.73a129.749 129.749 0 0 0-49.68 27.44c-32.73 3.16-62.24 21.86-79.06 50.15-.93-10.51-.27-21.34 2.2-32.18 12.25-53.78 64.29-88.16 118-79.17z"/><path style="fill:#3f933d" d="M97.31 205.1c12.25-53.78 64.29-88.16 118-79.17 1.99.34 3.99.72 5.98 1.18.75.17 1.5.35 2.24.54.33.08.66.16.99.25.68.18 1.35.36 2.03.55.08.03.17.05.25.07.84.24 1.67.49 2.5.75l.27.09c.65.2 1.29.41 1.92.63.22.07.45.14.67.22.82.29 1.64.58 2.45.88a105.257 105.257 0 0 1 12.39 5.58c.79.43 1.58.86 2.36 1.3.339.194.676.396 1.017.594a105.842 105.842 0 0 1 5.624-4.544c-.71-.53-1.42-1.05-2.14-1.57-2.16-1.54-4.39-3-6.69-4.38-.76-.46-1.54-.91-2.31-1.35-.78-.44-1.57-.87-2.36-1.3a105.257 105.257 0 0 0-12.39-5.58c-.81-.3-1.63-.59-2.45-.88-.22-.08-.45-.15-.67-.22-.63-.22-1.27-.43-1.92-.63l-.27-.09c-.83-.26-1.66-.51-2.5-.75-.08-.02-.17-.04-.25-.07-.68-.19-1.35-.37-2.03-.55-.33-.09-.66-.17-.99-.25-.74-.19-1.49-.37-2.24-.54-1.99-.46-3.99-.84-5.98-1.18-53.71-8.99-105.75 25.39-118 79.17a103.535 103.535 0 0 0-2.2 32.18 102.82 102.82 0 0 1 4.516-6.925c.408-4.65 1.117-9.326 2.183-14.005z"/><path style="fill:#3a843e" d="M131.96 273.5c0-67.96 52.14-123.72 118.6-129.5.91-.08 1.82-.15 2.74-.2.05-.01.1-.01.15-.01.66-.05 1.32-.09 1.99-.12.59-.03 1.18-.05 1.781-.07.379-.02.76-.04 1.149-.04.71-.02 1.409-.03 2.12-.04.039-.01.09-.01.14-.01.44-.01.89-.01 1.33-.01.13 0 .261 0 .38.01.75 0 1.49.01 2.23.03.899.02 1.8.05 2.699.09.95.04 1.9.09 2.841.16.949.06 1.89.13 2.83.21l-.04-.04c.119 0 .239.01.359.03.46.04.91.08 1.37.13.76.06 1.53.14 2.28.24.85.09 1.689.19 2.53.31.52.07 1.029.14 1.54.22.26.03.51.07.76.11 1.229.19 2.45.39 3.67.62.68.12 1.359.25 2.05.39.68.13 1.35.27 2.03.42 1.39.29 2.779.62 4.149.97.561.14 1.11.28 1.66.42 1.49.39 2.96.81 4.42 1.26.58.17 1.16.35 1.74.54.66.2 1.31.42 1.95.63.8.27 1.59.54 2.37.83.899.32 1.8.65 2.68.99.93.36 1.85.73 2.771 1.1.689.28 1.369.57 2.039.87 1.33.56 2.65 1.15 3.95 1.77.87.4 1.73.82 2.58 1.25.75.37 1.5.75 2.24 1.14.7.36 1.38.73 2.07 1.11.63.34 1.26.68 1.88 1.05.55.3 1.1.62 1.64.94.39.22.771.44 1.14.68.5.29.99.59 1.471.9.29.17.58.34.859.54.62.38 1.24.77 1.851 1.18.229.14.46.29.689.45.75.5 1.5 1 2.24 1.52.79.54 1.57 1.1 2.351 1.66l.329.24c.71.52 1.41 1.04 2.101 1.57.1.07.21.15.31.23.8.62 1.59 1.24 2.37 1.87.811.64 1.601 1.3 2.391 1.97.789.66 1.579 1.34 2.35 2.02a130.717 130.717 0 0 1 22.977 26.682 130.57 130.57 0 0 0-28.727-36.432c-.771-.68-1.561-1.36-2.35-2.02a87.64 87.64 0 0 0-2.391-1.97c-.78-.63-1.57-1.25-2.37-1.87-.1-.08-.21-.16-.31-.23-.69-.53-1.391-1.05-2.101-1.57l-.329-.24a124.9 124.9 0 0 0-2.351-1.66c-.74-.52-1.49-1.02-2.24-1.52-.229-.16-.46-.31-.689-.45-.61-.41-1.23-.8-1.851-1.18-.279-.2-.569-.37-.859-.54-.48-.31-.971-.61-1.471-.9-.369-.24-.75-.46-1.14-.68-.54-.32-1.09-.64-1.64-.94-.62-.37-1.25-.71-1.88-1.05-.69-.38-1.37-.75-2.07-1.11-.74-.39-1.49-.77-2.24-1.14-.85-.43-1.71-.85-2.58-1.25-1.3-.62-2.62-1.21-3.95-1.77-.67-.3-1.35-.59-2.039-.87-.921-.37-1.841-.74-2.771-1.1-.88-.34-1.78-.67-2.68-.99-.78-.29-1.57-.56-2.37-.83-.641-.21-1.29-.43-1.95-.63-.58-.19-1.16-.37-1.74-.54-1.46-.45-2.93-.87-4.42-1.26-.55-.14-1.1-.28-1.66-.42-1.37-.35-2.76-.68-4.149-.97-.681-.15-1.351-.29-2.03-.42-.69-.14-1.37-.27-2.05-.39-1.22-.23-2.44-.43-3.67-.62-.25-.04-.5-.08-.76-.11a73.13 73.13 0 0 0-1.54-.22c-.841-.12-1.681-.22-2.53-.31-.75-.1-1.521-.18-2.28-.24-.46-.05-.91-.09-1.37-.13-.12-.02-.24-.03-.359-.03l.04.04c-.94-.08-1.881-.15-2.83-.21-.94-.07-1.891-.12-2.841-.16-.899-.04-1.8-.07-2.699-.09-.74-.02-1.48-.03-2.23-.03-.12-.01-.25-.01-.38-.01-.44 0-.89 0-1.33.01-.05 0-.1 0-.14.01-.71.01-1.41.02-2.12.04-.39 0-.77.02-1.15.04-.6.02-1.19.04-1.78.07-.67.03-1.33.07-1.99.12-.05 0-.1 0-.15.01-.92.05-1.83.12-2.74.2-66.46 5.78-118.6 61.54-118.6 129.5 0 13.96 2.21 27.4 6.28 40 .582-1.8 1.214-3.576 1.871-5.34a130.365 130.365 0 0 1-2.401-24.91zM370.986 282.705a129.166 129.166 0 0 1 8.943 21.045c.314-.973.597-1.959.889-2.941a129.516 129.516 0 0 0-9.832-18.104z"/><path style="fill:#ffd8a8" d="M390.21 478.75h-290a5 5 0 1 1 0-10h290c2.762 0 5 2.238 5 5s-2.238 5-5 5z"/><path style="fill:#3a843e" d="M189.058 214.125c22.569-18.084 44.055-25.57 44.27-25.644a5 5 0 0 0-3.231-9.463c-.932.317-23.099 8-47.005 27.074-20.164 16.088-44.961 43.36-54.1 84.412a129.545 129.545 0 0 0 3.498 13.246 129.108 129.108 0 0 1 8.729-20.658c7.969-26.726 23.991-49.859 47.839-68.967z"/><path style="fill:#84502c" d="M240.21 338.75h-30a5 5 0 1 1 0-10h30a5 5 0 1 1 0 10zM262.71 408.75c-2.762 0-5 2.238-5 5s2.238 5 5 5h25.535l-.356-10H262.71zM256.21 273.75a5 5 0 0 0 5 5h22.035l-.356-10H261.21a5 5 0 0 0-5 5zM223.21 438.75h-30a5 5 0 1 1 0-10h30a5 5 0 1 1 0 10z"/></symbol><symbol id="hotel-beach" viewBox="0 0 32 32"><path class="cls-1" style="fill:#009ae0" d="M2 25a4 4 0 0 0 4 4h12v-9.375a11.2 11.2 0 0 0-8 0 11.172 11.172 0 0 1-5.664.62A2 2 0 0 0 2 22.193Z"/><path class="cls-2" style="fill:#8fa5a5" d="M22 20a1 1 0 0 1-1-1v-9a1 1 0 0 1 2 0v9a1 1 0 0 1-1 1Z"/><path class="cls-1" style="fill:#009ae0" d="M29 11H15a1 1 0 0 1-1-1c0-3.859 3.589-7 8-7s8 3.141 8 7a1 1 0 0 1-1 1Z"/><path class="cls-3" style="fill:#eaeff0" d="M18 11c0-4.418 1.791-8 4-8s4 3.582 4 8Z"/><path class="cls-4" style="fill:#ffd188" d="m9 29 5.4-6.821a12 12 0 0 1 9.41-4.554H28a2 2 0 0 1 2 2V25a4 4 0 0 1-4 4Z"/><path class="cls-5" style="fill:#fac100" d="M4 15a1 1 0 0 1-1-1v-1a1 1 0 0 1 2 0v1a1 1 0 0 1-1 1ZM13 6h-1a1 1 0 0 1 0-2h1a1 1 0 0 1 0 2ZM9.657 12.071a.993.993 0 0 1-.707-.293l-.707-.707a1 1 0 0 1 1.414-1.414l.707.707a1 1 0 0 1-.707 1.707ZM4.431 9.979a4.647 4.647 0 0 1-1.69-.155A1 1 0 0 1 2 8.859V5a2 2 0 0 1 2-2h3.858a1 1 0 0 1 .968.747 4.368 4.368 0 0 1-.165 2.915 5.157 5.157 0 0 1-4.23 3.317Z"/></symbol><symbol id="plane-start" viewBox="0 0 512 512"><path style="fill:#d7dbe0" d="M509.492 139.794c-4.906-11.844-14.133-21.07-25.977-25.977s-24.891-4.906-36.734 0L153.179 235.661l-97.742-29.492a32.02 32.02 0 0 0-21.883 1.234L4.843 219.747a7.983 7.983 0 0 0-4.656 5.641 7.984 7.984 0 0 0 1.867 7.063l58.352 64.789c17.031 18.898 41.023 29.086 65.484 29.086a87.648 87.648 0 0 0 33.578-6.68l332.711-138.039c7.898-3.273 14.047-9.422 17.313-17.32 3.273-7.9 3.273-16.595 0-24.493z"/><path style="fill:#45bdf0" d="M508.116 145.278 175.405 283.317a87.648 87.648 0 0 1-33.578 6.68c-24.461 0-48.453-10.188-65.484-29.086L29.66 209.077l-24.817 10.67a7.983 7.983 0 0 0-4.656 5.641 7.984 7.984 0 0 0 1.867 7.063l58.352 64.789c17.031 18.898 41.023 29.086 65.484 29.086a87.648 87.648 0 0 0 33.578-6.68l332.711-138.039c7.898-3.273 14.047-9.422 17.313-17.32 2.721-6.564 3.046-13.656 1.244-20.406-.878.461-1.692 1.013-2.62 1.397z"/><path style="fill:#8a8895" d="M358.056 262.949 254.581 305.81l-16-39.017 103.39-42.826c8.197-3.395 17.591.527 20.94 8.743l3.804 9.333c3.382 8.165-.495 17.524-8.659 20.906z"/><path style="fill:#5c546a" d="M436.812 160.606c-2.078 0-4.156-.875-5.594-2.398-1.523-1.438-2.406-3.523-2.406-5.68 0-2.078.883-4.164 2.406-5.602 2.875-2.961 8.32-2.961 11.273 0 1.523 1.438 2.32 3.523 2.32 5.602 0 2.156-.797 4.242-2.32 5.68-1.437 1.523-3.515 2.398-5.679 2.398zM192.976 261.567c-2.164 0-4.242-.797-5.68-2.32-1.523-1.438-2.32-3.516-2.32-5.68 0-2.078.797-4.156 2.32-5.68 2.961-2.883 8.32-2.961 11.281.078a7.84 7.84 0 0 1 2.398 5.602c0 2.164-.883 4.164-2.398 5.68-1.445 1.523-3.523 2.32-5.601 2.32zM170.734 270.77c-2.078 0-4.156-.883-5.602-2.32-1.516-1.523-2.398-3.602-2.398-5.68 0-2.086.883-4.164 2.398-5.68 2.883-2.961 8.32-2.961 11.281 0 1.523 1.516 2.32 3.594 2.32 5.68 0 2.078-.797 4.156-2.32 5.68-1.437 1.516-3.515 2.32-5.679 2.32zM414.656 169.731c-2.078 0-4.164-.805-5.68-2.32-1.438-1.445-2.32-3.523-2.32-5.68 0-2.086.883-4.164 2.398-5.68 2.961-2.883 8.32-2.961 11.281 0 1.523 1.516 2.32 3.594 2.32 5.68 0 2.078-.797 4.156-2.32 5.68-1.523 1.516-3.523 2.32-5.679 2.32z"/><path style="fill:#b8bac0" d="M379.921 182.88c-2.172-3.055-6.172-4.203-9.586-2.758l-147.82 61.227a8.015 8.015 0 0 0-3.977 3.586l-78.461 145.07a7.996 7.996 0 0 0 1.102 9.164 7.98 7.98 0 0 0 5.938 2.641 7.94 7.94 0 0 0 3.063-.609l66.516-27.555a7.936 7.936 0 0 0 2.898-2.063L379.36 192.841a7.989 7.989 0 0 0 .561-9.961z"/><path style="fill:#5c546a" d="m494.181 120.166-25.229 10.448c-4.078 1.688-6.016 6.367-4.328 10.453a8.003 8.003 0 0 0 10.454 4.329l30.634-12.687c-3.055-4.889-6.974-9.071-11.531-12.543z"/></symbol></defs></svg>