<svg xmlns="http://www.w3.org/2000/svg" aria-hidden="true" style="width:0;height:0;position:absolute;overflow:hidden"><defs><symbol id="icon-search" viewBox="0 0 32 32"><path fill="none" stroke="#fff" stroke-linecap="round" stroke-linejoin="round" stroke-width="2.67" d="M14.67 25.33a10.67 10.67 0 1 0 0-21.33 10.67 10.67 0 0 0 0 21.33zM28 28l-5.8-5.8" style="stroke:var(--color1,#fff)"/></symbol><symbol id="plane-bags" viewBox="0 0 64 64"><path d="M17 6v15h4V8h14v13h4V6a2 2 0 0 0-2-2H19a2 2 0 0 0-2 2Z" fill="#AAE1F9"/><path d="M37 15V4H19a2 2 0 0 0-2 2v15h4v-3a2 2 0 0 1-2-2v-6a2 2 0 0 1 2-2h14v13h4v-3.184A2.99 2.99 0 0 1 37 15Z" fill="#57B7EB"/><path d="M40 21H16a4 4 0 0 0-4 4v28a4 4 0 0 0 4 4h24a4 4 0 0 0 4-4V25a4 4 0 0 0-4-4Z" fill="#F9E109"/><path d="M16 57h4v2a2 2 0 0 1-4 0v-2ZM36 57h4v2a2 2 0 0 1-4 0v-2Z" fill="#57B7EB"/><path d="M33 3H23a2 2 0 0 0-2 2v2a2 2 0 0 0 2 2h10a2 2 0 0 0 2-2V5a2 2 0 0 0-2-2Z" fill="#F9E109"/><path d="M23 3a2 2 0 0 0-2 2v2a2 2 0 0 0 2 2h10a2 2 0 0 0 2-2h-8a4 4 0 0 1-4-4ZM37 51a18 18 0 0 1-18-18V21h-3a4 4 0 0 0-4 4v28a4 4 0 0 0 4 4h24a4 4 0 0 0 4-4v-2h-7Z" fill="#FCBC04"/><path d="M38 60a2 2 0 0 1 2-2v-1h-4v2a2 2 0 0 0 2 2v-1ZM18 60a2 2 0 0 1 2-2v-1h-4v2a2 2 0 0 0 2 2v-1Z" fill="#4891D3"/><path d="M21 27H3v24h18V27Z" fill="#C4F236"/><path d="M19 46A12 12 0 0 1 7 34v-7H3v24h18v-5h-2Z" fill="#A1D51C"/><path d="m36.412 25.768 7 12.124 6.928-4-5.028-6.4a6.916 6.916 0 0 0-8.9-1.724Z" fill="#57B7EB"/><path d="M46.735 29.3a6 6 0 0 1-7.323-2.6l-.981-1.7c-.71.149-1.39.409-2.019.77l7 12.124 6.928-4-3.605-4.594Z" fill="#4891D3"/><path d="m50.072 29.428-17.321 10-.5-.866a4 4 0 0 0-5.464-1.462l2.5 4.33a6.72 6.72 0 0 0 7.366 3.18 37.058 37.058 0 0 0 10.006-3.972L61 32.356a8 8 0 0 0-10.928-2.928Z" fill="#57B7EB"/><path d="m58.823 29.923-8.164 4.713a37.058 37.058 0 0 1-10.006 3.972 6.711 6.711 0 0 1-5.061-.82l-2.841 1.64-.5-.866a4 4 0 0 0-5.464-1.462l2.5 4.33a6.72 6.72 0 0 0 7.366 3.18 37.058 37.058 0 0 0 10.006-3.972L61 32.356a7.974 7.974 0 0 0-2.177-2.433Z" fill="#4891D3"/><path d="m50.412 50.017-7-12.125 6.928-4 3.033 7.556a6.92 6.92 0 0 1-2.961 8.569Z" fill="#AAE1F9"/><path d="M53.8 43.091a3.366 3.366 0 0 1-2.3.909 3.3 3.3 0 0 1-2.626-1.3l-2.22-2.908a1.888 1.888 0 0 0-2.436-.493l6.188 10.717a6.916 6.916 0 0 0 3.394-6.925Z" fill="#57B7EB"/><path d="M44 45.021a1 1 0 0 0-1 1v3.633l-2.964 1.712a1 1 0 1 0 1 1.732L43 51.964V53a3 3 0 0 1-3 3H16a2.967 2.967 0 0 1-2.581-1.5 1 1 0 0 0-1.729 1A5.03 5.03 0 0 0 15 57.885V59a3 3 0 1 0 6 0v-1h14v1a3 3 0 0 0 6 0v-1.1a5.01 5.01 0 0 0 4-4.9v-6.979a1 1 0 0 0-1-1ZM19 59a1 1 0 0 1-2 0v-1h2v1Zm20 0a1 1 0 0 1-2 0v-1h2v1ZM18 39a6 6 0 1 0-12 0 6 6 0 0 0 12 0Zm-5.048-1h-1.9A5.118 5.118 0 0 1 12 35.025c.62.868.952 1.908.952 2.975Zm0 2A5.118 5.118 0 0 1 12 42.975 5.118 5.118 0 0 1 11.048 40h1.904Zm1.69 1.98c.164-.65.271-1.312.319-1.98h.9a3.985 3.985 0 0 1-1.219 1.98ZM15.858 38h-.9a11.414 11.414 0 0 0-.319-1.98A3.985 3.985 0 0 1 15.858 38Zm-6.5-1.98c-.164.65-.271 1.312-.319 1.98h-.9c.2-.767.625-1.456 1.219-1.98ZM8.142 40h.9c.048.668.155 1.33.319 1.98A3.985 3.985 0 0 1 8.142 40Z" fill="#39519D"/><path d="M22 51V27a1 1 0 0 0-1-1h-8v-1a3 3 0 0 1 3-3h24a1 1 0 0 0 0-2V6a3 3 0 0 0-3-3h-1.78A2.985 2.985 0 0 0 33 2H23a2.985 2.985 0 0 0-2.22 1H19a3 3 0 0 0-3 3v14a5.006 5.006 0 0 0-5 5v1H3a1 1 0 0 0-1 1v16a1 1 0 1 0 2 0V28h16v22H4v-3a1 1 0 1 0-2 0v4a1 1 0 0 0 1 1h18a1 1 0 0 0 1-1ZM37 5a1 1 0 0 1 1 1v14h-2V5h1ZM23 4h10a1 1 0 0 1 1 1v2a1 1 0 0 1-1 1H23a1 1 0 0 1-1-1V5a1 1 0 0 1 1-1Zm-5 2a1 1 0 0 1 1-1h1v2a3 3 0 0 0 3 3h10c.341-.003.68-.066 1-.184V20H22v-8a1 1 0 0 0-2 0v8h-2V6ZM31.056 53.955a1 1 0 0 0 .5-.134l9.526-5.5a1 1 0 0 0-1-1.733l-9.526 5.5a1 1 0 0 0 .5 1.867Z" fill="#39519D"/><path d="m33.447 29.366-3.464 2a1 1 0 1 0 1 1.732l3.464-2a1 1 0 0 0-1-1.732ZM60.5 38.366l-3.464 2a1 1 0 1 0 1 1.732l3.464-2a1 1 0 1 0-1-1.732ZM55.5 52.366l-3.464 2a1 1 0 1 0 1 1.732l3.464-2a1 1 0 1 0-1-1.732ZM60.5 46.366l-3.464 2a1 1 0 1 0 1 1.732l3.464-2a1 1 0 1 0-1-1.732ZM23.493 49.392a1 1 0 0 0 1.366.366l3.464-2a1 1 0 0 0-1-1.732l-3.464 2a1 1 0 0 0-.366 1.366Z" fill="#39519D"/><path d="m54.3 41.076-1.205-3 8.4-4.852a1 1 0 0 0 .366-1.367 9.011 9.011 0 0 0-12.294-3.294l-1.476.852-2-2.544a7.958 7.958 0 0 0-10.18-1.971 1 1 0 0 0-.366 1.366l3.155 5.466a1 1 0 0 0 1.733-1l-2.613-4.524a5.953 5.953 0 0 1 6.706 1.9l1.82 2.319-13.229 7.635a5.006 5.006 0 0 0-6.83-1.83 1 1 0 0 0-.366 1.366l2.5 4.33a7.668 7.668 0 0 0 6.657 3.865c.608 0 1.214-.071 1.806-.212a37.255 37.255 0 0 0 5.4-1.727A1 1 0 1 0 41.533 42a35.253 35.253 0 0 1-5.11 1.635 5.683 5.683 0 0 1-5.695-1.884l19.844-11.457a6.959 6.959 0 0 1 3.619-.935l-1.387.8a1 1 0 0 0 1 1.733l3.236-1.869a6.952 6.952 0 0 1 2.532 2L52.343 36.2l-1.075-2.68a1 1 0 1 0-1.856.745l3.033 7.556a5.954 5.954 0 0 1-1.711 6.755l-6.457-11.184a1.001 1.001 0 1 0-1.732 1l7 12.125a1 1 0 0 0 1.366.366 7.955 7.955 0 0 0 3.389-9.807Zm-22.915-2.014-1.3.75-.433.25-1.414-2.449a3 3 0 0 1 3.147 1.449Z" fill="#39519D"/></symbol><symbol id="sunrise" viewBox="0 0 64 64"><path d="M47 16a1 1 0 0 1-1-1v-3a1 1 0 0 1 2 0v3a1 1 0 0 1-1 1ZM47 51a1 1 0 0 1-1-1V28a1 1 0 0 1 2 0v22a1 1 0 0 1-1 1Z" fill="#EF5350"/><path d="M33 28a14 14 0 0 1 28 0H33Z" fill="#95D5B2"/><path d="M61 28H33a13.858 13.858 0 0 1 1.46-6.22A16.632 16.632 0 0 0 43 24c6.18 0 11.34-2.98 12.67-6.98A13.913 13.913 0 0 1 61 28Z" fill="#52B788"/><path d="M41 28c0-7.732 2.686-14 6-14s6 6.268 6 14H41Z" fill="#FCEA42"/><path d="M53 28H41a31.323 31.323 0 0 1 .26-4.08c.57.05 1.15.08 1.74.08a16.158 16.158 0 0 0 9.27-2.7c.498 2.198.743 4.446.73 6.7Z" fill="#FDC741"/><path d="m43.97 42.243-1.94-.486 1-4A1 1 0 0 1 44 37h10.857v2H44.781l-.811 3.243Z" fill="#0096C7"/><path d="m57 34-5 7H37l-5 11h5l3-7h12v6h4v-8l4-7-3-2Z" fill="#48CAE4"/><path d="m60 36-4 7v8h-4v-6H40l-3 7h-5l1.84-4.04a3.859 3.859 0 0 0 3.1-2.46 3.86 3.86 0 0 1 3.6-2.5h11.08a3.832 3.832 0 0 0 3.44-2.13l3.06-6.12L60 36Z" fill="#00B4D8"/><path d="M42.888 50.31a26.934 26.934 0 0 1-15.406-1.234l-2.035-.791a26.933 26.933 0 0 0-17.162-.795L3 49v12h58v-9l-5.936-1.484a26.936 26.936 0 0 0-12.176-.206Z" fill="#EFAD1B"/><path d="M47.27 50.31h-4.382a26.845 26.845 0 0 1-6.738.567 6.25 6.25 0 0 0-2.717.469l-.2.087a5.808 5.808 0 0 1-4.013.248c-.584-.18-1.162-.38-1.734-.6l-2.035-.791a26.934 26.934 0 0 0-17.166-.8L3 51v10h58v-9a68.26 68.26 0 0 0-13.73-1.69Z" fill="#D8950F"/><path d="m21 61 6.794-4.529a47.292 47.292 0 0 1 31.185-7.684L61 49v12H21Z" fill="#FDC741"/><path d="M52.113 49.706a12.178 12.178 0 0 1-3.808.973c-7.744.635-13.764 3.294-20.511 7.792L24 61h37V49l-2.021-.213a37.255 37.255 0 0 0-.712-.069 12.68 12.68 0 0 0-6.154.988Z" fill="#EFAD1B"/><path d="m22.085 54.011-9.849-1.736-.068-12.9a24 24 0 0 1 6.372-16.412l2.76-2.988a2 2 0 0 1 3.313.584l1.573 3.753a24 24 0 0 1 .373 17.6l-4.474 12.099Z" fill="#EF5350"/><path d="m26.56 41.92-4.48 12.09-9.84-1.74-.03-5.02a11.94 11.94 0 0 0 9.11-7.62l1-2.71a24.023 24.023 0 0 0-.3-17.44 2 2 0 0 1 2.59 1.08l1.58 3.75a24.018 24.018 0 0 1 .37 17.61Z" fill="#E53935"/><path d="m25.067 45.967-1.608 4.336-5.083-4.054-6.163 2.071-.028-4.625 7.059-2.37 5.823 4.642Z" fill="#52B788"/><path d="m25.07 45.97-1.61 4.33-5.08-4.05-6.17 2.07v-1.06a11.966 11.966 0 0 0 7.9-5.24l4.96 3.95Z" fill="#40916C"/><path d="m24.06 19.8-5.7 32.31-2.01-.14 5.74-32.52a2.032 2.032 0 0 1 1.97.35Z" fill="#ADE8F4"/><path d="m20.15 41.95-1.79 10.16-2.01-.14 1.27-7.18a11.854 11.854 0 0 0 2.53-2.84ZM24.06 19.8l-.72 4.07a22.507 22.507 0 0 0-1.28-4.27l.03-.15a2.032 2.032 0 0 1 1.97.35Z" fill="#48CAE4"/><path d="M42.888 55.31a26.934 26.934 0 0 1-15.406-1.234l-2.035-.791a26.933 26.933 0 0 0-17.162-.795L3 54v7h58v-4l-5.936-1.484a26.936 26.936 0 0 0-12.176-.206Z" fill="#FCEA42"/><path d="M61 57v4H3v-4l5.29-1.51a26.841 26.841 0 0 1 17.16.8l2.03.79a26.927 26.927 0 0 0 15.41 1.23c.44-.1.89-.18 1.34-.25a8.251 8.251 0 0 0 3.07-1.148 9.886 9.886 0 0 1 7.523-1.45l.236.058L61 57Z" fill="#FDC741"/><path d="M11 3a2.37 2.37 0 0 0 4 1.072A2.368 2.368 0 0 0 17.928 7 2.369 2.369 0 0 0 19 11a2.37 2.37 0 0 0-1.072 4A2.368 2.368 0 0 0 15 17.928 2.369 2.369 0 0 0 11 19a2.37 2.37 0 0 0-4-1.072A2.368 2.368 0 0 0 4.072 15 2.37 2.37 0 0 0 3 11a2.37 2.37 0 0 0 1.072-4A2.368 2.368 0 0 0 7 4.072 2.369 2.369 0 0 0 11 3Z" fill="#FCEA42"/><path d="M11 15.859a4.382 4.382 0 0 0-2.308-.654h-.12a4.392 4.392 0 0 0-1.781-1.776A4.35 4.35 0 0 0 6.14 11a4.35 4.35 0 0 0 .651-2.43 4.4 4.4 0 0 0 1.781-1.777h.12A4.382 4.382 0 0 0 11 6.141a4.382 4.382 0 0 0 2.308.654h.12a4.392 4.392 0 0 0 1.781 1.776c-.027.856.2 1.701.651 2.429a4.35 4.35 0 0 0-.651 2.43 4.4 4.4 0 0 0-1.781 1.777h-.12a4.382 4.382 0 0 0-2.308.652Z" fill="#FDC741"/><path d="M11 14a3 3 0 1 0 0-6 3 3 0 0 0 0 6Z" fill="#EF5350"/><path d="M25 16a.974.974 0 0 1-.244-.03l-4-1a1 1 0 0 1 .486-1.94l4 1A1 1 0 0 1 25 16ZM21 9a1 1 0 0 1-.242-1.97l4-1a1 1 0 1 1 .486 1.94l-4 1A.976.976 0 0 1 21 9ZM11 28a1 1 0 0 1-1-1v-5a1 1 0 0 1 2 0v5a1 1 0 0 1-1 1ZM4 26a1 1 0 0 1-.894-1.447l2-4a1 1 0 1 1 1.79.894l-2 4A1 1 0 0 1 4 26ZM18 26a1 1 0 0 1-.9-.553l-2-4a1 1 0 1 1 1.79-.894l2 4A1 1 0 0 1 18 26ZM24 22a.994.994 0 0 1-.514-.143l-5-3a1 1 0 0 1 1.03-1.714l5 3A1 1 0 0 1 24 22Z" fill="#FCEA42"/></symbol><symbol id="ancient" viewBox="0 0 512 512"><path d="M162.17 201.34h-28c0 8.94 6.16 16.18 13.76 16.18h28.44c7.6 0 13.76-7.24 13.76-16.18ZM176.39 401.52H148c-7.6 0-13.76 7.25-13.76 16.19h56c-.09-8.94-6.24-16.19-13.85-16.19Z" style="fill:#f4e7d7"/><path d="M185.93 352c-.51-20.35-2.75-63.68-11.83-134.45h-23.86c-9.08 70.77-11.32 114.1-11.83 134.45a89.29 89.29 0 0 0 6.53 36.72c3.71 8.8 7.14 12.83 7.14 12.83h20.18s3.43-4 7.14-12.83a89.29 89.29 0 0 0 6.53-36.72ZM71.8 201.34h-28c0 8.94 6.16 16.18 13.76 16.18H86c7.6 0 13.76-7.24 13.76-16.18ZM86 401.52H57.58c-7.6 0-13.76 7.25-13.76 16.19h56c-.04-8.94-6.2-16.19-13.82-16.19Z" style="fill:#f4e7d7"/><path d="M95.56 352c-.51-20.35-2.75-63.68-11.83-134.45H59.87C50.79 288.29 48.55 331.62 48 352a89.29 89.29 0 0 0 6.53 36.72c3.71 8.8 7.14 12.83 7.14 12.83h20.22s3.43-4 7.14-12.83A89.29 89.29 0 0 0 95.56 352ZM252.54 201.34h-28c0 8.94 6.16 16.18 13.76 16.18h28.44c7.6 0 13.76-7.24 13.76-16.18ZM266.76 401.52h-28.44c-7.6 0-13.76 7.25-13.76 16.19h56c-.04-8.94-6.2-16.19-13.8-16.19Z" style="fill:#f4e7d7"/><path d="M276.29 352c-.5-20.35-2.74-63.68-11.83-134.45h-23.85c-9.09 70.77-11.32 114.1-11.83 134.45a89.12 89.12 0 0 0 6.53 36.72c3.71 8.8 7.14 12.83 7.14 12.83h20.18s3.43-4 7.14-12.83a89.12 89.12 0 0 0 6.52-36.72Z" style="fill:#f4e7d7"/><path d="M342.91 201.34h-28c0 8.94 6.16 16.18 13.76 16.18h28.44c7.6 0 13.76-7.24 13.76-16.18ZM357.13 401.52h-28.44c-7.6 0-13.76 7.25-13.76 16.19h56c-.04-8.94-6.2-16.19-13.8-16.19Z" style="fill:#d6c2ab"/><path d="M366.66 352c-.5-20.35-2.74-63.68-11.83-134.45H331c-9.09 70.77-11.32 114.1-11.83 134.45a89 89 0 0 0 6.53 36.72c3.71 8.8 7.14 12.83 7.14 12.83H353s3.42-4 7.14-12.83a89.12 89.12 0 0 0 6.52-36.72ZM447.5 401.52h-28.44c-7.6 0-13.77 7.25-13.77 16.19h56c-.03-8.94-6.19-16.19-13.79-16.19Z" style="fill:#d6c2ab"/><path d="M409.52 352a89 89 0 0 0 6.53 36.72c3.71 8.8 7.13 12.83 7.13 12.83h20.19s3.42-4 7.14-12.83A89.12 89.12 0 0 0 457 352c-.27-11-1-28.59-3.12-53.54a6.34 6.34 0 0 0-6.32-5.8H419a6.33 6.33 0 0 0-6.31 5.8c-2.12 24.92-2.9 42.54-3.17 53.54Z" style="fill:#d6c2ab"/><path d="M25.55 176h340.87a15.06 15.06 0 0 1 15.06 15v10.31H25.55V176Z" style="fill:#f7d6b2"/><path d="M43.82 144.2V176h305.46l-12.71-5.7a22.87 22.87 0 0 1-13.46-19.68 6.72 6.72 0 0 0-6.71-6.38ZM48 125.58 66.5 105a44.74 44.74 0 0 1 12.35-9.65c11.21-6 33.17-17.51 46.44-23.91a8.81 8.81 0 0 1 12.12 5 25.25 25.25 0 0 0 20.27 16.48l16.95 2.36a10.12 10.12 0 0 1 8.6 9.44c.62 8.6 4.83 20.89 23.73 20.89 0 0 13.54 0 19.42-15.73a8 8 0 0 1 12.06-3.9l27.73 19.63Z" style="fill:#f4e7d7"/><path d="M366.42 176H252.54v25.38h128.94V191a15.06 15.06 0 0 0-15.06-15Z" style="fill:#e5b380"/><path d="M323.11 150.58a6.72 6.72 0 0 0-6.71-6.38h-63.86V176h96.74l-12.71-5.7a22.87 22.87 0 0 1-13.46-19.72Z" style="fill:#d6c2ab"/><path style="fill:#e5b380" d="M252.54 125.58h52.07v18.62h-52.07z"/><path d="M280.52 201.34h-28v216.37h28c0-8.94-6.16-16.19-13.76-16.19h-4.13s3.43-4 7.14-12.83a89.12 89.12 0 0 0 6.52-36.69c-.5-20.35-2.74-63.68-11.83-134.45h2.3c7.6-.03 13.76-7.27 13.76-16.21Z" style="fill:#d6c2ab"/><path d="M491.68 412.48h-25.83c-1.69-7.52-6.89-13.42-13.53-15.4.95-1.8 2-3.9 3-6.36a94.51 94.51 0 0 0 6.94-38.88c-.26-10.45-1-28.28-3.14-53.84a11.63 11.63 0 0 0-11.53-10.6H419a11.63 11.63 0 0 0-11.57 10.6c-2.12 25.57-2.88 43.39-3.14 53.84a94.45 94.45 0 0 0 6.94 38.88c1 2.46 2 4.56 3 6.36-6.64 2-11.84 7.88-13.53 15.4h-25.22c-1.69-7.52-6.88-13.42-13.53-15.4.95-1.8 2-3.9 3-6.36a94.45 94.45 0 0 0 6.94-38.88c-.47-19.19-2.59-61.26-11.18-129.49 7.24-1.57 13-7.79 14.77-15.78h11.23V191a20.31 20.31 0 0 0-20.29-20.29h-16l-11.68-5.25a17.51 17.51 0 0 1-10.38-15.17A12 12 0 0 0 316.4 139h-6.56v-18.65h-42l-26.38-18.67a13 13 0 0 0-11.38-1.82 13.33 13.33 0 0 0-8.6 8.16C217 120 207.31 120.34 207 120.35c-11.67 0-17.73-5.25-18.52-16a15.28 15.28 0 0 0-13.09-14.25l-16.99-2.4a19.91 19.91 0 0 1-16.06-13A14 14 0 0 0 123 66.72c-13.3 6.42-34.91 17.79-46.61 24a50 50 0 0 0-13.78 10.78l-16.93 18.85H20.32v29.08h18.27v21.3H20.32v35.84h18.91c1.79 8 7.53 14.21 14.77 15.78-8.59 68.23-10.71 110.3-11.19 129.49a94.81 94.81 0 0 0 6.94 38.88c1 2.47 2.06 4.56 3 6.36-6.64 2-11.83 7.88-13.52 15.4H20.32v34.2h471.36Zm-73.82-113.61a1.1 1.1 0 0 1 1.1-1h28.63a1.1 1.1 0 0 1 1.1 1c2.11 25.32 2.86 42.93 3.11 53.24a84.19 84.19 0 0 1-6.11 34.56 62.72 62.72 0 0 1-5 9.63h-14.82a61.64 61.64 0 0 1-5-9.63 84.19 84.19 0 0 1-6.11-34.56c.24-10.32.99-27.92 3.1-53.24Zm1.19 107.88h28.45c3.23 0 6 2.32 7.49 5.73h-43.43c1.44-3.41 4.26-5.73 7.49-5.73Zm-54.43 5.73h-43.43c1.45-3.41 4.27-5.73 7.5-5.73h28.44c3.23 0 6.04 2.32 7.49 5.73Zm-79.51 0c-1.69-7.52-6.88-13.42-13.52-15.4.94-1.8 2-3.9 3-6.36a94.64 94.64 0 0 0 6.93-38.88c-.47-19.16-2.58-61.17-11.18-129.49 7.24-1.57 13-7.79 14.77-15.78h25.23c1.79 8 7.53 14.21 14.76 15.78-8.6 68.32-10.71 110.33-11.18 129.49a94.81 94.81 0 0 0 6.94 38.88c1 2.46 2.05 4.56 3 6.36-6.64 2-11.83 7.88-13.52 15.4Zm-90.37 0c-1.69-7.52-6.88-13.42-13.52-15.4.94-1.8 2-3.9 3-6.36a94.62 94.62 0 0 0 6.95-38.88c-.48-19.18-2.6-61.22-11.19-129.49 7.24-1.57 13-7.79 14.77-15.78H220c1.79 8 7.53 14.21 14.76 15.78-8.59 68.23-10.7 110.3-11.18 129.49a94.78 94.78 0 0 0 6.94 38.88c1 2.46 2 4.56 3 6.36-6.64 2-11.83 7.88-13.52 15.4Zm-90.37 0c-1.69-7.52-6.88-13.42-13.52-15.4.94-1.8 2-3.9 3-6.36a94.81 94.81 0 0 0 6.94-38.88c-.48-19.16-2.59-61.17-11.19-129.49 7.24-1.57 13-7.79 14.77-15.78h25.23c1.8 8 7.53 14.21 14.77 15.78-8.6 68.27-10.71 110.31-11.19 129.49a94.84 94.84 0 0 0 6.94 38.88c1 2.46 2 4.56 3 6.36-6.64 2-11.83 7.88-13.52 15.4Zm70.21-25.82a62.72 62.72 0 0 1-5 9.63h-14.82a60.94 60.94 0 0 1-5-9.63 84.19 84.19 0 0 1-6.12-34.56c.47-19.07 2.57-61 11.21-129.35h14.64c8.64 68.39 10.73 110.25 11.21 129.35a84.19 84.19 0 0 1-6.12 34.56Zm1.81-174.37H148c-3.23 0-6-2.31-7.5-5.72h43.43c-1.49 3.43-4.31 5.72-7.54 5.72ZM148 406.75h28.44c3.23 0 6.05 2.32 7.49 5.73h-43.48c1.45-3.41 4.27-5.73 7.55-5.73Zm117-20.09a62.72 62.72 0 0 1-5 9.63h-14.87a60.94 60.94 0 0 1-5-9.63A84.19 84.19 0 0 1 234 352.1c.48-19.09 2.57-61 11.21-129.35h14.64c8.65 68.45 10.73 110.3 11.2 129.35a84.19 84.19 0 0 1-6.05 34.56Zm1.81-174.37h-28.49c-3.23 0-6-2.31-7.5-5.72h43.43c-1.45 3.43-4.25 5.72-7.49 5.72Zm-28.49 194.46h28.44c3.23 0 6 2.32 7.49 5.73h-43.43c1.45-3.41 4.27-5.73 7.5-5.73Zm123.11-54.65a84.19 84.19 0 0 1-6.11 34.56 62.72 62.72 0 0 1-5 9.63H335.5a61.64 61.64 0 0 1-5-9.63 84.35 84.35 0 0 1-6.11-34.56c.47-19.05 2.56-60.9 11.21-129.35h14.64C358.86 291.11 361 333 361.43 352.1Zm-4.3-139.81h-28.44c-3.23 0-6.05-2.31-7.5-5.72h43.43c-1.45 3.43-4.26 5.72-7.49 5.72Zm-40.73-62.86a1.49 1.49 0 0 1 1.49 1.42 27.94 27.94 0 0 0 9.75 19.88H217v-21.3h99.4Zm-191.67 0h81.85v21.3h-81.85Zm106.55-37.75a2.93 2.93 0 0 1 1.89-1.82 2.46 2.46 0 0 1 2.25.36l14.31 10.13h-23.17a33.34 33.34 0 0 0 4.72-8.67Zm-160.89-3.19A39.29 39.29 0 0 1 81.3 100c9.37-5 32.62-17.24 46.26-23.82a3.59 3.59 0 0 1 4.93 2A30.36 30.36 0 0 0 157 98.07l16.95 2.36a4.89 4.89 0 0 1 4.1 4.64 29.42 29.42 0 0 0 5.11 15.28H59.74ZM30.78 139v-8.16h268.6V139H30.78Zm18.27 10.46h65.22v21.3H49.05Zm-10.46 46.65h-7.81v-14.92h335.64a9.84 9.84 0 0 1 9.83 9.83v5.09H38.59Zm11.5 10.46h43.42c-1.44 3.41-4.26 5.72-7.49 5.72H57.58c-3.23 0-6.05-2.29-7.49-5.72Zm14.39 16.18h14.64c8.65 68.45 10.74 110.3 11.21 129.35a84.11 84.11 0 0 1-6.12 34.55 60.7 60.7 0 0 1-5 9.64H64.39a60.94 60.94 0 0 1-5-9.63 84.19 84.19 0 0 1-6.12-34.56c.48-19.1 2.57-60.99 11.21-129.35Zm-6.9 184H86c3.23 0 6 2.32 7.49 5.73h-43.4c1.44-3.41 4.26-5.73 7.49-5.73Zm423.64 29.47H30.78v-13.28h450.44Z" style="fill:#3d3d3d"/></symbol></defs></svg>