<svg xmlns="http://www.w3.org/2000/svg" aria-hidden="true" style="width:0;height:0;position:absolute;overflow:hidden"><defs><symbol id="icon-search" viewBox="0 0 32 32"><path fill="none" stroke="#fff" stroke-linecap="round" stroke-linejoin="round" stroke-width="2.67" d="M14.67 25.33a10.67 10.67 0 1 0 0-21.33 10.67 10.67 0 0 0 0 21.33zM28 28l-5.8-5.8" style="stroke:var(--color1,#fff)"/></symbol><symbol id="plane-bags" viewBox="0 0 64 64"><path d="M17 6v15h4V8h14v13h4V6a2 2 0 0 0-2-2H19a2 2 0 0 0-2 2Z" fill="#AAE1F9"/><path d="M37 15V4H19a2 2 0 0 0-2 2v15h4v-3a2 2 0 0 1-2-2v-6a2 2 0 0 1 2-2h14v13h4v-3.184A2.99 2.99 0 0 1 37 15Z" fill="#57B7EB"/><path d="M40 21H16a4 4 0 0 0-4 4v28a4 4 0 0 0 4 4h24a4 4 0 0 0 4-4V25a4 4 0 0 0-4-4Z" fill="#F9E109"/><path d="M16 57h4v2a2 2 0 0 1-4 0v-2ZM36 57h4v2a2 2 0 0 1-4 0v-2Z" fill="#57B7EB"/><path d="M33 3H23a2 2 0 0 0-2 2v2a2 2 0 0 0 2 2h10a2 2 0 0 0 2-2V5a2 2 0 0 0-2-2Z" fill="#F9E109"/><path d="M23 3a2 2 0 0 0-2 2v2a2 2 0 0 0 2 2h10a2 2 0 0 0 2-2h-8a4 4 0 0 1-4-4ZM37 51a18 18 0 0 1-18-18V21h-3a4 4 0 0 0-4 4v28a4 4 0 0 0 4 4h24a4 4 0 0 0 4-4v-2h-7Z" fill="#FCBC04"/><path d="M38 60a2 2 0 0 1 2-2v-1h-4v2a2 2 0 0 0 2 2v-1ZM18 60a2 2 0 0 1 2-2v-1h-4v2a2 2 0 0 0 2 2v-1Z" fill="#4891D3"/><path d="M21 27H3v24h18V27Z" fill="#C4F236"/><path d="M19 46A12 12 0 0 1 7 34v-7H3v24h18v-5h-2Z" fill="#A1D51C"/><path d="m36.412 25.768 7 12.124 6.928-4-5.028-6.4a6.916 6.916 0 0 0-8.9-1.724Z" fill="#57B7EB"/><path d="M46.735 29.3a6 6 0 0 1-7.323-2.6l-.981-1.7c-.71.149-1.39.409-2.019.77l7 12.124 6.928-4-3.605-4.594Z" fill="#4891D3"/><path d="m50.072 29.428-17.321 10-.5-.866a4 4 0 0 0-5.464-1.462l2.5 4.33a6.72 6.72 0 0 0 7.366 3.18 37.058 37.058 0 0 0 10.006-3.972L61 32.356a8 8 0 0 0-10.928-2.928Z" fill="#57B7EB"/><path d="m58.823 29.923-8.164 4.713a37.058 37.058 0 0 1-10.006 3.972 6.711 6.711 0 0 1-5.061-.82l-2.841 1.64-.5-.866a4 4 0 0 0-5.464-1.462l2.5 4.33a6.72 6.72 0 0 0 7.366 3.18 37.058 37.058 0 0 0 10.006-3.972L61 32.356a7.974 7.974 0 0 0-2.177-2.433Z" fill="#4891D3"/><path d="m50.412 50.017-7-12.125 6.928-4 3.033 7.556a6.92 6.92 0 0 1-2.961 8.569Z" fill="#AAE1F9"/><path d="M53.8 43.091a3.366 3.366 0 0 1-2.3.909 3.3 3.3 0 0 1-2.626-1.3l-2.22-2.908a1.888 1.888 0 0 0-2.436-.493l6.188 10.717a6.916 6.916 0 0 0 3.394-6.925Z" fill="#57B7EB"/><path d="M44 45.021a1 1 0 0 0-1 1v3.633l-2.964 1.712a1 1 0 1 0 1 1.732L43 51.964V53a3 3 0 0 1-3 3H16a2.967 2.967 0 0 1-2.581-1.5 1 1 0 0 0-1.729 1A5.03 5.03 0 0 0 15 57.885V59a3 3 0 1 0 6 0v-1h14v1a3 3 0 0 0 6 0v-1.1a5.01 5.01 0 0 0 4-4.9v-6.979a1 1 0 0 0-1-1ZM19 59a1 1 0 0 1-2 0v-1h2v1Zm20 0a1 1 0 0 1-2 0v-1h2v1ZM18 39a6 6 0 1 0-12 0 6 6 0 0 0 12 0Zm-5.048-1h-1.9A5.118 5.118 0 0 1 12 35.025c.62.868.952 1.908.952 2.975Zm0 2A5.118 5.118 0 0 1 12 42.975 5.118 5.118 0 0 1 11.048 40h1.904Zm1.69 1.98c.164-.65.271-1.312.319-1.98h.9a3.985 3.985 0 0 1-1.219 1.98ZM15.858 38h-.9a11.414 11.414 0 0 0-.319-1.98A3.985 3.985 0 0 1 15.858 38Zm-6.5-1.98c-.164.65-.271 1.312-.319 1.98h-.9c.2-.767.625-1.456 1.219-1.98ZM8.142 40h.9c.048.668.155 1.33.319 1.98A3.985 3.985 0 0 1 8.142 40Z" fill="#39519D"/><path d="M22 51V27a1 1 0 0 0-1-1h-8v-1a3 3 0 0 1 3-3h24a1 1 0 0 0 0-2V6a3 3 0 0 0-3-3h-1.78A2.985 2.985 0 0 0 33 2H23a2.985 2.985 0 0 0-2.22 1H19a3 3 0 0 0-3 3v14a5.006 5.006 0 0 0-5 5v1H3a1 1 0 0 0-1 1v16a1 1 0 1 0 2 0V28h16v22H4v-3a1 1 0 1 0-2 0v4a1 1 0 0 0 1 1h18a1 1 0 0 0 1-1ZM37 5a1 1 0 0 1 1 1v14h-2V5h1ZM23 4h10a1 1 0 0 1 1 1v2a1 1 0 0 1-1 1H23a1 1 0 0 1-1-1V5a1 1 0 0 1 1-1Zm-5 2a1 1 0 0 1 1-1h1v2a3 3 0 0 0 3 3h10c.341-.003.68-.066 1-.184V20H22v-8a1 1 0 0 0-2 0v8h-2V6ZM31.056 53.955a1 1 0 0 0 .5-.134l9.526-5.5a1 1 0 0 0-1-1.733l-9.526 5.5a1 1 0 0 0 .5 1.867Z" fill="#39519D"/><path d="m33.447 29.366-3.464 2a1 1 0 1 0 1 1.732l3.464-2a1 1 0 0 0-1-1.732ZM60.5 38.366l-3.464 2a1 1 0 1 0 1 1.732l3.464-2a1 1 0 1 0-1-1.732ZM55.5 52.366l-3.464 2a1 1 0 1 0 1 1.732l3.464-2a1 1 0 1 0-1-1.732ZM60.5 46.366l-3.464 2a1 1 0 1 0 1 1.732l3.464-2a1 1 0 1 0-1-1.732ZM23.493 49.392a1 1 0 0 0 1.366.366l3.464-2a1 1 0 0 0-1-1.732l-3.464 2a1 1 0 0 0-.366 1.366Z" fill="#39519D"/><path d="m54.3 41.076-1.205-3 8.4-4.852a1 1 0 0 0 .366-1.367 9.011 9.011 0 0 0-12.294-3.294l-1.476.852-2-2.544a7.958 7.958 0 0 0-10.18-1.971 1 1 0 0 0-.366 1.366l3.155 5.466a1 1 0 0 0 1.733-1l-2.613-4.524a5.953 5.953 0 0 1 6.706 1.9l1.82 2.319-13.229 7.635a5.006 5.006 0 0 0-6.83-1.83 1 1 0 0 0-.366 1.366l2.5 4.33a7.668 7.668 0 0 0 6.657 3.865c.608 0 1.214-.071 1.806-.212a37.255 37.255 0 0 0 5.4-1.727A1 1 0 1 0 41.533 42a35.253 35.253 0 0 1-5.11 1.635 5.683 5.683 0 0 1-5.695-1.884l19.844-11.457a6.959 6.959 0 0 1 3.619-.935l-1.387.8a1 1 0 0 0 1 1.733l3.236-1.869a6.952 6.952 0 0 1 2.532 2L52.343 36.2l-1.075-2.68a1 1 0 1 0-1.856.745l3.033 7.556a5.954 5.954 0 0 1-1.711 6.755l-6.457-11.184a1.001 1.001 0 1 0-1.732 1l7 12.125a1 1 0 0 0 1.366.366 7.955 7.955 0 0 0 3.389-9.807Zm-22.915-2.014-1.3.75-.433.25-1.414-2.449a3 3 0 0 1 3.147 1.449Z" fill="#39519D"/></symbol></defs></svg>