<svg width="800" height="800" viewBox="0 0 24 24" fill="none" xmlns="http://www.w3.org/2000/svg"><path d="M9.864 8.94a.816.816 0 1 0 0-1.632.816.816 0 0 0 0 1.632Z" fill="url('#paint0_linear')"/><path d="M11.52 4.434c.678-1.86 3.042-2.694 3.54-2.628 0 0-.192.27-.516.63-.498.552-.33 1.056-1.308 2.142-.582.642-1.716-.144-1.716-.144Z" fill="url('#paint1_linear')"/><path d="M14.778 1.824c-.354.21-.606.45-.708.666 0 0-.564.174-.636.216l.438-.036c.15-.012-.258.54-.258.54s-.576.168-.81.324c0 0 .366-.108.51-.096.144.012-.24.606-.618.54-.336-.06-.66-.192-.876-.162a2.23 2.23 0 0 0-.162.288c.024.12.078.24.078.24l1.206.288.336-.102c.93-1.05.78-1.548 1.266-2.094.324-.36.516-.63.516-.63a.807.807 0 0 0-.282.018Z" fill="url('#paint2_linear')"/><path d="M12.888 4.128c-.312.114-.564-.084-1.134-.204-.096.162-.174.33-.24.51 0 0 1.134.786 1.716.138.978-1.086.816-1.59 1.308-2.142.324-.36.516-.63.516-.63-1.17.408-1.362 2.028-2.166 2.328Z" fill="#407817"/><path d="M11.688 4.212c-.444-1.218-2.706-2.028-3.45-2.142-.234-.03-.15.084.156.21s1.416.984 1.47 1.752c.054.768 1.824.18 1.824.18Z" fill="url('#paint3_linear')"/><path d="M8.394 2.28c.294.126 1.362.942 1.464 1.698l1.206.288s.42-.09.54-.246a2.03 2.03 0 0 0-.21-.312c-.486-.246-1.182-.21-1.254-.222-.078-.012-.33-.336-.276-.342.138-.03.516.054.516.054-.132-.096-.666-.132-.666-.132-.192-.264-.408-.42-.282-.408.126.024.228-.018.228-.018s-.378-.042-.456-.078c-.084-.036-.51-.348-.96-.492-.24-.03-.156.084.15.21Z" fill="url('#paint4_linear')"/><path d="M11.688 4.212a1.557 1.557 0 0 0-.15-.3c-.798-.432-1.386-.204-1.59-.468-.204-.264-.78-.984-1.656-1.362-.018-.006-.036-.006-.048-.006-.24-.036-.156.078.15.204s1.416.984 1.47 1.752c.06.774 1.824.18 1.824.18Z" fill="#407817"/><path d="M14.898 6.816c1.278-.228 1.824-.738 2.628-1.422.804-.684 1.872-.966 2.49-.774 0 0-.786-1.35-3.888-1.314-3.102.036-4.098 2.454-4.098 2.454l2.868 1.056Z" fill="url('#paint5_linear')"/><path d="M16.128 3.312a5.26 5.26 0 0 0-1.206.15c-.768.318-1.386.636-1.788.894-.21.174-.384.354-.528.522.06.078.486.198 1.056-.216 2.238-1.62 5.808-.534 4.44-1.146-.522-.132-1.17-.216-1.974-.204Z" fill="url('#paint6_linear')"/><path d="M18.372 4.266c-.522.066-1.5-.228-1.92-.258 0 0 .912.348 1.008.546 0 0 .072.09-.162.132-.234.048-.654.396-.654.396s-1.194-.372-1.794-.294c0 0 1.158.198 1.434.498.282.3-1.134.438-1.134.438l.78.78c.618-.27 1.044-.654 1.59-1.116.804-.684 1.872-.966 2.49-.774-.228-.282-1.11-.414-1.638-.348Z" fill="url('#paint7_linear')"/><path d="M17.07 5.1a3.733 3.733 0 0 1-1.41.888c-.99-.828-1.908-1.44-2.58-1.584-.168 0-.108.096-.162.144.78.348 1.848 1.056 2.79 2.058.744-.27 1.206-.69 1.818-1.206.804-.684 1.872-.966 2.49-.774-.738-.402-2.28-.192-2.946.474Z" fill="#407817"/><path d="m11.394 4.488.096-.372s-.39-.174-1.008-.312c-.366-.132-.858-.24-1.518-.282-3.072-.21-4.806 2.61-4.962 2.838-.156.228-.084.33-.084.33l.744-.378c1.56-.57 3.09.144 3.09.144l1.62-.57 2.094-.696c0-.006.126-.33-.072-.702Z" fill="url('#paint8_linear')"/><path d="M4.662 6.312c1.56-.57 3.09.144 3.09.144l1.62-.57 2.094-.696s.126-.33-.072-.696l.096-.372s-.288-.132-.762-.252c-.45.228-1.08.384-1.908.21-1.134-.252-2.952.72-4.026 1.26-.468.504-.738.936-.792 1.02-.156.228-.084.33-.084.33l.744-.378Z" fill="url('#paint9_linear')"/><path d="M12.048 4.302c1.17-.048 6.54 3.258 5.652 8.25 0 0-.42-1.098-1.806-1.686-1.026-.438-2.262-1.14-3.054-3.174-.894-2.292-.792-3.39-.792-3.39Z" fill="url('#paint10_linear')"/><path d="M16.86 8.676c.654 1.008.558 2.382-.258 1.26-.708-.966-2.958-2.472-2.436-4.668a8.743 8.743 0 0 0-1.002-.606l-1.104.042c.042.504.198 1.494.786 2.988.792 2.034 2.028 2.736 3.054 3.174 1.386.588 1.806 1.686 1.806 1.686.336-1.878-.216-3.516-1.098-4.83-.048.24-.006.552.252.954Z" fill="url('#paint11_linear')"/><path d="M17.7 12.552c.018-.108.036-.222.048-.33-.084-1.182-.948-1.194-1.332-1.584-.384-.384-.474-1.578-.474-1.578-.174.6.078 1.38.078 1.38s-.738-.09-1.014-.78c-.282-.69-.084-2.226-.084-2.226-.348.474-.198 2.256-.198 2.256-.702-.804-.804-1.86-.666-2.718.102-.636.186-1.26-.078-1.836a8.546 8.546 0 0 0-.474-.294l-.294 1.464-.084 2.034c.786 1.536 1.854 2.136 2.76 2.52 1.392.594 1.812 1.692 1.812 1.692Z" fill="url('#paint12_linear')"/><path d="M11.046 21.948c1.614-5.82 1.002-9.978.816-12.69l1.122-1.986s2.124 7.224.888 14.628c0 0-.558.3-1.218.3-.378 0-.93-.066-1.608-.252Z" fill="url('#paint13_linear')"/><path d="M12.468 11.616c.306 2.034-.852 9.486-.966 9.93-.108.444.414.108.846-.42s.054-1.122.24-2.874.504-6.264.216-6.966c-.288-.696-.612-1.512-.336.33Z" fill="url('#paint14_linear')"/><path d="m12.984 7.272-1.044 3c.054.672.114 1.416.15 2.232 1.992-1.734 1.356-.456 1.266 2.304-.042 1.338-.432 6.09-.084 7.308.312-.06.594-.216.6-.216.006 0 0 0 0 0 1.236-7.404-.888-14.628-.888-14.628Z" fill="url('#paint15_linear')"/><path d="M14.13 13.968c-.012-.18-.03-.354-.048-.534-.498.606-1.23 1.224-1.962 1.23 0 .078-.006.162-.006.24.336.036.99-.072 2.016-.936Z" fill="url('#paint16_linear')"/><path d="M12.108 12.834c.006.084.006.174.006.258.402-.066 1.17-.312 1.776-1.266a16.247 16.247 0 0 0-.084-.57c-.198.588-.978 1.278-1.698 1.578Z" fill="url('#paint17_linear')"/><path d="M14.226 15.552c-.72.594-1.248.816-2.202.996l-.018.198a4.237 4.237 0 0 0 2.238-.72c-.006-.162-.006-.318-.018-.474Z" fill="url('#paint18_linear')"/><path d="m14.064 20.544.054-.51c-.672.408-1.914.744-2.784.804l-.072.294c1.2.042 2.394-.414 2.802-.588Z" fill="url('#paint19_linear')"/><path d="m14.238 18.204.018-.612c0 .006-.006.006-.006.006-.42.474-1.32 1.224-2.496 1.164a3.191 3.191 0 0 1-.042.234c1.08.216 2.178-.528 2.526-.792Z" fill="url('#paint20_linear')"/><path d="M12.018 11.244c.006.072.012.138.012.21a2.593 2.593 0 0 0 1.596-1.29l-.072-.402c-.258.51-.696 1.11-1.536 1.482Z" fill="url('#paint21_linear')"/><path d="M5.832 14.28c.726-1.752 1.938-2.43 2.712-3.834.624-1.14.984-2.568 1.446-3.27.462-.702.138-1.824.138-1.824S5.664 6.498 5.01 9.582c-.654 3.084.822 4.698.822 4.698Z" fill="#76AB50"/><path d="M5.832 14.28c.726-1.752 1.938-2.43 2.712-3.834.624-1.14.984-2.568 1.446-3.27.462-.702.138-1.824.138-1.824S5.664 6.498 5.01 9.582c-.654 3.084.822 4.698.822 4.698Z" fill="url('#paint22_linear')"/><path d="M10.134 5.358s-.378.096-.936.312c.048.774-.486 1.488-.696 1.656-.234.192-1.764 1.5-2.226 3.252-.462 1.752-.786 2.064-.996.858C5.112 10.47 5.244 9 6.666 7.092c-.774.63-1.428 1.452-1.65 2.49-.654 3.09.816 4.698.816 4.698.726-1.752 1.938-2.43 2.712-3.834.624-1.14.984-2.568 1.446-3.27.462-.702.144-1.818.144-1.818Z" fill="url('#paint23_linear')"/><path d="M6.372 10.56c.258.102.36.942.54 1.206.06.09 1.05-1.206 1.05-1.206S7.68 9.426 7.2 8.994c0 0 .558.21.852.852.294.642.6-1.014.63-1.302.03-.288-.408-1.062-.558-1.212 0 0 .57.666.828.504.258-.162.558-.504.492-1.014-.066-.51.222-1.158.222-1.158l-.012.924-.504 2.244-1.098 2.256L6 13.584l-.3.726s-.03-1.17.93-2.04l.084-.462-.342-1.248Z" fill="url('#paint24_linear')"/><path d="M10.212 6.576c.096-.606-.084-1.224-.084-1.224s-.15.036-.402.12c-.072.024-.21.774-.144 1.32a.867.867 0 0 1-.126.558C8.85 8.394 8.94 9.63 7.89 10.92c-.978 1.2-1.818 2.1-2.19 3.186.084.114.138.174.138.174.726-1.752 1.938-2.43 2.712-3.834.624-1.14.984-2.568 1.446-3.27.114-.174.18-.372.216-.57v-.03c0 .006 0 .006 0 0ZM17.298 11.442c-.648-.72-2.244-.966-2.82-1.752-.576-.786-.912-1.158-.63-2.334.204-.852.174-1.728-.036-2.328-.408-.384-.846-.45-1.05-.552.396.33 1.044 1.086.918 1.938a9.37 9.37 0 0 1-.51 2.004c.78 1.482 1.83 2.064 2.724 2.448 1.386.588 1.806 1.686 1.806 1.686.018-.108.036-.222.048-.33-.054-.21-.18-.48-.45-.78Z" fill="#407817"/><path d="M10.974 12.06c.726-.96-1.146-2.712-1.146-5.022 0-2.586 1.17-3.18 1.656-2.922 0 0 2.196-.048 2.232 2.262.03 1.632-.762 5.1-2.742 5.682Z" fill="url('#paint25_linear')"/><path d="M12.666 4.422c.384.534.696 1.362.654 2.622-.108 3.066-1.89 4.014-1.488 2.61.354-1.242-1.494-3.246-1.56-4.836-.252.468-.444 1.182-.444 2.214 0 2.316 1.872 4.068 1.146 5.022 1.98-.582 2.772-4.056 2.748-5.688-.018-1.092-.528-1.656-1.056-1.944Z" fill="url('#paint26_linear')"/><path d="M6.942 5.946c.582-.93 1.218-1.38 1.506-1.452 0 0-1.074.762-1.11 1.38" fill="url('#paint27_linear')"/><path d="M8.916 2.508c.354-.012.702.12.744.132.042.012.042.054-.144 0s-.45-.03-.45-.03M9.528 3.03c.774.03.966.228.78.156-.18-.066-.51-.114-.66-.03-.15.084-.12-.126-.12-.126ZM14.346 2.388c-.444.048-.852.27-.9.294-.048.024-.042.072.18-.024s.558-.114.558-.114M13.812 3.126c-.948.228-1.134.516-.93.384.204-.126.6-.27.81-.198.21.072.12-.186.12-.186ZM18.288 4.518c-1.578-.696-2.136-.492-1.71-.45.42.042 1.134.27 1.35.588.216.324.36-.138.36-.138ZM17.214 5.19c-2.028-.72-2.73-.372-2.19-.378.534 0 1.446.21 1.734.612.294.408.456-.234.456-.234Z" fill="#407817"/><path d="M8.136 10.931c-.126-1.565-1.278-2.31-.894-1.853.348.408.612 1.218.684 2.274.072-.097.15-.187.222-.289 0-.042-.006-.084-.012-.132Z" fill="url('#paint28_linear')"/><path d="M9.09 9.264c-.144-.45-.402-1.182-.714-1.626-.378-.528-.384-.408-.024.234.3.528.444 1.254.528 1.896.072-.168.144-.336.21-.504Z" fill="url('#paint29_linear')"/><path d="M6.78 12.708c-.012-.936-.246-2.238-.408-2.148 0 .108.018.222.048.324.24.786.132 1.386.156 2.094.066-.096.132-.186.204-.27Z" fill="url('#paint30_linear')"/><path d="M15.06 10.188c-.432-.486-.402-1.89-.174-2.538.216-.624-.462.006-.408 2.388.204.168.414.306.624.426.084-.03.102-.114-.042-.276ZM16.344 10.794c-.378-.288-.468-1.14-.396-1.638.072-.474-.33.066.024 1.746.132.06.258.126.378.198.114-.072.174-.168-.006-.306Z" fill="#407817"/><path d="M8.082 6.174c-.144.072-.288.156-.432.24-3.6 3.366-1.92 8.046-1.92 8.046l.108-.174c-1.146-3.546.708-6.708 2.244-8.112Z" fill="url('#paint31_linear')"/><path d="M11.94 4.518a9 9 0 0 0-.288-.396c-.102-.006-.162-.006-.162-.006-.024-.012-.048-.018-.072-.03a.516.516 0 0 0-.336.03c.858.606 1.44 2.544 1.236 4.284-.006.006.69-2.304-.378-3.882Z" fill="url('#paint32_linear')"/><path d="M11.724 4.104c-.138-.006-.222-.006-.222-.006a.805.805 0 0 0-.18-.03c.852.474 1.302 2.37 1.056 3.966-.006.024-.06.372-.06.372.048.006.204-.282.222-.408.222-1.794-.27-3.198-.816-3.894Z" fill="url('#paint33_linear')"/><path d="M6.78 4.554s-.906.642-1.032 1.206c.456-.078.9-.09 1.338-.054l.024-.012s-.672.006-1.026-.132c-.198-.084.696-1.008.696-1.008Z" fill="url('#paint34_linear')"/><path d="M8.448 4.488s-.918.654-1.086 1.236a2.344 2.344 0 0 0 1.572-.396 259.64 259.64 0 0 1 2.028-1.398c-.876.252-2.094 1.158-2.478 1.452-.384.294-.816.264-.792.042.036-.282.756-.936.756-.936Z" fill="url('#paint35_linear')"/><path d="M6 4.32c-1.218.792-1.902 1.902-1.998 2.04-.156.228-.084.33-.084.33l.744-.378c.318-.114.63-.18.936-.204.138-.312.246-.63.15-.642-.186-.024-1.326.762-1.128.384.144-.264.726-1.002 1.38-1.53Z" fill="url('#paint36_linear')"/><path d="M7.65 6.414c1.056-.624 2.022-.714 2.328-.798.342-1.116 1.068-1.656 1.446-1.524a3.707 3.707 0 0 0-.456-.156c-.93.636-1.59 1.092-2.028 1.398a2.351 2.351 0 0 1-1.596.396c-.828-.09-1.638-.048-2.556.294-.852.312-.87.666-.87.666l.54-.276c.174-.09.36-.162.552-.21 1.2-.3 2.31.078 2.64.21Z" fill="#407817"/><path d="M5.364 5.922c.546-.876 1.14-1.296 1.41-1.368 0 0-1.008.72-1.044 1.296" fill="url('#paint37_linear')"/><path d="M10.8 9.432c-.396-.396-.606-1.374-.606-1.374l.18-.426s-.252.108-.336-.294c-.408-1.95.618-2.58 1.218-3.204l-.036-.078c-.552.03-1.386.792-1.386 2.976 0 2.316 1.872 4.068 1.146 5.022.768-.576.216-2.226-.18-2.622Z" fill="url('#paint38_linear')"/><path d="M10.992 6.354c-.084.36-.342 1.056-.954 2.076.024.084.048.168.078.246 0 0 .228-.27.36-.6.198-.492.444-1.26.516-1.722Z" fill="url('#paint39_linear')"/><path d="M10.038 8.43c-.018-.06-.03-.12-.048-.18.018.06.03.12.048.18Z" fill="#4B8C1C"/><path d="M9.924 7.95a6.2 6.2 0 0 0 .114.48c1.194-1.974 1.032-2.742.9-2.184-.132.552-.558 1.446-1.014 1.704Z" fill="url('#paint40_linear')"/><path d="m10.836 9.54-.282.252c.054.12.108.234.156.348.642-.72.78-1.998.834-2.364l-.192.726-.516 1.038Z" fill="url('#paint41_linear')"/><path d="M11.448 7.866c-.132.54-.546 1.422-.996 1.692.054.132.114.252.168.378 1.122-1.89.96-2.622.828-2.07Z" fill="url('#paint42_linear')"/><path d="M12.066 3.48c.738.024 1.2-.732 1.896-1.23.132-.09.234-.186.318-.282-.666.234-1.578.732-2.214 1.512Z" fill="url('#paint43_linear')"/><defs><linearGradient id="paint0_linear" x1="10.313" y1="7.131" x2="8.98" y2="10.099" gradientUnits="userSpaceOnUse"><stop stop-color="#3C2200"/><stop offset="1" stop-color="#643800"/></linearGradient><linearGradient id="paint1_linear" x1="13.518" y1="4.365" x2="13.12" y2="2.215" gradientUnits="userSpaceOnUse"><stop stop-color="#4B8C1C"/><stop offset="1" stop-color="#76AB50"/></linearGradient><linearGradient id="paint2_linear" x1="14.463" y1="4.411" x2="12.36" y2="1.765" gradientUnits="userSpaceOnUse"><stop stop-color="#4B8C1C"/><stop offset="1" stop-color="#4B8C1C" stop-opacity="0"/></linearGradient><linearGradient id="paint3_linear" x1="10.271" y1="4.068" x2="9.64" y2="2.526" gradientUnits="userSpaceOnUse"><stop stop-color="#4B8C1C"/><stop offset="1" stop-color="#76AB50"/></linearGradient><linearGradient id="paint4_linear" x1="9.756" y1="3.608" x2="9.975" y2="2.364" gradientUnits="userSpaceOnUse"><stop stop-color="#4B8C1C"/><stop offset="1" stop-color="#4B8C1C" stop-opacity="0"/></linearGradient><linearGradient id="paint5_linear" x1="13.875" y1="5.249" x2="17.262" y2="4.828" gradientUnits="userSpaceOnUse"><stop stop-color="#4B8C1C"/><stop offset="1" stop-color="#76AB50"/></linearGradient><linearGradient id="paint6_linear" x1="15.034" y1="4.599" x2="16.743" y2="3.268" gradientUnits="userSpaceOnUse"><stop stop-color="#76AB50" stop-opacity="0"/><stop offset="1" stop-color="#76AB50"/></linearGradient><linearGradient id="paint7_linear" x1="17.497" y1="6.511" x2="17.38" y2="3.157" gradientUnits="userSpaceOnUse"><stop stop-color="#4B8C1C"/><stop offset="1" stop-color="#4B8C1C" stop-opacity="0"/></linearGradient><linearGradient id="paint8_linear" x1="8.256" y1="8.474" x2="7.379" y2="3.636" gradientUnits="userSpaceOnUse"><stop stop-color="#4B8C1C"/><stop offset="1" stop-color="#76AB50"/></linearGradient><linearGradient id="paint9_linear" x1="11.253" y1="16.659" x2="6.448" y2="1.431" gradientUnits="userSpaceOnUse"><stop stop-color="#4B8C1C"/><stop offset="1" stop-color="#4B8C1C" stop-opacity="0"/></linearGradient><linearGradient id="paint10_linear" x1="11.472" y1="7.641" x2="17.243" y2="8.95" gradientUnits="userSpaceOnUse"><stop stop-color="#4B8C1C"/><stop offset="1" stop-color="#76AB50"/></linearGradient><linearGradient id="paint11_linear" x1="13.02" y1="12.15" x2="17.367" y2="3.923" gradientUnits="userSpaceOnUse"><stop stop-color="#4B8C1C"/><stop offset="1" stop-color="#4B8C1C" stop-opacity="0"/></linearGradient><linearGradient id="paint12_linear" x1="14.94" y1="9.971" x2="15.886" y2="8.166" gradientUnits="userSpaceOnUse"><stop stop-color="#4B8C1C"/><stop offset="1" stop-color="#4B8C1C" stop-opacity="0"/></linearGradient><linearGradient id="paint13_linear" x1="12.158" y1="14.755" x2="15.429" y2="14.662" gradientUnits="userSpaceOnUse"><stop stop-color="#A3541E"/><stop offset="1" stop-color="#512D00"/></linearGradient><linearGradient id="paint14_linear" x1="9.808" y1="16.142" x2="13.978" y2="16.107" gradientUnits="userSpaceOnUse"><stop stop-color="#C86F34"/><stop offset="1" stop-color="#A3541E"/></linearGradient><linearGradient id="paint15_linear" x1="7.172" y1="16.656" x2="16.301" y2="13.661" gradientUnits="userSpaceOnUse"><stop stop-color="#A3541E"/><stop offset="1" stop-color="#512D00"/></linearGradient><linearGradient id="paint16_linear" x1="14.275" y1="13.65" x2="12.873" y2="14.491" gradientUnits="userSpaceOnUse"><stop stop-color="#3C2200"/><stop offset="1" stop-color="#643800"/></linearGradient><linearGradient id="paint17_linear" x1="13.947" y1="11.583" x2="12.616" y2="12.635" gradientUnits="userSpaceOnUse"><stop stop-color="#3C2200"/><stop offset="1" stop-color="#643800"/></linearGradient><linearGradient id="paint18_linear" x1="14.236" y1="15.9" x2="12.238" y2="16.46" gradientUnits="userSpaceOnUse"><stop stop-color="#3C2200"/><stop offset="1" stop-color="#643800"/></linearGradient><linearGradient id="paint19_linear" x1="14.201" y1="20.445" x2="12.519" y2="20.621" gradientUnits="userSpaceOnUse"><stop stop-color="#3C2200"/><stop offset="1" stop-color="#643800"/></linearGradient><linearGradient id="paint20_linear" x1="14.041" y1="18.144" x2="12.359" y2="18.542" gradientUnits="userSpaceOnUse"><stop stop-color="#3C2200"/><stop offset="1" stop-color="#643800"/></linearGradient><linearGradient id="paint21_linear" x1="13.121" y1="10.465" x2="11.895" y2="11.271" gradientUnits="userSpaceOnUse"><stop stop-color="#3C2200"/><stop offset="1" stop-color="#643800"/></linearGradient><linearGradient id="paint22_linear" x1="10.056" y1="5.739" x2="6.937" y2="9.7" gradientUnits="userSpaceOnUse"><stop stop-color="#4B8C1C"/><stop offset="1" stop-color="#76AB50"/></linearGradient><linearGradient id="paint23_linear" x1="10.853" y1="17.107" x2="6.33" y2="5.959" gradientUnits="userSpaceOnUse"><stop stop-color="#4B8C1C"/><stop offset="1" stop-color="#4B8C1C" stop-opacity="0"/></linearGradient><linearGradient id="paint24_linear" x1="8.469" y1="10.573" x2="6.648" y2="9.208" gradientUnits="userSpaceOnUse"><stop stop-color="#4B8C1C"/><stop offset="1" stop-color="#4B8C1C" stop-opacity="0"/></linearGradient><linearGradient id="paint25_linear" x1="9.537" y1="12.522" x2="11.862" y2="6.756" gradientUnits="userSpaceOnUse"><stop stop-color="#4B8C1C"/><stop offset="1" stop-color="#76AB50"/></linearGradient><linearGradient id="paint26_linear" x1="11.776" y1="23.642" x2="11.776" y2="1.944" gradientUnits="userSpaceOnUse"><stop stop-color="#4B8C1C"/><stop offset="1" stop-color="#4B8C1C" stop-opacity="0"/></linearGradient><linearGradient id="paint27_linear" x1="7.888" y1="4.157" x2="7.584" y2="5.84" gradientUnits="userSpaceOnUse"><stop stop-color="#4B8C1C"/><stop offset=".999" stop-color="#407817"/></linearGradient><linearGradient id="paint28_linear" x1="6.76" y1="8.886" x2="7.695" y2="10.265" gradientUnits="userSpaceOnUse"><stop stop-color="#4B8C1C"/><stop offset=".999" stop-color="#407817"/></linearGradient><linearGradient id="paint29_linear" x1="7.598" y1="7.598" x2="8.486" y2="8.532" gradientUnits="userSpaceOnUse"><stop stop-color="#4B8C1C"/><stop offset=".999" stop-color="#407817"/></linearGradient><linearGradient id="paint30_linear" x1="6.273" y1="10.693" x2="6.624" y2="12.188" gradientUnits="userSpaceOnUse"><stop stop-color="#4B8C1C"/><stop offset=".999" stop-color="#407817"/></linearGradient><linearGradient id="paint31_linear" x1="6.683" y1="7.904" x2="6.799" y2="12.659" gradientUnits="userSpaceOnUse"><stop stop-color="#4B8C1C"/><stop offset=".999" stop-color="#407817"/></linearGradient><linearGradient id="paint32_linear" x1="9.935" y1="3.765" x2="12.416" y2="6.793" gradientUnits="userSpaceOnUse"><stop stop-color="#4B8C1C"/><stop offset="1" stop-color="#76AB50"/></linearGradient><linearGradient id="paint33_linear" x1="12.207" y1="6.55" x2="10.069" y2="2.957" gradientUnits="userSpaceOnUse"><stop stop-color="#4B8C1C"/><stop offset=".999" stop-color="#407817"/></linearGradient><linearGradient id="paint34_linear" x1="6.413" y1="6.066" x2="6.483" y2="4.716" gradientUnits="userSpaceOnUse"><stop stop-color="#4B8C1C"/><stop offset="1" stop-color="#4B8C1C" stop-opacity="0"/></linearGradient><linearGradient id="paint35_linear" x1="9.091" y1="6.253" x2="9.202" y2="4.119" gradientUnits="userSpaceOnUse"><stop stop-color="#4B8C1C"/><stop offset="1" stop-color="#4B8C1C" stop-opacity="0"/></linearGradient><linearGradient id="paint36_linear" x1="5.01" y1="6.44" x2="4.922" y2="5.021" gradientUnits="userSpaceOnUse"><stop stop-color="#4B8C1C"/><stop offset="1" stop-color="#4B8C1C" stop-opacity="0"/></linearGradient><linearGradient id="paint37_linear" x1="6.319" y1="3.873" x2="6.015" y2="5.556" gradientUnits="userSpaceOnUse"><stop stop-color="#4B8C1C"/><stop offset=".999" stop-color="#407817"/></linearGradient><linearGradient id="paint38_linear" x1="9.917" y1="4.63" x2="12.13" y2="11.046" gradientUnits="userSpaceOnUse"><stop stop-color="#4B8C1C"/><stop offset="1" stop-color="#4B8C1C" stop-opacity="0"/></linearGradient><linearGradient id="paint39_linear" x1="10.091" y1="8.667" x2="11.019" y2="6.364" gradientUnits="userSpaceOnUse"><stop stop-color="#4B8C1C"/><stop offset="1" stop-color="#4B8C1C" stop-opacity="0"/></linearGradient><linearGradient id="paint40_linear" x1="11.01" y1="6.948" x2="9.853" y2="7.667" gradientUnits="userSpaceOnUse"><stop stop-color="#4B8C1C"/><stop offset=".999" stop-color="#407817"/></linearGradient><linearGradient id="paint41_linear" x1="10.72" y1="10.069" x2="11.316" y2="8.106" gradientUnits="userSpaceOnUse"><stop stop-color="#4B8C1C"/><stop offset="1" stop-color="#4B8C1C" stop-opacity="0"/></linearGradient><linearGradient id="paint42_linear" x1="11.863" y1="8.321" x2="10.706" y2="9.039" gradientUnits="userSpaceOnUse"><stop stop-color="#4B8C1C"/><stop offset=".999" stop-color="#407817"/></linearGradient><linearGradient id="paint43_linear" x1="16.206" y1="5.967" x2="13.24" y2="2.791" gradientUnits="userSpaceOnUse"><stop stop-color="#4B8C1C"/><stop offset="1" stop-color="#76AB50"/></linearGradient></defs></svg>