<?xml version="1.0" encoding="UTF-8" standalone="no"?> <svg xmlns="http://www.w3.org/2000/svg" viewBox="0 0 512 512"><title>Acropolis_of_Athens</title><g id="Acropolis_of_Athens"><rect x="25.55" y="417.71" width="460.91" height="23.74" style="fill:#f7d6b2"/><path d="M162.17,201.34h-28c0,8.94,6.16,16.18,13.76,16.18h28.44c7.6,0,13.76-7.24,13.76-16.18Z" style="fill:#f4e7d7"/><path d="M176.39,401.52H148c-7.6,0-13.76,7.25-13.76,16.19h56C190.15,408.77,184,401.52,176.39,401.52Z" style="fill:#f4e7d7"/><path d="M185.93,352c-.51-20.35-2.75-63.68-11.83-134.45H150.24c-9.08,70.77-11.32,114.1-11.83,134.45a89.29,89.29,0,0,0,6.53,36.72c3.71,8.8,7.14,12.83,7.14,12.83h20.18s3.43-4,7.14-12.83A89.29,89.29,0,0,0,185.93,352Z" style="fill:#f4e7d7"/><path d="M71.8,201.34h-28c0,8.94,6.16,16.18,13.76,16.18H86c7.6,0,13.76-7.24,13.76-16.18Z" style="fill:#f4e7d7"/><path d="M86,401.52H57.58c-7.6,0-13.76,7.25-13.76,16.19h56C99.78,408.77,93.62,401.52,86,401.52Z" style="fill:#f4e7d7"/><path d="M95.56,352c-.51-20.35-2.75-63.68-11.83-134.45H59.87C50.79,288.29,48.55,331.62,48,352a89.29,89.29,0,0,0,6.53,36.72c3.71,8.8,7.14,12.83,7.14,12.83H81.89s3.43-4,7.14-12.83A89.29,89.29,0,0,0,95.56,352Z" style="fill:#f4e7d7"/><path d="M252.54,201.34h-28c0,8.94,6.16,16.18,13.76,16.18h28.44c7.6,0,13.76-7.24,13.76-16.18Z" style="fill:#f4e7d7"/><path d="M266.76,401.52H238.32c-7.6,0-13.76,7.25-13.76,16.19h56C280.52,408.77,274.36,401.52,266.76,401.52Z" style="fill:#f4e7d7"/><path d="M276.29,352c-.5-20.35-2.74-63.68-11.83-134.45H240.61c-9.09,70.77-11.32,114.1-11.83,134.45a89.12,89.12,0,0,0,6.53,36.72c3.71,8.8,7.14,12.83,7.14,12.83h20.18s3.43-4,7.14-12.83A89.12,89.12,0,0,0,276.29,352Z" style="fill:#f4e7d7"/><path d="M342.91,201.34h-28c0,8.94,6.16,16.18,13.76,16.18h28.44c7.6,0,13.76-7.24,13.76-16.18Z" style="fill:#d6c2ab"/><path d="M357.13,401.52H328.69c-7.6,0-13.76,7.25-13.76,16.19h56C370.89,408.77,364.73,401.52,357.13,401.52Z" style="fill:#d6c2ab"/><path d="M366.66,352c-.5-20.35-2.74-63.68-11.83-134.45H331c-9.09,70.77-11.32,114.1-11.83,134.45a89,89,0,0,0,6.53,36.72c3.71,8.8,7.14,12.83,7.14,12.83H353s3.42-4,7.14-12.83A89.12,89.12,0,0,0,366.66,352Z" style="fill:#d6c2ab"/><path d="M447.5,401.52H419.06c-7.6,0-13.77,7.25-13.77,16.19h56C461.26,408.77,455.1,401.52,447.5,401.52Z" style="fill:#d6c2ab"/><path d="M409.52,352a89,89,0,0,0,6.53,36.72c3.71,8.8,7.13,12.83,7.13,12.83h20.19s3.42-4,7.14-12.83A89.12,89.12,0,0,0,457,352c-.27-11-1-28.59-3.12-53.54a6.34,6.34,0,0,0-6.32-5.8H419a6.33,6.33,0,0,0-6.31,5.8C410.57,323.38,409.79,341,409.52,352Z" style="fill:#d6c2ab"/><path d="M25.55,176H366.42A15.06,15.06,0,0,1,381.48,191v10.31a0,0,0,0,1,0,0H25.55a0,0,0,0,1,0,0V176A0,0,0,0,1,25.55,176Z" style="fill:#f7d6b2"/><rect x="25.55" y="125.58" width="279.06" height="18.62" style="fill:#f7d6b2"/><path d="M43.82,144.2V176H349.28l-12.71-5.7a22.87,22.87,0,0,1-13.46-19.68h0a6.72,6.72,0,0,0-6.71-6.38Z" style="fill:#f4e7d7"/><path d="M48,125.58,66.5,105a44.74,44.74,0,0,1,12.35-9.65c11.21-6,33.17-17.51,46.44-23.91a8.81,8.81,0,0,1,12.12,5h0a25.25,25.25,0,0,0,20.27,16.48l16.95,2.36a10.12,10.12,0,0,1,8.6,9.44c.62,8.6,4.83,20.89,23.73,20.89,0,0,13.54,0,19.42-15.73a8,8,0,0,1,12.06-3.9l27.73,19.63Z" style="fill:#f4e7d7"/><rect x="252.54" y="417.71" width="233.92" height="23.74" style="fill:#e5b380"/><path d="M366.42,176H252.54v25.38H381.48V191A15.06,15.06,0,0,0,366.42,176Z" style="fill:#e5b380"/><path d="M323.11,150.58a6.72,6.72,0,0,0-6.71-6.38H252.54V176h96.74l-12.71-5.7A22.87,22.87,0,0,1,323.11,150.58Z" style="fill:#d6c2ab"/><rect x="252.54" y="125.58" width="52.07" height="18.62" style="fill:#e5b380"/><path d="M280.52,201.34h-28V417.71h28c0-8.94-6.16-16.19-13.76-16.19h-4.13s3.43-4,7.14-12.83A89.12,89.12,0,0,0,276.29,352c-.5-20.35-2.74-63.68-11.83-134.45h2.3C274.36,217.52,280.52,210.28,280.52,201.34Z" style="fill:#d6c2ab"/><path d="M491.68,412.48H465.85c-1.69-7.52-6.89-13.42-13.53-15.4.95-1.8,2-3.9,3-6.36a94.51,94.51,0,0,0,6.94-38.88c-.26-10.45-1-28.28-3.14-53.84a11.63,11.63,0,0,0-11.53-10.6H419A11.63,11.63,0,0,0,407.43,298c-2.12,25.57-2.88,43.39-3.14,53.84h0a94.45,94.45,0,0,0,6.94,38.88c1,2.46,2,4.56,3,6.36-6.64,2-11.84,7.88-13.53,15.4H375.48c-1.69-7.52-6.88-13.42-13.53-15.4.95-1.8,2-3.9,3-6.36a94.45,94.45,0,0,0,6.94-38.88h0c-.47-19.19-2.59-61.26-11.18-129.49,7.24-1.57,13-7.79,14.77-15.78h11.23V191a20.31,20.31,0,0,0-20.29-20.29h-16l-11.68-5.25a17.51,17.51,0,0,1-10.38-15.17A12,12,0,0,0,316.4,139h-6.56V120.35h-42l-26.38-18.67a13,13,0,0,0-11.38-1.82,13.33,13.33,0,0,0-8.6,8.16C217,120,207.31,120.34,207,120.35c-11.67,0-17.73-5.25-18.52-16a15.28,15.28,0,0,0-13.09-14.25L158.4,87.7a19.91,19.91,0,0,1-16.06-13A14,14,0,0,0,123,66.72c-13.3,6.42-34.91,17.79-46.61,24A50,50,0,0,0,62.61,101.5L45.68,120.35H20.32v29.08H38.59v21.3H20.32v35.84H39.23c1.79,8,7.53,14.21,14.77,15.78-8.59,68.23-10.71,110.3-11.19,129.49a94.81,94.81,0,0,0,6.94,38.88c1,2.47,2.06,4.56,3,6.36-6.64,2-11.83,7.88-13.52,15.4H20.32v34.2H491.68ZM417.86,298.87a1.1,1.1,0,0,1,1.1-1h28.63a1.1,1.1,0,0,1,1.1,1c2.11,25.32,2.86,42.93,3.11,53.24a84.19,84.19,0,0,1-6.11,34.56,62.72,62.72,0,0,1-5,9.63H425.87a61.64,61.64,0,0,1-5-9.63,84.19,84.19,0,0,1-6.11-34.56C415,341.79,415.75,324.19,417.86,298.87Zm1.19,107.88H447.5c3.23,0,6,2.32,7.49,5.73H411.56C413,409.07,415.82,406.75,419.05,406.75Zm-54.43,5.73H321.19c1.45-3.41,4.27-5.73,7.5-5.73h28.44C360.36,406.75,363.17,409.07,364.62,412.48Zm-79.51,0c-1.69-7.52-6.88-13.42-13.52-15.4.94-1.8,2-3.9,3-6.36a94.64,94.64,0,0,0,6.93-38.88c-.47-19.16-2.58-61.17-11.18-129.49,7.24-1.57,13-7.79,14.77-15.78h25.23c1.79,8,7.53,14.21,14.76,15.78-8.6,68.32-10.71,110.33-11.18,129.49a94.81,94.81,0,0,0,6.94,38.88c1,2.46,2.05,4.56,3,6.36-6.64,2-11.83,7.88-13.52,15.4Zm-90.37,0c-1.69-7.52-6.88-13.42-13.52-15.4.94-1.8,2-3.9,3-6.36a94.62,94.62,0,0,0,6.95-38.88h0c-.48-19.18-2.6-61.22-11.19-129.49,7.24-1.57,13-7.79,14.77-15.78H220c1.79,8,7.53,14.21,14.76,15.78-8.59,68.23-10.7,110.3-11.18,129.49a94.78,94.78,0,0,0,6.94,38.88c1,2.46,2,4.56,3,6.36-6.64,2-11.83,7.88-13.52,15.4Zm-90.37,0c-1.69-7.52-6.88-13.42-13.52-15.4.94-1.8,2-3.9,3-6.36a94.81,94.81,0,0,0,6.94-38.88c-.48-19.16-2.59-61.17-11.19-129.49,7.24-1.57,13-7.79,14.77-15.78H129.6c1.8,8,7.53,14.21,14.77,15.78-8.6,68.27-10.71,110.31-11.19,129.49a94.84,94.84,0,0,0,6.94,38.88c1,2.46,2,4.56,3,6.36-6.64,2-11.83,7.88-13.52,15.4Zm70.21-25.82a62.72,62.72,0,0,1-5,9.63H154.76a60.94,60.94,0,0,1-5-9.63,84.19,84.19,0,0,1-6.12-34.56c.47-19.07,2.57-61,11.21-129.35h14.64C178.13,291.14,180.22,333,180.7,352.1A84.19,84.19,0,0,1,174.58,386.66Zm1.81-174.37H148c-3.23,0-6-2.31-7.5-5.72h43.43C182.44,210,179.62,212.29,176.39,212.29ZM148,406.75h28.44c3.23,0,6.05,2.32,7.49,5.73H140.45C141.9,409.07,144.72,406.75,148,406.75Zm117-20.09a62.72,62.72,0,0,1-5,9.63H245.13a60.94,60.94,0,0,1-5-9.63A84.19,84.19,0,0,1,234,352.1c.48-19.09,2.57-61,11.21-129.35h14.64c8.65,68.45,10.73,110.3,11.2,129.35A84.19,84.19,0,0,1,265,386.66Zm1.81-174.37H238.32c-3.23,0-6-2.31-7.5-5.72h43.43C272.8,210,270,212.29,266.76,212.29ZM238.32,406.75h28.44c3.23,0,6,2.32,7.49,5.73H230.82C232.27,409.07,235.09,406.75,238.32,406.75ZM361.43,352.1a84.19,84.19,0,0,1-6.11,34.56,62.72,62.72,0,0,1-5,9.63H335.5a61.64,61.64,0,0,1-5-9.63,84.35,84.35,0,0,1-6.11-34.56c.47-19.05,2.56-60.9,11.21-129.35h14.64C358.86,291.11,361,333,361.43,352.1Zm-4.3-139.81H328.69c-3.23,0-6.05-2.31-7.5-5.72h43.43C363.17,210,360.36,212.29,357.13,212.29ZM316.4,149.43a1.49,1.49,0,0,1,1.49,1.42,27.94,27.94,0,0,0,9.75,19.88H217v-21.3H316.4Zm-191.67,0h81.85v21.3H124.73Zm106.55-37.75a2.93,2.93,0,0,1,1.89-1.82,2.46,2.46,0,0,1,2.25.36l14.31,10.13H226.56A33.34,33.34,0,0,0,231.28,111.68ZM70.39,108.49A39.29,39.29,0,0,1,81.3,100c9.37-5,32.62-17.24,46.26-23.82a3.59,3.59,0,0,1,4.93,2A30.36,30.36,0,0,0,157,98.07l16.95,2.36a4.89,4.89,0,0,1,4.1,4.64,29.42,29.42,0,0,0,5.11,15.28H59.74ZM30.78,139v-8.16h268.6V139H30.78Zm18.27,10.46h65.22v21.3H49.05ZM38.59,196.11H30.78V181.19H366.42a9.84,9.84,0,0,1,9.83,9.83v5.09H38.59Zm11.5,10.46H93.51c-1.44,3.41-4.26,5.72-7.49,5.72H57.58C54.35,212.29,51.53,210,50.09,206.57Zm14.39,16.18H79.12c8.65,68.45,10.74,110.3,11.21,129.35a84.11,84.11,0,0,1-6.12,34.55,60.7,60.7,0,0,1-5,9.64H64.39a60.94,60.94,0,0,1-5-9.63,84.19,84.19,0,0,1-6.12-34.56C53.75,333,55.84,291.11,64.48,222.75Zm-6.9,184H86c3.23,0,6,2.32,7.49,5.73H50.09C51.53,409.07,54.35,406.75,57.58,406.75Zm423.64,29.47H30.78V422.94H481.22Z" style="fill:#3d3d3d"/></g></svg>