<?xml version="1.0" encoding="utf-8"?>
<!-- Generator: Adobe Illustrator 24.0.2, SVG Export Plug-In . SVG Version: 6.00 Build 0)  -->
<svg version="1.1" id="Layer_1" xmlns="http://www.w3.org/2000/svg" xmlns:xlink="http://www.w3.org/1999/xlink" x="0px" y="0px"
	 viewBox="0 0 512 512" style="enable-background:new 0 0 512 512;" xml:space="preserve">
<style type="text/css">
	.st0{fill:none;stroke:#FFECE0;stroke-width:3.2463;stroke-miterlimit:10;}
	.st1{fill:#9E6487;}
	.st2{fill:#FFECE0;}
	.st3{fill:#FDE0CE;}
	.st4{clip-path:url(#SVGID_2_);fill:#9E6487;}
	.st5{clip-path:url(#SVGID_2_);fill:none;stroke:#7D5170;stroke-width:1.5502;stroke-linecap:round;stroke-miterlimit:10;}
	.st6{clip-path:url(#SVGID_2_);fill:#020325;}
	.st7{clip-path:url(#SVGID_2_);fill:#FFFFFF;}
	.st8{opacity:0.5;fill:none;stroke:#9E6487;stroke-width:1.2503;stroke-linecap:round;stroke-miterlimit:10;}
	.st9{opacity:0.7;fill:#9E6487;}
	.st10{fill:#020325;}
	.st11{fill:none;stroke:#FFECE0;stroke-width:3;stroke-linecap:round;stroke-miterlimit:10;}
</style>
<line class="st0" x1="179.5535" y1="67.8468" x2="217.9526" y2="165.2267"/>
<polygon class="st1" points="256.0798,268.3224 423.5987,142.7012 88.5788,142.7012 241.1964,271.8293 241.1964,446.8261 
	165.0512,503.9349 317.3227,503.9349 256.0798,452.1056 "/>
<polygon class="st1" points="341.6933,159.0112 228.4573,243.9342 246.9391,259.5715 381.0376,159.0112 "/>
<g>
	<g>
		<g>
			<g>
				<path class="st2" d="M215.5174,153.423c0-19.8718,10.7589-37.2268,26.7508-46.5862
					c-23.1155,6.0973-40.1437,27.1322-40.1437,52.1744c0,29.7952,24.1519,53.9648,53.9553,53.9648
					c9.9225,0,19.2271-2.689,27.2234-7.3693c-4.3983,1.163-9.0319,1.7809-13.8116,1.7809
					C239.6879,207.3876,215.5174,183.2358,215.5174,153.423z"/>
			</g>
			<path class="st3" d="M215.5174,153.423c0-19.8718,10.7589-37.2268,26.7508-46.5862
				c-23.1155,6.0973-40.1437,27.1322-40.1437,52.1744c0,29.7952,24.1519,53.9648,53.9553,53.9648
				c9.9225,0,19.2271-2.689,27.2234-7.3693c-4.3983,1.163-9.0319,1.7809-13.8116,1.7809
				C239.6879,207.3876,215.5174,183.2358,215.5174,153.423z"/>
			<path class="st2" d="M310.0539,159.0112c0-29.8127-24.1705-53.9739-53.9741-53.9739c-4.7797,0-9.3956,0.6272-13.8116,1.7996
				c-15.9918,9.3594-26.7508,26.7144-26.7508,46.5862c0,29.8128,24.1705,53.9646,53.9741,53.9646
				c4.7797,0,9.4133-0.6179,13.8116-1.7809C299.295,196.2296,310.0539,178.8746,310.0539,159.0112z"/>
		</g>
		<g>
			<defs>
				<path id="SVGID_1_" d="M291.2633,152.9418c0,15.7742-12.0857,28.5494-26.9871,28.5494
					c-14.9021,0-26.9869-12.7752-26.9869-28.5494c0-15.7656,12.0848-28.5501,26.9869-28.5501
					C279.1776,124.3917,291.2633,137.1762,291.2633,152.9418z"/>
			</defs>
			<clipPath id="SVGID_2_">
				<use xlink:href="#SVGID_1_"  style="overflow:visible;"/>
			</clipPath>
			<path class="st4" d="M291.2633,152.9418c0,15.7742-12.0857,28.5494-26.9871,28.5494c-14.9021,0-26.9869-12.7752-26.9869-28.5494
				c0-15.7656,12.0848-28.5501,26.9869-28.5501C279.1776,124.3917,291.2633,137.1762,291.2633,152.9418z"/>
			<line class="st5" x1="267.4203" y1="152.9418" x2="255.5169" y2="178.6383"/>
			<line class="st5" x1="246.3574" y1="172.6863" x2="267.4203" y2="150.8241"/>
			<line class="st5" x1="266.0571" y1="149.5615" x2="238.1071" y2="159.9017"/>
			<line class="st5" x1="264.2762" y1="146.4083" x2="239.1967" y2="142.4017"/>
			<line class="st5" x1="250.337" y1="129.271" x2="267.4203" y2="144.4002"/>
			<line class="st5" x1="264.2762" y1="124.3917" x2="269.4915" y2="142.4017"/>
			<line class="st5" x1="274.7254" y1="126.6183" x2="272.7443" y2="140.8841"/>
			<line class="st5" x1="280.5593" y1="130.9523" x2="275.6344" y2="142.4017"/>
			<line class="st5" x1="285.3381" y1="135.0956" x2="278.1057" y2="144.4002"/>
			<line class="st5" x1="288.7371" y1="140.8841" x2="278.1057" y2="147.3992"/>
			<line class="st5" x1="290.2631" y1="149.5615" x2="278.1057" y2="150.8241"/>
			<line class="st5" x1="290.2631" y1="156.2125" x2="275.6344" y2="153.7141"/>
			<line class="st5" x1="288.7371" y1="163.4729" x2="272.7443" y2="156.2125"/>
			<line class="st5" x1="285.3381" y1="169.2518" x2="271.1272" y2="156.794"/>
			<line class="st5" x1="279.3777" y1="176.6024" x2="271.1272" y2="153.7141"/>
			<line class="st5" x1="271.1272" y1="180.5643" x2="269.4915" y2="154.7321"/>
			<line class="st5" x1="262.7857" y1="180.5643" x2="268.2373" y2="154.7321"/>
			<path class="st6" d="M280.5593,146.4083c0,6.9606-4.9436,12.6029-11.0678,12.6029c-6.1244,0-11.0669-5.6422-11.0669-12.6029
				c0-6.9506,4.9425-12.5938,11.0669-12.5938C275.6157,133.8145,280.5593,139.4577,280.5593,146.4083z"/>
			<polygon class="st7" points="261.4775,129.271 263.7674,133.9326 268.91,134.6779 265.1845,138.2947 266.0571,143.4187 
				261.4775,141.0023 256.8615,143.4187 257.752,138.2947 254.0264,134.6779 259.169,133.9326 			"/>
			<path class="st7" d="M279.3777,156.794c0,2.1261-1.6897,3.8623-3.7433,3.8623c-2.0536,0-3.7256-1.7361-3.7256-3.8623
				s1.672-3.8522,3.7256-3.8522C277.688,152.9418,279.3777,154.6679,279.3777,156.794z"/>
		</g>
	</g>
	<path class="st8" d="M205.6138,161.3738c0,0-0.4002,9.3408,2.1259,13.4116"/>
	<path class="st8" d="M277.179,204.0985c0,0,19.7536-10.8854,25.6239-28.3677"/>
	<path class="st8" d="M272.0177,206.4609c0,0-6.5606,2.7625-19.2455,2.3262"/>
	<path class="st8" d="M205.5774,156.2125c0,0,1.5808-20.8804,12.3752-30.494"/>
</g>
<polygon class="st9" points="129.614,159.0112 248.4651,259.5715 382.5645,159.0112 "/>
<path class="st10" d="M170.6489,96.278c0,0,0.1628-24.8973,41.1254-22.1981c0,0,0.7453-21.5354,30.9303-26.9143L134.9929,7.4852
	l-13.4479,99.3516C121.5449,106.8368,141.7172,80.1411,170.6489,96.278z"/>
<polyline class="st11" points="205.5774,67.8468 139.0273,14.5363 167.2863,87.5372 "/>
<line class="st11" x1="228.4573" y1="46.157" x2="215.5174" y2="40.7779"/>
<line class="st11" x1="211.8469" y1="39.1059" x2="205.5774" y2="36.0708"/>
<line class="st11" x1="126.4885" y1="95.8332" x2="128.4332" y2="81.9665"/>
<line class="st11" x1="133.6297" y1="41.1324" x2="137.0101" y2="12.5282"/>
<line class="st11" x1="129.2865" y1="78.1414" x2="130.0502" y2="71.2356"/>
<line class="st11" x1="254.2263" y1="455.5036" x2="277.433" y2="475.3493"/>
<line class="st11" x1="279.3777" y1="477.2754" x2="282.9943" y2="480.5552"/>
<line class="st11" x1="252.8819" y1="276.0546" x2="252.8819" y2="323.3041"/>
<line class="st11" x1="252.8819" y1="363.5845" x2="252.8819" y2="410.8528"/>
<line class="st11" x1="252.8819" y1="326.3393" x2="252.8819" y2="330.6287"/>
<line class="st11" x1="252.8819" y1="415.987" x2="252.8819" y2="420.2663"/>
<polyline class="st11" points="378.8566,146.5627 407.9521,146.5627 386.2527,165.063 "/>
<line class="st11" x1="381.8731" y1="168.0795" x2="376.4942" y2="172.9587"/>
</svg>
