<svg xmlns="http://www.w3.org/2000/svg" aria-hidden="true" style="position:absolute;width:0;height:0;overflow:hidden">
<defs>
    <symbol id="icon-search" viewBox="0 0 32 32">
        <path fill="none" stroke="#fff" stroke-linecap="round" stroke-linejoin="round" stroke-width="2.67" d="M14.67 25.33a10.67 10.67 0 1 0 0-21.33 10.67 10.67 0 0 0 0 21.33zM28 28l-5.8-5.8" style="stroke:var(--color1, #fff)"/>
    </symbol>

<symbol id="plane-bags" viewBox="0 0 64 64">
    <path d="M17 6V21H21V8H35V21H39V6C39 5.46957 38.7893 4.96086 38.4142 4.58579C38.0391 4.21071 37.5304 4 37 4H19C18.4696 4 17.9609 4.21071 17.5858 4.58579C17.2107 4.96086 17 5.46957 17 6V6Z" fill="#AAE1F9"/>
    <path d="M37 15V4H19C18.4696 4 17.9609 4.21071 17.5858 4.58579C17.2107 4.96086 17 5.46957 17 6V21H21V18C20.4696 18 19.9609 17.7893 19.5858 17.4142C19.2107 17.0391 19 16.5304 19 16V10C19 9.46957 19.2107 8.96086 19.5858 8.58579C19.9609 8.21071 20.4696 8 21 8H35V21H39V17.816C38.4163 17.6112 37.9105 17.2303 37.5523 16.726C37.1941 16.2216 37.0011 15.6186 37 15V15Z" fill="#57B7EB"/>
    <path d="M40 21H16C13.7909 21 12 22.7909 12 25V53C12 55.2091 13.7909 57 16 57H40C42.2091 57 44 55.2091 44 53V25C44 22.7909 42.2091 21 40 21Z" fill="#F9E109"/>
    <path d="M16 57H20V59C20 59.5304 19.7893 60.0391 19.4142 60.4142C19.0391 60.7893 18.5304 61 18 61C17.4696 61 16.9609 60.7893 16.5858 60.4142C16.2107 60.0391 16 59.5304 16 59V57Z" fill="#57B7EB"/>
    <path d="M36 57H40V59C40 59.5304 39.7893 60.0391 39.4142 60.4142C39.0391 60.7893 38.5304 61 38 61C37.4696 61 36.9609 60.7893 36.5858 60.4142C36.2107 60.0391 36 59.5304 36 59V57Z" fill="#57B7EB"/>
    <path d="M33 3H23C21.8954 3 21 3.89543 21 5V7C21 8.10457 21.8954 9 23 9H33C34.1046 9 35 8.10457 35 7V5C35 3.89543 34.1046 3 33 3Z" fill="#F9E109"/>
    <path d="M23 3C22.4696 3 21.9609 3.21071 21.5858 3.58579C21.2107 3.96086 21 4.46957 21 5V7C21 7.53043 21.2107 8.03914 21.5858 8.41421C21.9609 8.78929 22.4696 9 23 9H33C33.5304 9 34.0391 8.78929 34.4142 8.41421C34.7893 8.03914 35 7.53043 35 7H27C25.9391 7 24.9217 6.57857 24.1716 5.82843C23.4214 5.07828 23 4.06087 23 3V3Z" fill="#FCBC04"/>
    <path d="M37 51C32.2261 51 27.6477 49.1036 24.2721 45.7279C20.8964 42.3523 19 37.7739 19 33V21H16C14.9391 21 13.9217 21.4214 13.1716 22.1716C12.4214 22.9217 12 23.9391 12 25V53C12 54.0609 12.4214 55.0783 13.1716 55.8284C13.9217 56.5786 14.9391 57 16 57H40C41.0609 57 42.0783 56.5786 42.8284 55.8284C43.5786 55.0783 44 54.0609 44 53V51H37Z" fill="#FCBC04"/>
    <path d="M38 60C38 59.4696 38.2107 58.9609 38.5858 58.5858C38.9609 58.2107 39.4696 58 40 58V57H36V59C36 59.5304 36.2107 60.0391 36.5858 60.4142C36.9609 60.7893 37.4696 61 38 61V60Z" fill="#4891D3"/>
    <path d="M18 60C18 59.4696 18.2107 58.9609 18.5858 58.5858C18.9609 58.2107 19.4696 58 20 58V57H16V59C16 59.5304 16.2107 60.0391 16.5858 60.4142C16.9609 60.7893 17.4696 61 18 61V60Z" fill="#4891D3"/>
    <path d="M21 27H3V51H21V27Z" fill="#C4F236"/>
    <path d="M19 46C15.8174 46 12.7652 44.7357 10.5147 42.4853C8.26428 40.2348 7 37.1826 7 34V27H3V51H21V46H19Z" fill="#A1D51C"/>
    <path d="M36.412 25.768L43.412 37.892L50.34 33.892L45.312 27.492C44.2847 26.1812 42.8189 25.2852 41.1838 24.9685C39.5488 24.6517 37.8545 24.9356 36.412 25.768V25.768Z" fill="#57B7EB"/>
    <path d="M46.735 29.3C45.4043 29.8058 43.9372 29.822 42.5957 29.3457C41.2542 28.8694 40.1258 27.9316 39.412 26.7L38.431 25C37.7217 25.1488 37.0403 25.4087 36.412 25.77L43.412 37.894L50.34 33.894L46.735 29.3Z" fill="#4891D3"/>
    <path d="M50.072 29.428L32.751 39.428L32.251 38.562C31.7202 37.6437 30.8464 36.9737 29.8217 36.6996C28.7971 36.4254 27.7055 36.5694 26.787 37.1L29.287 41.43C30.0096 42.6817 31.1164 43.6671 32.4433 44.2399C33.7702 44.8128 35.2465 44.9425 36.653 44.61C40.1639 43.7801 43.5348 42.442 46.659 40.638L61 32.356C59.9391 30.5186 58.1918 29.1779 56.1424 28.6288C54.093 28.0797 51.9094 28.3672 50.072 29.428V29.428Z" fill="#57B7EB"/>
    <path d="M58.823 29.923L50.659 34.636C47.5348 36.44 44.1639 37.7781 40.653 38.608V38.608C38.9239 39.0152 37.104 38.7204 35.592 37.788L32.751 39.428L32.251 38.562C31.7202 37.6437 30.8464 36.9737 29.8217 36.6996C28.7971 36.4254 27.7055 36.5694 26.787 37.1L29.287 41.43C30.0096 42.6817 31.1164 43.6671 32.4433 44.2399C33.7702 44.8127 35.2465 44.9425 36.653 44.61C40.1639 43.7801 43.5348 42.442 46.659 40.638L61 32.356C60.4499 31.4035 59.7087 30.5752 58.823 29.923V29.923Z" fill="#4891D3"/>
    <path d="M50.412 50.017L43.412 37.892L50.34 33.892L53.373 41.448C53.9931 42.9936 54.0351 44.7109 53.4912 46.2849C52.9473 47.8589 51.854 49.184 50.412 50.017Z" fill="#AAE1F9"/>
    <path d="M53.8 43.091C53.1764 43.6749 52.3542 43.9998 51.5 44C50.9917 44.0002 50.4903 43.883 50.0348 43.6575C49.5793 43.432 49.182 43.1043 48.874 42.7L46.654 39.792C46.3764 39.4289 45.9765 39.1788 45.5285 39.0881C45.0805 38.9975 44.6149 39.0724 44.218 39.299V39.299L50.406 50.016C51.5954 49.3292 52.5533 48.3038 53.1578 47.0705C53.7622 45.8372 53.9858 44.4518 53.8 43.091Z" fill="#57B7EB"/>
    <path d="M44 45.021C43.7348 45.021 43.4804 45.1264 43.2929 45.3139C43.1053 45.5014 43 45.7558 43 46.021V49.654L40.036 51.366C39.9213 51.4312 39.8207 51.5184 39.7399 51.6226C39.6591 51.7269 39.5997 51.846 39.5652 51.9733C39.5306 52.1006 39.5216 52.2334 39.5386 52.3642C39.5556 52.495 39.5983 52.6211 39.6642 52.7353C39.7302 52.8495 39.818 52.9496 39.9228 53.0297C40.0276 53.1098 40.1471 53.1684 40.2746 53.2021C40.4021 53.2358 40.535 53.244 40.6657 53.2261C40.7964 53.2082 40.9222 53.1647 41.036 53.098L43 51.964V53C43 53.7956 42.6839 54.5587 42.1213 55.1213C41.5587 55.6839 40.7956 56 40 56H16C15.4756 56.0003 14.9605 55.8616 14.5072 55.5981C14.0538 55.3346 13.6783 54.9557 13.419 54.5C13.2794 54.285 13.0626 54.1318 12.8134 54.072C12.5641 54.0123 12.3014 54.0505 12.0795 54.1788C11.8577 54.3072 11.6935 54.5158 11.621 54.7617C11.5485 55.0075 11.5732 55.2718 11.69 55.5C12.0445 56.1067 12.5222 56.6324 13.0923 57.0432C13.6624 57.454 14.3122 57.7408 15 57.885V59C15 59.7956 15.316 60.5587 15.8787 61.1213C16.4413 61.6839 17.2043 62 18 62C18.7956 62 19.5587 61.6839 20.1213 61.1213C20.6839 60.5587 21 59.7956 21 59V58H35V59C35 59.7956 35.3161 60.5587 35.8787 61.1213C36.4413 61.6839 37.2043 62 38 62C38.7956 62 39.5587 61.6839 40.1213 61.1213C40.6839 60.5587 41 59.7956 41 59V57.9C42.1286 57.6679 43.1426 57.0538 43.8713 56.1612C44.5999 55.2687 44.9985 54.1522 45 53V46.021C45 45.7558 44.8946 45.5014 44.7071 45.3139C44.5195 45.1264 44.2652 45.021 44 45.021ZM19 59C19 59.2652 18.8946 59.5196 18.7071 59.7071C18.5195 59.8946 18.2652 60 18 60C17.7348 60 17.4804 59.8946 17.2929 59.7071C17.1053 59.5196 17 59.2652 17 59V58H19V59ZM39 59C39 59.2652 38.8946 59.5196 38.7071 59.7071C38.5196 59.8946 38.2652 60 38 60C37.7348 60 37.4804 59.8946 37.2929 59.7071C37.1053 59.5196 37 59.2652 37 59V58H39V59Z" fill="#39519D"/>
    <path d="M18 39C18 37.8133 17.6481 36.6533 16.9888 35.6666C16.3295 34.6799 15.3925 33.9109 14.2961 33.4567C13.1997 33.0026 11.9933 32.8838 10.8295 33.1153C9.66558 33.3468 8.59648 33.9182 7.75736 34.7574C6.91825 35.5965 6.3468 36.6656 6.11529 37.8295C5.88378 38.9933 6.0026 40.1997 6.45673 41.2961C6.91085 42.3925 7.67989 43.3295 8.66658 43.9888C9.65328 44.6481 10.8133 45 12 45C13.5908 44.9984 15.116 44.3658 16.2409 43.2409C17.3658 42.116 17.9984 40.5908 18 39ZM12.952 38H11.052C11.0504 36.9338 11.3818 35.8937 12 35.025C12.6196 35.8932 12.9524 36.9334 12.952 38V38ZM12.952 40C12.9524 41.0666 12.6196 42.1068 12 42.975C11.3804 42.1068 11.0476 41.0666 11.048 40H12.952ZM14.642 41.98C14.8062 41.3306 14.913 40.6681 14.961 40H15.861C15.6605 40.7665 15.2361 41.4559 14.642 41.98V41.98ZM15.858 38H14.958C14.91 37.3319 14.8032 36.6694 14.639 36.02C15.2331 36.5441 15.6575 37.2335 15.858 38V38ZM9.358 36.02C9.19379 36.6694 9.08704 37.3319 9.039 38H8.139C8.33947 37.2335 8.76388 36.5441 9.358 36.02V36.02ZM8.142 40H9.042C9.09004 40.6681 9.19679 41.3306 9.361 41.98C8.76688 41.4559 8.34247 40.7665 8.142 40V40Z" fill="#39519D"/>
    <path d="M22 51V27C22 26.7348 21.8946 26.4804 21.7071 26.2929C21.5196 26.1054 21.2652 26 21 26H13V25C13 24.2044 13.3161 23.4413 13.8787 22.8787C14.4413 22.3161 15.2044 22 16 22H40C40.2652 22 40.5196 21.8946 40.7071 21.7071C40.8946 21.5196 41 21.2652 41 21C41 20.7348 40.8946 20.4804 40.7071 20.2929C40.5196 20.1054 40.2652 20 40 20V6C40 5.20435 39.6839 4.44129 39.1213 3.87868C38.5587 3.31607 37.7956 3 37 3H35.22C34.941 2.68667 34.5991 2.43566 34.2166 2.26336C33.8341 2.09105 33.4195 2.00132 33 2H23C22.5805 2.00132 22.1659 2.09105 21.7834 2.26336C21.4009 2.43566 21.059 2.68667 20.78 3H19C18.2044 3 17.4413 3.31607 16.8787 3.87868C16.3161 4.44129 16 5.20435 16 6V20C14.6744 20.0016 13.4036 20.5289 12.4662 21.4662C11.5289 22.4036 11.0016 23.6744 11 25V26H3C2.73478 26 2.48043 26.1054 2.29289 26.2929C2.10536 26.4804 2 26.7348 2 27V43C2 43.2652 2.10536 43.5196 2.29289 43.7071C2.48043 43.8946 2.73478 44 3 44C3.26522 44 3.51957 43.8946 3.70711 43.7071C3.89464 43.5196 4 43.2652 4 43V28H20V50H4V47C4 46.7348 3.89464 46.4804 3.70711 46.2929C3.51957 46.1054 3.26522 46 3 46C2.73478 46 2.48043 46.1054 2.29289 46.2929C2.10536 46.4804 2 46.7348 2 47V51C2 51.2652 2.10536 51.5196 2.29289 51.7071C2.48043 51.8946 2.73478 52 3 52H21C21.2652 52 21.5196 51.8946 21.7071 51.7071C21.8946 51.5196 22 51.2652 22 51ZM37 5C37.2652 5 37.5196 5.10536 37.7071 5.29289C37.8946 5.48043 38 5.73478 38 6V20H36V5H37ZM23 4H33C33.2652 4 33.5196 4.10536 33.7071 4.29289C33.8946 4.48043 34 4.73478 34 5V7C34 7.26522 33.8946 7.51957 33.7071 7.70711C33.5196 7.89464 33.2652 8 33 8H23C22.7348 8 22.4804 7.89464 22.2929 7.70711C22.1054 7.51957 22 7.26522 22 7V5C22 4.73478 22.1054 4.48043 22.2929 4.29289C22.4804 4.10536 22.7348 4 23 4V4ZM18 6C18 5.73478 18.1054 5.48043 18.2929 5.29289C18.4804 5.10536 18.7348 5 19 5H20V7C20 7.79565 20.3161 8.55871 20.8787 9.12132C21.4413 9.68393 22.2044 10 23 10H33C33.3414 9.99669 33.6797 9.93444 34 9.816V20H22V12C22 11.7348 21.8946 11.4804 21.7071 11.2929C21.5196 11.1054 21.2652 11 21 11C20.7348 11 20.4804 11.1054 20.2929 11.2929C20.1054 11.4804 20 11.7348 20 12V20H18V6Z" fill="#39519D"/>
    <path d="M31.056 53.955C31.2316 53.955 31.404 53.9088 31.556 53.821L41.082 48.321C41.3118 48.1884 41.4795 47.9699 41.5483 47.7137C41.617 47.4574 41.5811 47.1843 41.4485 46.9545C41.3159 46.7247 41.0974 46.557 40.8412 46.4883C40.5849 46.4195 40.3118 46.4554 40.082 46.588L30.556 52.088C30.3649 52.1979 30.2154 52.3678 30.1308 52.5714C30.0463 52.7749 30.0313 53.0008 30.0884 53.2137C30.1454 53.4267 30.2712 53.6148 30.4462 53.7488C30.6212 53.8829 30.8356 53.9554 31.056 53.955V53.955Z" fill="#39519D"/>
    <path d="M33.447 29.366L29.983 31.366C29.8683 31.4312 29.7677 31.5184 29.6869 31.6226C29.6061 31.7269 29.5467 31.846 29.5122 31.9733C29.4776 32.1006 29.4686 32.2334 29.4856 32.3642C29.5026 32.495 29.5453 32.6211 29.6112 32.7353C29.6772 32.8495 29.765 32.9496 29.8698 33.0297C29.9746 33.1098 30.0941 33.1684 30.2216 33.2021C30.3491 33.2358 30.482 33.244 30.6127 33.2261C30.7434 33.2082 30.8692 33.1647 30.983 33.098L34.447 31.098C34.6748 30.9645 34.8405 30.7462 34.908 30.4909C34.9755 30.2356 34.9393 29.964 34.8073 29.7353C34.6752 29.5066 34.4581 29.3394 34.2032 29.2703C33.9484 29.2011 33.6765 29.2355 33.447 29.366Z" fill="#39519D"/>
    <path d="M60.5 38.366L57.036 40.366C56.9214 40.4312 56.8208 40.5184 56.74 40.6226C56.6591 40.7269 56.5998 40.846 56.5652 40.9733C56.5307 41.1006 56.5216 41.2334 56.5386 41.3642C56.5556 41.495 56.5983 41.6211 56.6643 41.7353C56.7302 41.8496 56.8181 41.9496 56.9228 42.0297C57.0276 42.1098 57.1472 42.1684 57.2747 42.2021C57.4022 42.2358 57.5351 42.244 57.6657 42.2261C57.7964 42.2082 57.9222 42.1647 58.036 42.098L61.5 40.098C61.6147 40.0328 61.7153 39.9456 61.7961 39.8414C61.8769 39.7372 61.9363 39.618 61.9708 39.4907C62.0054 39.3634 62.0144 39.2306 61.9974 39.0998C61.9804 38.969 61.9377 38.8429 61.8718 38.7287C61.8058 38.6145 61.718 38.5144 61.6132 38.4343C61.5084 38.3542 61.3889 38.2956 61.2614 38.2619C61.1339 38.2282 61.001 38.2201 60.8703 38.2379C60.7396 38.2558 60.6138 38.2993 60.5 38.366Z" fill="#39519D"/>
    <path d="M55.5 52.366L52.036 54.366C51.9214 54.4312 51.8208 54.5184 51.74 54.6226C51.6591 54.7269 51.5998 54.846 51.5652 54.9733C51.5307 55.1006 51.5216 55.2334 51.5386 55.3642C51.5556 55.495 51.5983 55.6211 51.6643 55.7353C51.7302 55.8496 51.8181 55.9496 51.9228 56.0297C52.0276 56.1098 52.1472 56.1684 52.2747 56.2021C52.4022 56.2358 52.5351 56.244 52.6657 56.2261C52.7964 56.2082 52.9222 56.1647 53.036 56.098L56.5 54.098C56.6147 54.0328 56.7153 53.9456 56.7961 53.8414C56.8769 53.7372 56.9363 53.618 56.9708 53.4907C57.0054 53.3634 57.0144 53.2306 56.9974 53.0998C56.9804 52.969 56.9377 52.8429 56.8718 52.7287C56.8058 52.6145 56.718 52.5144 56.6132 52.4343C56.5084 52.3542 56.3889 52.2956 56.2614 52.2619C56.1339 52.2282 56.001 52.2201 55.8703 52.2379C55.7396 52.2558 55.6138 52.2993 55.5 52.366Z" fill="#39519D"/>
    <path d="M60.5 46.366L57.036 48.366C56.9214 48.4312 56.8208 48.5184 56.74 48.6226C56.6591 48.7269 56.5998 48.846 56.5652 48.9733C56.5307 49.1006 56.5216 49.2334 56.5386 49.3642C56.5556 49.495 56.5983 49.6211 56.6643 49.7353C56.7302 49.8496 56.8181 49.9496 56.9228 50.0297C57.0276 50.1098 57.1472 50.1684 57.2747 50.2021C57.4022 50.2358 57.5351 50.244 57.6657 50.2261C57.7964 50.2082 57.9222 50.1647 58.036 50.098L61.5 48.098C61.6147 48.0328 61.7153 47.9456 61.7961 47.8414C61.8769 47.7372 61.9363 47.618 61.9708 47.4907C62.0054 47.3634 62.0144 47.2306 61.9974 47.0998C61.9804 46.969 61.9377 46.8429 61.8718 46.7287C61.8058 46.6145 61.718 46.5144 61.6132 46.4343C61.5084 46.3542 61.3889 46.2956 61.2614 46.2619C61.1339 46.2282 61.001 46.2201 60.8703 46.2379C60.7396 46.2558 60.6138 46.2993 60.5 46.366Z" fill="#39519D"/>
    <path d="M23.493 49.392C23.6256 49.6217 23.844 49.7893 24.1002 49.8579C24.3564 49.9265 24.6293 49.8906 24.859 49.758L28.323 47.758C28.5508 47.6245 28.7165 47.4062 28.784 47.1509C28.8515 46.8956 28.8153 46.624 28.6833 46.3953C28.5512 46.1666 28.3341 45.9994 28.0792 45.9303C27.8244 45.8611 27.5525 45.8955 27.323 46.026L23.859 48.026C23.6293 48.1586 23.4617 48.377 23.3931 48.6332C23.3244 48.8894 23.3604 49.1623 23.493 49.392Z" fill="#39519D"/>
    <path d="M54.3 41.076L53.095 38.076L61.495 33.224C61.6089 33.1583 61.7087 33.0709 61.7887 32.9666C61.8687 32.8624 61.9274 32.7433 61.9614 32.6164C61.9954 32.4894 62.004 32.357 61.9868 32.2267C61.9696 32.0964 61.9268 31.9708 61.861 31.857C60.6654 29.7922 58.6997 28.2858 56.395 27.6683C54.0903 27.0508 51.6348 27.3726 49.567 28.563L48.091 29.415L46.091 26.871C44.9097 25.3802 43.2335 24.3618 41.366 24.0003C39.4986 23.6387 37.5634 23.9579 35.911 24.9C35.6813 25.0326 35.5138 25.251 35.4451 25.5072C35.3765 25.7634 35.4124 26.0363 35.545 26.266L38.7 31.732C38.8326 31.9618 39.0511 32.1295 39.3074 32.1983C39.4343 32.2323 39.5666 32.241 39.6969 32.2239C39.8271 32.2068 39.9527 32.1642 40.0665 32.0985C40.1803 32.0328 40.2801 31.9454 40.3601 31.8412C40.4401 31.737 40.4987 31.6181 40.5328 31.4912C40.5668 31.3643 40.5755 31.2319 40.5584 31.1017C40.5413 30.9714 40.4987 30.8458 40.433 30.732L37.82 26.208C38.9957 25.7798 40.2763 25.7329 41.4802 26.074C42.684 26.415 43.7497 27.1268 44.526 28.108L46.346 30.427L33.117 38.062C32.4528 36.9149 31.3608 36.078 30.0804 35.7349C28.8 35.3918 27.4358 35.5706 26.287 36.232C26.0573 36.3646 25.8898 36.583 25.8211 36.8392C25.7525 37.0954 25.7884 37.3683 25.921 37.598L28.421 41.928C29.0914 43.1019 30.0602 44.0777 31.2293 44.7565C32.3984 45.4353 33.7262 45.7929 35.078 45.793C35.6862 45.7927 36.2923 45.7216 36.884 45.581C38.7253 45.1433 40.5305 44.566 42.284 43.854C42.5299 43.7544 42.7261 43.5612 42.8295 43.317C42.933 43.0727 42.9351 42.7974 42.8355 42.5515C42.7359 42.3057 42.5428 42.1094 42.2985 42.006C42.0542 41.9026 41.7789 41.9004 41.533 42C39.8737 42.674 38.1654 43.2206 36.423 43.635C35.3925 43.8834 34.3131 43.8385 33.3067 43.5056C32.3003 43.1727 31.4071 42.5649 30.728 41.751L50.572 30.294C51.6705 29.6581 52.922 29.3348 54.191 29.359L52.804 30.159C52.6902 30.2247 52.5905 30.3121 52.5105 30.4163C52.4305 30.5205 52.3718 30.6395 52.3378 30.7664C52.3037 30.8932 52.295 31.0256 52.3121 31.1559C52.3293 31.2861 52.3719 31.4117 52.4375 31.5255C52.5032 31.6393 52.5906 31.739 52.6948 31.819C52.799 31.899 52.918 31.9577 53.0449 31.9918C53.1718 32.0258 53.3041 32.0345 53.4344 32.0174C53.5646 32.0003 53.6902 31.9577 53.804 31.892L57.04 30.023C58.0292 30.4819 58.8966 31.167 59.572 32.023L52.343 36.2L51.268 33.52C51.2198 33.3972 51.1478 33.2851 51.056 33.1902C50.9643 33.0953 50.8547 33.0196 50.7335 32.9672C50.6123 32.9149 50.482 32.8871 50.3501 32.8854C50.2181 32.8837 50.0871 32.9081 49.9646 32.9573C49.8422 33.0065 49.7306 33.0794 49.6365 33.1719C49.5423 33.2643 49.4674 33.3745 49.416 33.4961C49.3646 33.6176 49.3378 33.7482 49.3372 33.8801C49.3365 34.0121 49.3619 34.1429 49.412 34.265L52.445 41.821C52.9055 42.984 52.9881 44.2624 52.6809 45.475C52.3738 46.6875 51.6926 47.7725 50.734 48.576L44.277 37.392C44.2118 37.2774 44.1246 37.1767 44.0204 37.0959C43.9162 37.0151 43.797 36.9558 43.6697 36.9212C43.5424 36.8866 43.4096 36.8776 43.2788 36.8946C43.148 36.9116 43.0219 36.9543 42.9077 37.0202C42.7935 37.0862 42.6934 37.1741 42.6133 37.2788C42.5332 37.3836 42.4746 37.5032 42.4409 37.6307C42.4072 37.7582 42.3991 37.8911 42.4169 38.0217C42.4348 38.1524 42.4783 38.2782 42.545 38.392L49.545 50.517C49.6776 50.7467 49.8961 50.9143 50.1522 50.9829C50.4084 51.0515 50.6813 51.0156 50.911 50.883C52.5559 49.9243 53.8024 48.4075 54.4242 46.608C55.0461 44.8085 55.002 42.8457 54.3 41.076V41.076ZM31.385 39.062L30.085 39.812L29.652 40.062L28.238 37.613C28.848 37.4994 29.4782 37.5778 30.0418 37.8373C30.6054 38.0968 31.0747 38.5247 31.385 39.062V39.062Z" fill="#39519D"/>
</symbol>
<symbol id="sunrise" viewBox="0 0 64 64">
    <path d="M47 16C46.7348 16 46.4804 15.8946 46.2929 15.7071C46.1054 15.5196 46 15.2652 46 15V12C46 11.7348 46.1054 11.4804 46.2929 11.2929C46.4804 11.1054 46.7348 11 47 11C47.2652 11 47.5196 11.1054 47.7071 11.2929C47.8946 11.4804 48 11.7348 48 12V15C48 15.2652 47.8946 15.5196 47.7071 15.7071C47.5196 15.8946 47.2652 16 47 16Z" fill="#EF5350"/>
    <path d="M47 51C46.7348 51 46.4804 50.8946 46.2929 50.7071C46.1054 50.5196 46 50.2652 46 50V28C46 27.7348 46.1054 27.4804 46.2929 27.2929C46.4804 27.1054 46.7348 27 47 27C47.2652 27 47.5196 27.1054 47.7071 27.2929C47.8946 27.4804 48 27.7348 48 28V50C48 50.2652 47.8946 50.5196 47.7071 50.7071C47.5196 50.8946 47.2652 51 47 51Z" fill="#EF5350"/>
    <path d="M33 28C33 24.287 34.475 20.726 37.1005 18.1005C39.726 15.475 43.287 14 47 14C50.713 14 54.274 15.475 56.8995 18.1005C59.525 20.726 61 24.287 61 28H33Z" fill="#95D5B2"/>
    <path d="M61 28H33C32.9956 25.8412 33.4955 23.7113 34.46 21.78C37.0549 23.2754 40.0054 24.0424 43 24C49.18 24 54.34 21.02 55.67 17.02C57.3345 18.3248 58.6796 19.9918 59.6031 21.8944C60.5267 23.797 61.0044 25.8851 61 28V28Z" fill="#52B788"/>
    <path d="M41 28C41 20.268 43.686 14 47 14C50.314 14 53 20.268 53 28H41Z" fill="#FCEA42"/>
    <path d="M53 28H41C40.9977 26.6358 41.0846 25.2729 41.26 23.92C41.83 23.97 42.41 24 43 24C46.2929 24.0658 49.5274 23.1238 52.27 21.3C52.7684 23.4981 53.0133 25.7461 53 28Z" fill="#FDC741"/>
    <path d="M43.97 42.243L42.03 41.757L43.03 37.757C43.0842 37.5408 43.2091 37.3488 43.3848 37.2117C43.5606 37.0745 43.7771 37 44 37H54.857V39H44.781L43.97 42.243Z" fill="#0096C7"/>
    <path d="M57 34L52 41H37L32 52H37L40 45H52V51H56V43L60 36L57 34Z" fill="#48CAE4"/>
    <path d="M60 36L56 43V51H52V45H40L37 52H32L33.84 47.96C34.5307 47.868 35.1836 47.5908 35.7294 47.1576C36.2751 46.7245 36.6935 46.1517 36.94 45.5C37.2158 44.7674 37.7078 44.136 38.3508 43.6895C38.9937 43.243 39.7572 43.0025 40.54 43H51.62C52.335 43.0013 53.0361 42.8024 53.644 42.426C54.2519 42.0496 54.7424 41.5106 55.06 40.87L58.12 34.75L60 36Z" fill="#00B4D8"/>
    <path d="M42.888 50.31C37.7424 51.4125 32.3865 50.9835 27.482 49.076L25.447 48.285C19.9665 46.1536 13.9391 45.8744 8.285 47.49L3 49V61H61V52L55.064 50.516C51.0743 49.5187 46.9092 49.4483 42.888 50.31V50.31Z" fill="#EFAD1B"/>
    <path d="M47.27 50.31H42.888C40.6749 50.7822 38.4109 50.9728 36.15 50.877C35.2207 50.8291 34.2925 50.9894 33.433 51.346L33.233 51.433C31.9675 51.9908 30.5445 52.0787 29.22 51.681C28.636 51.5003 28.058 51.3003 27.486 51.081L25.451 50.29C19.9699 48.1561 13.9408 47.8751 8.285 49.49L3 51V61H61V52C56.4924 50.9732 51.8921 50.4069 47.27 50.31V50.31Z" fill="#D8950F"/>
    <path d="M21 61L27.794 56.471C36.9743 50.3502 48.0059 47.632 58.979 48.787L61 49V61H21Z" fill="#FDC741"/>
    <path d="M52.113 49.706C50.9047 50.2344 49.6186 50.563 48.305 50.679C40.561 51.314 34.541 53.973 27.794 58.471L24 61H61V49L58.979 48.787C58.7417 48.7617 58.5043 48.7387 58.267 48.718C56.1654 48.5302 54.0502 48.8698 52.113 49.706Z" fill="#EFAD1B"/>
    <path d="M22.085 54.011L12.236 52.275L12.168 39.375C12.1363 33.2947 14.4137 27.429 18.54 22.963L21.3 19.975C21.5272 19.7291 21.8126 19.5443 22.1298 19.4373C22.4471 19.3304 22.7861 19.3048 23.1159 19.3629C23.4456 19.4211 23.7554 19.561 24.017 19.77C24.2786 19.979 24.4835 20.2503 24.613 20.559L26.186 24.312C28.5351 29.9196 28.6684 36.2099 26.559 41.912L22.085 54.011Z" fill="#EF5350"/>
    <path d="M26.56 41.92L22.08 54.01L12.24 52.27L12.21 47.25C14.2614 46.8852 16.1816 45.99 17.7798 44.6532C19.3779 43.3164 20.5985 41.5846 21.32 39.63L22.32 36.92C24.4086 31.2744 24.3015 25.0504 22.02 19.48C22.5071 19.2841 23.0517 19.2875 23.5362 19.4895C24.0208 19.6916 24.4065 20.0761 24.61 20.56L26.19 24.31C28.539 29.9213 28.6712 36.215 26.56 41.92Z" fill="#E53935"/>
    <path d="M25.067 45.967L23.459 50.303L18.376 46.249L12.213 48.32L12.185 43.695L19.244 41.325L25.067 45.967Z" fill="#52B788"/>
    <path d="M25.07 45.97L23.46 50.3L18.38 46.25L12.21 48.32V47.26C13.8143 46.9707 15.3425 46.3567 16.701 45.4556C18.0595 44.5546 19.2195 43.3854 20.11 42.02L25.07 45.97Z" fill="#40916C"/>
    <path d="M24.06 19.8L18.36 52.11L16.35 51.97L22.09 19.45C22.4206 19.3334 22.7758 19.3044 23.121 19.3657C23.4662 19.4271 23.7897 19.5767 24.06 19.8V19.8Z" fill="#ADE8F4"/>
    <path d="M20.15 41.95L18.36 52.11L16.35 51.97L17.62 44.79C18.6107 43.9857 19.465 43.0267 20.15 41.95V41.95Z" fill="#48CAE4"/>
    <path d="M24.06 19.8L23.34 23.87C23.0557 22.4078 22.6269 20.9775 22.06 19.6L22.09 19.45C22.4207 19.3334 22.7759 19.3044 23.1211 19.3657C23.4663 19.4271 23.7897 19.5767 24.06 19.8V19.8Z" fill="#48CAE4"/>
    <path d="M42.888 55.31C37.7424 56.4125 32.3865 55.9835 27.482 54.076L25.447 53.285C19.9665 51.1536 13.9391 50.8744 8.285 52.49L3 54V61H61V57L55.064 55.516C51.0743 54.5187 46.9092 54.4483 42.888 55.31V55.31Z" fill="#FCEA42"/>
    <path d="M61 57V61H3V57L8.29 55.49C13.9432 53.8696 19.9721 54.1507 25.45 56.29L27.48 57.08C32.386 58.9874 37.7435 59.415 42.89 58.31C43.33 58.21 43.78 58.13 44.23 58.06C45.3198 57.8865 46.3637 57.4961 47.3 56.912C48.3944 56.1819 49.6235 55.6775 50.9153 55.4285C52.2071 55.1795 53.5356 55.1909 54.823 55.462L55.059 55.52L61 57Z" fill="#FDC741"/>
    <path d="M11 3C11.1027 3.40971 11.313 3.78451 11.6092 4.08561C11.9054 4.3867 12.2767 4.60312 12.6847 4.71246C13.0927 4.82179 13.5225 4.82007 13.9296 4.70746C14.3366 4.59485 14.7062 4.37546 15 4.072V4.072C14.8838 4.47814 14.8784 4.90798 14.9843 5.31693C15.0902 5.72588 15.3035 6.09906 15.6022 6.39777C15.9009 6.69648 16.2741 6.90984 16.6831 7.01574C17.092 7.12163 17.5219 7.1162 17.928 7V7C17.6245 7.29379 17.4051 7.66336 17.2925 8.07045C17.1799 8.47753 17.1782 8.90732 17.2875 9.31529C17.3969 9.72326 17.6133 10.0946 17.9144 10.3908C18.2155 10.687 18.5903 10.8973 19 11C18.5903 11.1027 18.2155 11.313 17.9144 11.6092C17.6133 11.9054 17.3969 12.2767 17.2875 12.6847C17.1782 13.0927 17.1799 13.5225 17.2925 13.9296C17.4051 14.3366 17.6245 14.7062 17.928 15V15C17.5219 14.8838 17.092 14.8784 16.6831 14.9843C16.2741 15.0902 15.9009 15.3035 15.6022 15.6022C15.3035 15.9009 15.0902 16.2741 14.9843 16.6831C14.8784 17.092 14.8838 17.5219 15 17.928V17.928C14.7062 17.6245 14.3366 17.4051 13.9296 17.2925C13.5225 17.1799 13.0927 17.1782 12.6847 17.2875C12.2767 17.3969 11.9054 17.6133 11.6092 17.9144C11.313 18.2155 11.1027 18.5903 11 19V19C10.8973 18.5903 10.687 18.2155 10.3908 17.9144C10.0946 17.6133 9.72326 17.3969 9.31529 17.2875C8.90732 17.1782 8.47753 17.1799 8.07045 17.2925C7.66336 17.4051 7.29379 17.6245 7 17.928C7.1162 17.5219 7.12163 17.092 7.01574 16.6831C6.90984 16.2741 6.69648 15.9009 6.39777 15.6022C6.09906 15.3035 5.72588 15.0902 5.31693 14.9843C4.90798 14.8784 4.47814 14.8838 4.072 15C4.37546 14.7062 4.59485 14.3366 4.70746 13.9296C4.82007 13.5225 4.82179 13.0927 4.71246 12.6847C4.60312 12.2767 4.3867 11.9054 4.08561 11.6092C3.78451 11.313 3.40971 11.1027 3 11V11C3.40971 10.8973 3.78451 10.687 4.08561 10.3908C4.3867 10.0946 4.60312 9.72326 4.71246 9.31529C4.82179 8.90732 4.82007 8.47753 4.70746 8.07045C4.59485 7.66336 4.37546 7.29379 4.072 7V7C4.47814 7.1162 4.90798 7.12163 5.31693 7.01574C5.72588 6.90984 6.09906 6.69648 6.39777 6.39777C6.69648 6.09906 6.90984 5.72588 7.01574 5.31693C7.12163 4.90798 7.1162 4.47814 7 4.072V4.072C7.29379 4.37546 7.66336 4.59485 8.07045 4.70746C8.47753 4.82007 8.90732 4.82179 9.31529 4.71246C9.72326 4.60312 10.0946 4.3867 10.3908 4.08561C10.687 3.78451 10.8973 3.40971 11 3V3Z" fill="#FCEA42"/>
    <path d="M11 15.859C10.3065 15.4306 9.5072 15.2041 8.69202 15.205H8.57201C8.16418 14.452 7.54512 13.8347 6.79101 13.429C6.81782 12.5729 6.59136 11.7279 6.14001 11C6.59161 10.2718 6.81808 9.42644 6.79101 8.57001C7.54498 8.16364 8.16396 7.54606 8.57201 6.79301H8.69202C9.50701 6.79453 10.3063 6.56874 11 6.14101C11.6935 6.56944 12.4928 6.79593 13.308 6.79501H13.428C13.8359 7.54797 14.4549 8.16529 15.209 8.57101C15.1822 9.4271 15.4087 10.2721 15.86 11C15.4084 11.7282 15.1819 12.5736 15.209 13.43C14.455 13.8364 13.8361 14.454 13.428 15.207H13.308C12.493 15.2055 11.6937 15.4313 11 15.859V15.859Z" fill="#FDC741"/>
    <path d="M11 14C12.6569 14 14 12.6569 14 11C14 9.34315 12.6569 8 11 8C9.34315 8 8 9.34315 8 11C8 12.6569 9.34315 14 11 14Z" fill="#EF5350"/>
    <path d="M25 16C24.9177 16.0003 24.8357 15.9903 24.756 15.97L20.756 14.97C20.5004 14.904 20.2812 14.7397 20.1464 14.5128C20.0115 14.2858 19.9717 14.0148 20.0359 13.7587C20.1 13.5027 20.2628 13.2824 20.4888 13.1458C20.7147 13.0093 20.9855 12.9677 21.242 13.03L25.242 14.03C25.4786 14.0893 25.6854 14.233 25.8234 14.4341C25.9614 14.6352 26.0212 14.8798 25.9914 15.1219C25.9617 15.364 25.8445 15.5869 25.6619 15.7486C25.4793 15.9103 25.2439 15.9997 25 16Z" fill="#FCEA42"/>
    <path d="M21 9C20.7561 8.99973 20.5207 8.91032 20.3381 8.74861C20.1555 8.58689 20.0383 8.36401 20.0086 8.12192C19.9788 7.87983 20.0386 7.63522 20.1766 7.43412C20.3146 7.23301 20.5214 7.08929 20.758 7.03L24.758 6.03C24.8857 5.99702 25.0187 5.98965 25.1493 6.00831C25.2799 6.02696 25.4055 6.07127 25.5189 6.13869C25.6323 6.2061 25.7313 6.29529 25.8101 6.40111C25.8888 6.50693 25.9459 6.62729 25.978 6.75525C26.01 6.88322 26.0164 7.01627 25.9968 7.14673C25.9773 7.27719 25.932 7.40249 25.8638 7.5154C25.7956 7.62831 25.7057 7.72661 25.5993 7.80463C25.493 7.88265 25.3722 7.93885 25.244 7.97L21.244 8.97C21.1643 8.99024 21.0823 9.00032 21 9Z" fill="#FCEA42"/>
    <path d="M11 28C10.7348 28 10.4804 27.8946 10.2929 27.7071C10.1054 27.5196 10 27.2652 10 27V22C10 21.7348 10.1054 21.4804 10.2929 21.2929C10.4804 21.1054 10.7348 21 11 21C11.2652 21 11.5196 21.1054 11.7071 21.2929C11.8946 21.4804 12 21.7348 12 22V27C12 27.2652 11.8946 27.5196 11.7071 27.7071C11.5196 27.8946 11.2652 28 11 28Z" fill="#FCEA42"/>
    <path d="M3.99999 26C3.82959 25.9999 3.66205 25.9563 3.51326 25.8733C3.36446 25.7902 3.23935 25.6706 3.14979 25.5256C3.06023 25.3807 3.0092 25.2152 3.00153 25.045C2.99387 24.8748 3.02982 24.7054 3.10599 24.553L5.10598 20.553C5.22454 20.3156 5.43253 20.1351 5.6842 20.0511C5.93587 19.9671 6.21062 19.9865 6.44798 20.105C6.68535 20.2236 6.86591 20.4315 6.94992 20.6832C7.03394 20.9349 7.01454 21.2096 6.89598 21.447L4.89599 25.447C4.81284 25.6134 4.68494 25.7533 4.52666 25.851C4.36838 25.9487 4.18599 26.0003 3.99999 26Z" fill="#FCEA42"/>
    <path d="M18 26C17.8133 26.001 17.6301 25.9498 17.471 25.852C17.312 25.7543 17.1834 25.614 17.1 25.447L15.1 21.447C14.9814 21.2096 14.962 20.9349 15.046 20.6832C15.1301 20.4315 15.3106 20.2236 15.548 20.105C15.7854 19.9865 16.0601 19.9671 16.3118 20.0511C16.5634 20.1351 16.7714 20.3156 16.89 20.553L18.89 24.553C18.966 24.7051 19.002 24.8741 18.9945 25.044C18.987 25.2139 18.9363 25.3791 18.8472 25.5239C18.7581 25.6688 18.6336 25.7885 18.4853 25.8718C18.3371 25.9551 18.17 25.9992 18 26Z" fill="#FCEA42"/>
    <path d="M24 22C23.8188 22.0001 23.6411 21.9506 23.486 21.857L18.486 18.857C18.2638 18.718 18.1051 18.4973 18.044 18.2424C17.9829 17.9875 18.0243 17.7189 18.1593 17.4942C18.2943 17.2696 18.5121 17.1069 18.7659 17.0412C19.0196 16.9755 19.289 17.0121 19.516 17.143L24.516 20.143C24.7034 20.2557 24.8487 20.4267 24.9297 20.6298C25.0106 20.833 25.0227 21.057 24.9642 21.2677C24.9056 21.4784 24.7797 21.6641 24.6055 21.7964C24.4314 21.9286 24.2187 22.0001 24 22Z" fill="#FCEA42"/>
</symbol>
<symbol id="ancient" viewBox="0 0 512 512">
    <path d="M162.17,201.34h-28c0,8.94,6.16,16.18,13.76,16.18h28.44c7.6,0,13.76-7.24,13.76-16.18Z" style="fill:#f4e7d7"/>
    <path d="M176.39,401.52H148c-7.6,0-13.76,7.25-13.76,16.19h56C190.15,408.77,184,401.52,176.39,401.52Z" style="fill:#f4e7d7"/>
    <path d="M185.93,352c-.51-20.35-2.75-63.68-11.83-134.45H150.24c-9.08,70.77-11.32,114.1-11.83,134.45a89.29,89.29,0,0,0,6.53,36.72c3.71,8.8,7.14,12.83,7.14,12.83h20.18s3.43-4,7.14-12.83A89.29,89.29,0,0,0,185.93,352Z" style="fill:#f4e7d7"/>
    <path d="M71.8,201.34h-28c0,8.94,6.16,16.18,13.76,16.18H86c7.6,0,13.76-7.24,13.76-16.18Z" style="fill:#f4e7d7"/>
    <path d="M86,401.52H57.58c-7.6,0-13.76,7.25-13.76,16.19h56C99.78,408.77,93.62,401.52,86,401.52Z" style="fill:#f4e7d7"/>
    <path d="M95.56,352c-.51-20.35-2.75-63.68-11.83-134.45H59.87C50.79,288.29,48.55,331.62,48,352a89.29,89.29,0,0,0,6.53,36.72c3.71,8.8,7.14,12.83,7.14,12.83H81.89s3.43-4,7.14-12.83A89.29,89.29,0,0,0,95.56,352Z" style="fill:#f4e7d7"/>
    <path d="M252.54,201.34h-28c0,8.94,6.16,16.18,13.76,16.18h28.44c7.6,0,13.76-7.24,13.76-16.18Z" style="fill:#f4e7d7"/>
    <path d="M266.76,401.52H238.32c-7.6,0-13.76,7.25-13.76,16.19h56C280.52,408.77,274.36,401.52,266.76,401.52Z" style="fill:#f4e7d7"/>
    <path d="M276.29,352c-.5-20.35-2.74-63.68-11.83-134.45H240.61c-9.09,70.77-11.32,114.1-11.83,134.45a89.12,89.12,0,0,0,6.53,36.72c3.71,8.8,7.14,12.83,7.14,12.83h20.18s3.43-4,7.14-12.83A89.12,89.12,0,0,0,276.29,352Z" style="fill:#f4e7d7"/>
    <path d="M342.91,201.34h-28c0,8.94,6.16,16.18,13.76,16.18h28.44c7.6,0,13.76-7.24,13.76-16.18Z" style="fill:#d6c2ab"/>
    <path d="M357.13,401.52H328.69c-7.6,0-13.76,7.25-13.76,16.19h56C370.89,408.77,364.73,401.52,357.13,401.52Z" style="fill:#d6c2ab"/>
    <path d="M366.66,352c-.5-20.35-2.74-63.68-11.83-134.45H331c-9.09,70.77-11.32,114.1-11.83,134.45a89,89,0,0,0,6.53,36.72c3.71,8.8,7.14,12.83,7.14,12.83H353s3.42-4,7.14-12.83A89.12,89.12,0,0,0,366.66,352Z" style="fill:#d6c2ab"/>
    <path d="M447.5,401.52H419.06c-7.6,0-13.77,7.25-13.77,16.19h56C461.26,408.77,455.1,401.52,447.5,401.52Z" style="fill:#d6c2ab"/>
    <path d="M409.52,352a89,89,0,0,0,6.53,36.72c3.71,8.8,7.13,12.83,7.13,12.83h20.19s3.42-4,7.14-12.83A89.12,89.12,0,0,0,457,352c-.27-11-1-28.59-3.12-53.54a6.34,6.34,0,0,0-6.32-5.8H419a6.33,6.33,0,0,0-6.31,5.8C410.57,323.38,409.79,341,409.52,352Z" style="fill:#d6c2ab"/>
    <path d="M25.55,176H366.42A15.06,15.06,0,0,1,381.48,191v10.31a0,0,0,0,1,0,0H25.55a0,0,0,0,1,0,0V176A0,0,0,0,1,25.55,176Z" style="fill:#f7d6b2"/>
    <path d="M43.82,144.2V176H349.28l-12.71-5.7a22.87,22.87,0,0,1-13.46-19.68h0a6.72,6.72,0,0,0-6.71-6.38Z" style="fill:#f4e7d7"/>
    <path d="M48,125.58,66.5,105a44.74,44.74,0,0,1,12.35-9.65c11.21-6,33.17-17.51,46.44-23.91a8.81,8.81,0,0,1,12.12,5h0a25.25,25.25,0,0,0,20.27,16.48l16.95,2.36a10.12,10.12,0,0,1,8.6,9.44c.62,8.6,4.83,20.89,23.73,20.89,0,0,13.54,0,19.42-15.73a8,8,0,0,1,12.06-3.9l27.73,19.63Z" style="fill:#f4e7d7"/>
    <path d="M366.42,176H252.54v25.38H381.48V191A15.06,15.06,0,0,0,366.42,176Z" style="fill:#e5b380"/>
    <path d="M323.11,150.58a6.72,6.72,0,0,0-6.71-6.38H252.54V176h96.74l-12.71-5.7A22.87,22.87,0,0,1,323.11,150.58Z" style="fill:#d6c2ab"/>
    <rect x="252.54" y="125.58" width="52.07" height="18.62" style="fill:#e5b380"/>
    <path d="M280.52,201.34h-28V417.71h28c0-8.94-6.16-16.19-13.76-16.19h-4.13s3.43-4,7.14-12.83A89.12,89.12,0,0,0,276.29,352c-.5-20.35-2.74-63.68-11.83-134.45h2.3C274.36,217.52,280.52,210.28,280.52,201.34Z" style="fill:#d6c2ab"/>
    <path d="M491.68,412.48H465.85c-1.69-7.52-6.89-13.42-13.53-15.4.95-1.8,2-3.9,3-6.36a94.51,94.51,0,0,0,6.94-38.88c-.26-10.45-1-28.28-3.14-53.84a11.63,11.63,0,0,0-11.53-10.6H419A11.63,11.63,0,0,0,407.43,298c-2.12,25.57-2.88,43.39-3.14,53.84h0a94.45,94.45,0,0,0,6.94,38.88c1,2.46,2,4.56,3,6.36-6.64,2-11.84,7.88-13.53,15.4H375.48c-1.69-7.52-6.88-13.42-13.53-15.4.95-1.8,2-3.9,3-6.36a94.45,94.45,0,0,0,6.94-38.88h0c-.47-19.19-2.59-61.26-11.18-129.49,7.24-1.57,13-7.79,14.77-15.78h11.23V191a20.31,20.31,0,0,0-20.29-20.29h-16l-11.68-5.25a17.51,17.51,0,0,1-10.38-15.17A12,12,0,0,0,316.4,139h-6.56V120.35h-42l-26.38-18.67a13,13,0,0,0-11.38-1.82,13.33,13.33,0,0,0-8.6,8.16C217,120,207.31,120.34,207,120.35c-11.67,0-17.73-5.25-18.52-16a15.28,15.28,0,0,0-13.09-14.25L158.4,87.7a19.91,19.91,0,0,1-16.06-13A14,14,0,0,0,123,66.72c-13.3,6.42-34.91,17.79-46.61,24A50,50,0,0,0,62.61,101.5L45.68,120.35H20.32v29.08H38.59v21.3H20.32v35.84H39.23c1.79,8,7.53,14.21,14.77,15.78-8.59,68.23-10.71,110.3-11.19,129.49a94.81,94.81,0,0,0,6.94,38.88c1,2.47,2.06,4.56,3,6.36-6.64,2-11.83,7.88-13.52,15.4H20.32v34.2H491.68ZM417.86,298.87a1.1,1.1,0,0,1,1.1-1h28.63a1.1,1.1,0,0,1,1.1,1c2.11,25.32,2.86,42.93,3.11,53.24a84.19,84.19,0,0,1-6.11,34.56,62.72,62.72,0,0,1-5,9.63H425.87a61.64,61.64,0,0,1-5-9.63,84.19,84.19,0,0,1-6.11-34.56C415,341.79,415.75,324.19,417.86,298.87Zm1.19,107.88H447.5c3.23,0,6,2.32,7.49,5.73H411.56C413,409.07,415.82,406.75,419.05,406.75Zm-54.43,5.73H321.19c1.45-3.41,4.27-5.73,7.5-5.73h28.44C360.36,406.75,363.17,409.07,364.62,412.48Zm-79.51,0c-1.69-7.52-6.88-13.42-13.52-15.4.94-1.8,2-3.9,3-6.36a94.64,94.64,0,0,0,6.93-38.88c-.47-19.16-2.58-61.17-11.18-129.49,7.24-1.57,13-7.79,14.77-15.78h25.23c1.79,8,7.53,14.21,14.76,15.78-8.6,68.32-10.71,110.33-11.18,129.49a94.81,94.81,0,0,0,6.94,38.88c1,2.46,2.05,4.56,3,6.36-6.64,2-11.83,7.88-13.52,15.4Zm-90.37,0c-1.69-7.52-6.88-13.42-13.52-15.4.94-1.8,2-3.9,3-6.36a94.62,94.62,0,0,0,6.95-38.88h0c-.48-19.18-2.6-61.22-11.19-129.49,7.24-1.57,13-7.79,14.77-15.78H220c1.79,8,7.53,14.21,14.76,15.78-8.59,68.23-10.7,110.3-11.18,129.49a94.78,94.78,0,0,0,6.94,38.88c1,2.46,2,4.56,3,6.36-6.64,2-11.83,7.88-13.52,15.4Zm-90.37,0c-1.69-7.52-6.88-13.42-13.52-15.4.94-1.8,2-3.9,3-6.36a94.81,94.81,0,0,0,6.94-38.88c-.48-19.16-2.59-61.17-11.19-129.49,7.24-1.57,13-7.79,14.77-15.78H129.6c1.8,8,7.53,14.21,14.77,15.78-8.6,68.27-10.71,110.31-11.19,129.49a94.84,94.84,0,0,0,6.94,38.88c1,2.46,2,4.56,3,6.36-6.64,2-11.83,7.88-13.52,15.4Zm70.21-25.82a62.72,62.72,0,0,1-5,9.63H154.76a60.94,60.94,0,0,1-5-9.63,84.19,84.19,0,0,1-6.12-34.56c.47-19.07,2.57-61,11.21-129.35h14.64C178.13,291.14,180.22,333,180.7,352.1A84.19,84.19,0,0,1,174.58,386.66Zm1.81-174.37H148c-3.23,0-6-2.31-7.5-5.72h43.43C182.44,210,179.62,212.29,176.39,212.29ZM148,406.75h28.44c3.23,0,6.05,2.32,7.49,5.73H140.45C141.9,409.07,144.72,406.75,148,406.75Zm117-20.09a62.72,62.72,0,0,1-5,9.63H245.13a60.94,60.94,0,0,1-5-9.63A84.19,84.19,0,0,1,234,352.1c.48-19.09,2.57-61,11.21-129.35h14.64c8.65,68.45,10.73,110.3,11.2,129.35A84.19,84.19,0,0,1,265,386.66Zm1.81-174.37H238.32c-3.23,0-6-2.31-7.5-5.72h43.43C272.8,210,270,212.29,266.76,212.29ZM238.32,406.75h28.44c3.23,0,6,2.32,7.49,5.73H230.82C232.27,409.07,235.09,406.75,238.32,406.75ZM361.43,352.1a84.19,84.19,0,0,1-6.11,34.56,62.72,62.72,0,0,1-5,9.63H335.5a61.64,61.64,0,0,1-5-9.63,84.35,84.35,0,0,1-6.11-34.56c.47-19.05,2.56-60.9,11.21-129.35h14.64C358.86,291.11,361,333,361.43,352.1Zm-4.3-139.81H328.69c-3.23,0-6.05-2.31-7.5-5.72h43.43C363.17,210,360.36,212.29,357.13,212.29ZM316.4,149.43a1.49,1.49,0,0,1,1.49,1.42,27.94,27.94,0,0,0,9.75,19.88H217v-21.3H316.4Zm-191.67,0h81.85v21.3H124.73Zm106.55-37.75a2.93,2.93,0,0,1,1.89-1.82,2.46,2.46,0,0,1,2.25.36l14.31,10.13H226.56A33.34,33.34,0,0,0,231.28,111.68ZM70.39,108.49A39.29,39.29,0,0,1,81.3,100c9.37-5,32.62-17.24,46.26-23.82a3.59,3.59,0,0,1,4.93,2A30.36,30.36,0,0,0,157,98.07l16.95,2.36a4.89,4.89,0,0,1,4.1,4.64,29.42,29.42,0,0,0,5.11,15.28H59.74ZM30.78,139v-8.16h268.6V139H30.78Zm18.27,10.46h65.22v21.3H49.05ZM38.59,196.11H30.78V181.19H366.42a9.84,9.84,0,0,1,9.83,9.83v5.09H38.59Zm11.5,10.46H93.51c-1.44,3.41-4.26,5.72-7.49,5.72H57.58C54.35,212.29,51.53,210,50.09,206.57Zm14.39,16.18H79.12c8.65,68.45,10.74,110.3,11.21,129.35a84.11,84.11,0,0,1-6.12,34.55,60.7,60.7,0,0,1-5,9.64H64.39a60.94,60.94,0,0,1-5-9.63,84.19,84.19,0,0,1-6.12-34.56C53.75,333,55.84,291.11,64.48,222.75Zm-6.9,184H86c3.23,0,6,2.32,7.49,5.73H50.09C51.53,409.07,54.35,406.75,57.58,406.75Zm423.64,29.47H30.78V422.94H481.22Z" style="fill:#3d3d3d"/>
</symbol>

</defs>
</svg>