<?xml version="1.0" encoding="iso-8859-1"?>
<!-- Generator: Adobe Illustrator 16.0.0, SVG Export Plug-In . SVG Version: 6.00 Build 0)  -->
<!DOCTYPE svg PUBLIC "-//W3C//DTD SVG 1.1//EN" "http://www.w3.org/Graphics/SVG/1.1/DTD/svg11.dtd">
<svg version="1.1" xmlns="http://www.w3.org/2000/svg" xmlns:xlink="http://www.w3.org/1999/xlink" x="0px" y="0px" width="512px"
	 height="512px" viewBox="0 0 512 512" style="enable-background:new 0 0 512 512;" xml:space="preserve">
<g id="_x39_85_x2C__Culture_x2C__global_x2C__india_x2C__indian_x2C__palm_tree_x2C__srilanka_x2C__tree">
	<g>
		<path style="fill:#3C8744;" d="M419.19,193.85c2.47,10.84,3.13,21.67,2.199,32.18c-16.819-28.29-46.33-46.99-79.06-50.15
			c-0.78-0.69-1.561-1.36-2.35-2.02c-0.79-0.68-1.591-1.33-2.391-1.97c-0.78-0.64-1.57-1.26-2.37-1.87
			c-0.1-0.08-0.21-0.16-0.31-0.23c-0.69-0.54-1.391-1.06-2.101-1.57c-0.109-0.08-0.22-0.16-0.329-0.24
			c-0.771-0.57-1.561-1.12-2.351-1.66c-0.74-0.52-1.49-1.03-2.24-1.52c-0.229-0.16-0.46-0.31-0.689-0.45
			c-0.61-0.41-1.23-0.81-1.851-1.18c-0.279-0.2-0.569-0.37-0.859-0.54c-0.48-0.31-0.971-0.61-1.471-0.9
			c-0.369-0.23-0.76-0.46-1.14-0.68c-0.54-0.33-1.09-0.64-1.64-0.94c-0.62-0.37-1.25-0.71-1.88-1.05
			c-0.681-0.38-1.37-0.75-2.07-1.11c-0.74-0.39-1.49-0.77-2.24-1.14c-0.85-0.43-1.71-0.85-2.58-1.25c-1.3-0.62-2.62-1.21-3.95-1.77
			c-0.68-0.31-1.359-0.59-2.039-0.87c-0.91-0.38-1.841-0.74-2.771-1.1c-0.88-0.34-1.78-0.67-2.68-0.99
			c-0.141-0.05-0.29-0.11-0.44-0.16c-0.64-0.23-1.29-0.45-1.93-0.67c-0.641-0.21-1.29-0.43-1.95-0.63
			c-0.58-0.19-1.16-0.37-1.74-0.54c-1.46-0.45-2.93-0.87-4.42-1.26c-0.55-0.15-1.1-0.29-1.66-0.42c-1.37-0.35-2.76-0.68-4.149-0.97
			c-0.67-0.15-1.351-0.29-2.03-0.42c-0.68-0.14-1.36-0.27-2.05-0.39c-1.22-0.23-2.44-0.44-3.67-0.62c-0.25-0.04-0.5-0.08-0.76-0.11
			c-0.511-0.08-1.03-0.16-1.54-0.22c-0.841-0.12-1.681-0.22-2.53-0.31c-0.76-0.09-1.521-0.17-2.28-0.24
			c-0.45-0.05-0.91-0.1-1.37-0.13c-0.12-0.02-0.24-0.03-0.359-0.03c-0.431-0.44-0.87-0.87-1.311-1.29
			c-0.439-0.43-0.89-0.86-1.34-1.27c-0.45-0.43-0.9-0.84-1.36-1.25c-0.489-0.45-1-0.9-1.51-1.34c-1.81-1.58-3.689-3.09-5.62-4.54
			c10.37-7.81,22.36-13.77,35.61-17.28c1.189-0.31,2.38-0.61,3.59-0.88C350.98,103.16,406.49,138.07,419.19,193.85z"/>
		<path style="fill:#36753B;" d="M419.19,193.85c-12.7-55.78-68.21-90.69-123.98-77.99c-1.21,0.27-2.4,0.57-3.59,0.88
			c-13.25,3.51-25.24,9.47-35.61,17.28c1.931,1.45,3.811,2.96,5.62,4.54c0.327,0.282,0.646,0.571,0.968,0.859
			c8.432-5.207,17.74-9.271,27.772-11.929c1.189-0.31,2.38-0.61,3.59-0.88c55.771-12.7,111.28,22.21,123.98,77.99
			c1.523,6.685,2.353,13.365,2.551,19.969c0.301,0.486,0.605,0.968,0.898,1.46C422.32,215.52,421.66,204.69,419.19,193.85z"/>
		<path style="fill:#9E6133;" d="M281.01,216.14l9.2,257.61h-110l46.66-256.66c5.83-1.34,11.8-2.3,17.89-2.83
			c3.77-0.33,7.59-0.51,11.45-0.51C264.69,213.75,272.98,214.58,281.01,216.14z"/>
		<path style="fill:#45994C;" d="M132.49,303.75c-4.07-12.6-6.28-26.04-6.28-40c0-67.96,52.14-123.72,118.6-129.5
			c0.91-0.08,1.82-0.15,2.74-0.2c0.05-0.01,0.1-0.01,0.15-0.01c0.66-0.05,1.32-0.09,1.99-0.12c0.59-0.03,1.18-0.05,1.78-0.07
			c0.38-0.02,0.76-0.04,1.15-0.04c0.71-0.02,1.41-0.03,2.12-0.04c0.04-0.01,0.09-0.01,0.14-0.01c0.44-0.01,0.89-0.01,1.33-0.01
			c0.13,0,0.26,0,0.38,0.01c0.75,0,1.49,0.01,2.23,0.03c0.899,0.02,1.8,0.05,2.699,0.09c0.95,0.04,1.9,0.09,2.841,0.16
			c0.949,0.06,1.89,0.13,2.83,0.21c-0.011-0.01-0.03-0.03-0.04-0.04c0.119,0,0.239,0.01,0.359,0.03c0.46,0.04,0.91,0.08,1.37,0.13
			c0.76,0.06,1.53,0.14,2.28,0.24c0.85,0.09,1.689,0.19,2.53,0.31c0.52,0.07,1.029,0.14,1.54,0.22c0.26,0.03,0.51,0.07,0.76,0.11
			c1.229,0.19,2.45,0.39,3.67,0.62c0.68,0.12,1.359,0.25,2.05,0.39c0.68,0.13,1.35,0.27,2.03,0.42c1.39,0.29,2.779,0.62,4.149,0.97
			c0.561,0.14,1.11,0.28,1.66,0.42c1.49,0.39,2.96,0.81,4.42,1.26c0.58,0.17,1.16,0.35,1.74,0.54c0.66,0.2,1.31,0.42,1.95,0.63
			c0.8,0.27,1.59,0.54,2.37,0.83c0.899,0.32,1.8,0.65,2.68,0.99c0.93,0.36,1.85,0.73,2.771,1.1c0.689,0.28,1.369,0.57,2.039,0.87
			c1.33,0.56,2.65,1.15,3.95,1.77c0.87,0.4,1.73,0.82,2.58,1.25c0.75,0.37,1.5,0.75,2.24,1.14c0.7,0.36,1.38,0.73,2.07,1.11
			c0.63,0.34,1.26,0.68,1.88,1.05c0.55,0.3,1.1,0.62,1.64,0.94c0.39,0.22,0.771,0.44,1.14,0.68c0.5,0.29,0.99,0.59,1.471,0.9
			c0.29,0.17,0.58,0.34,0.859,0.54c0.62,0.38,1.24,0.77,1.851,1.18c0.229,0.14,0.46,0.29,0.689,0.45c0.75,0.5,1.5,1,2.24,1.52
			c0.79,0.54,1.57,1.1,2.351,1.66c0.109,0.08,0.22,0.16,0.329,0.24c0.71,0.52,1.41,1.04,2.101,1.57c0.1,0.07,0.21,0.15,0.31,0.23
			c0.8,0.62,1.59,1.24,2.37,1.87c0.811,0.64,1.601,1.3,2.391,1.97c0.789,0.66,1.579,1.34,2.35,2.02
			c26.91,23.82,43.88,58.61,43.88,97.37c0,13.96-2.21,27.4-6.28,40c-14.399-44.56-52.21-78.59-98.92-87.61
			c-8.029-1.56-16.319-2.39-24.8-2.39c-3.86,0-7.68,0.18-11.45,0.51c-6.09,0.53-12.06,1.49-17.89,2.83
			c-3.88,0.9-7.69,1.96-11.43,3.19C176.19,233.24,145.21,264.38,132.49,303.75z"/>
		<path style="fill:#84502C;" d="M235.12,225.59c5.83-1.34,11.8-2.3,17.89-2.83c3.77-0.33,7.59-0.51,11.45-0.51
			c5.696,0,11.304,0.383,16.808,1.102l-0.258-7.211c-8.029-1.56-16.319-2.39-24.8-2.39c-3.86,0-7.68,0.18-11.45,0.51
			c-6.09,0.53-12.06,1.49-17.89,2.83l-46.66,256.66h9.795L235.12,225.59z"/>
		<path style="fill:#64BB46;" d="M291.62,116.74c-13.25,3.51-25.24,9.47-35.61,17.28c-0.71-0.54-1.43-1.07-2.15-1.57
			c-2.16-1.55-4.39-3.01-6.69-4.38c-0.76-0.47-1.53-0.92-2.31-1.35c-0.78-0.45-1.57-0.88-2.36-1.3c-1.59-0.85-3.2-1.66-4.84-2.41
			c-2.46-1.16-4.98-2.21-7.55-3.17c-0.81-0.3-1.63-0.6-2.45-0.88c-0.22-0.08-0.45-0.15-0.67-0.22c-0.64-0.22-1.27-0.43-1.92-0.63
			c-0.09-0.03-0.18-0.06-0.27-0.09c-0.83-0.26-1.66-0.51-2.5-0.75c-0.08-0.02-0.17-0.04-0.25-0.07c-0.67-0.19-1.35-0.37-2.03-0.55
			c-0.33-0.09-0.66-0.17-0.99-0.25c-0.74-0.19-1.49-0.37-2.24-0.54c-1.99-0.46-3.99-0.84-5.98-1.18
			c-14.32-35.53-43.89-63.29-80.6-75.15c12.6-4.07,26.04-6.28,40-6.28C225.62,33.25,272.91,67.92,291.62,116.74z"/>
		<path style="fill:#53A535;" d="M170.71,45.75c51.062,0,95.207,29.453,116.467,72.278c1.466-0.458,2.945-0.891,4.443-1.288
			c-18.71-48.82-66-83.49-121.41-83.49c-13.96,0-27.4,2.21-40,6.28c6.654,2.15,13.069,4.829,19.205,7.974
			C156.344,46.359,163.455,45.75,170.71,45.75z"/>
		<path style="fill:#4AAA48;" d="M210.81,114.68c1.99,0.34,3.99,0.72,5.98,1.18c0.75,0.17,1.5,0.35,2.24,0.54
			c0.33,0.08,0.66,0.16,0.99,0.25c0.68,0.18,1.35,0.36,2.03,0.55c0.08,0.03,0.17,0.05,0.25,0.07c0.84,0.24,1.67,0.49,2.5,0.75
			c0.09,0.03,0.18,0.06,0.27,0.09c0.65,0.2,1.29,0.41,1.92,0.63c0.22,0.07,0.45,0.14,0.67,0.22c0.82,0.29,1.64,0.58,2.45,0.88
			c2.58,0.97,5.09,2.02,7.55,3.17c1.64,0.76,3.25,1.57,4.84,2.41c0.79,0.43,1.58,0.86,2.36,1.3c0.77,0.44,1.55,0.89,2.31,1.35
			c2.3,1.38,4.53,2.84,6.69,4.38c0.72,0.52,1.43,1.04,2.14,1.57c-3.96,2.98-7.68,6.21-11.15,9.69c-8.77,0.73-17.3,2.33-25.5,4.73
			c-18.62,5.43-35.53,14.91-49.68,27.44c-32.73,3.16-62.24,21.86-79.06,50.15c-0.93-10.51-0.27-21.34,2.2-32.18
			C105.06,140.07,157.1,105.69,210.81,114.68z"/>
		<path style="fill:#3F933D;" d="M97.31,205.1c12.25-53.78,64.29-88.16,118-79.17c1.99,0.34,3.99,0.72,5.98,1.18
			c0.75,0.17,1.5,0.35,2.24,0.54c0.33,0.08,0.66,0.16,0.99,0.25c0.68,0.18,1.35,0.36,2.03,0.55c0.08,0.03,0.17,0.05,0.25,0.07
			c0.84,0.24,1.67,0.49,2.5,0.75c0.09,0.03,0.18,0.06,0.27,0.09c0.65,0.2,1.29,0.41,1.92,0.63c0.22,0.07,0.45,0.14,0.67,0.22
			c0.82,0.29,1.64,0.58,2.45,0.88c2.58,0.97,5.09,2.02,7.55,3.17c1.64,0.76,3.25,1.57,4.84,2.41c0.79,0.43,1.58,0.86,2.36,1.3
			c0.339,0.194,0.676,0.396,1.017,0.594c1.817-1.573,3.691-3.089,5.624-4.544c-0.71-0.53-1.42-1.05-2.14-1.57
			c-2.16-1.54-4.39-3-6.69-4.38c-0.76-0.46-1.54-0.91-2.31-1.35c-0.78-0.44-1.57-0.87-2.36-1.3c-1.59-0.84-3.2-1.65-4.84-2.41
			c-2.46-1.15-4.97-2.2-7.55-3.17c-0.81-0.3-1.63-0.59-2.45-0.88c-0.22-0.08-0.45-0.15-0.67-0.22c-0.63-0.22-1.27-0.43-1.92-0.63
			c-0.09-0.03-0.18-0.06-0.27-0.09c-0.83-0.26-1.66-0.51-2.5-0.75c-0.08-0.02-0.17-0.04-0.25-0.07c-0.68-0.19-1.35-0.37-2.03-0.55
			c-0.33-0.09-0.66-0.17-0.99-0.25c-0.74-0.19-1.49-0.37-2.24-0.54c-1.99-0.46-3.99-0.84-5.98-1.18
			c-53.71-8.99-105.75,25.39-118,79.17c-2.47,10.84-3.13,21.67-2.2,32.18c1.415-2.379,2.927-4.685,4.516-6.925
			C95.535,214.455,96.244,209.779,97.31,205.1z"/>
		<g>
			<path style="fill:#3A843E;" d="M131.96,273.5c0-67.96,52.14-123.72,118.6-129.5c0.91-0.08,1.82-0.15,2.74-0.2
				c0.05-0.01,0.1-0.01,0.15-0.01c0.66-0.05,1.32-0.09,1.99-0.12c0.59-0.03,1.18-0.05,1.781-0.07c0.379-0.02,0.76-0.04,1.149-0.04
				c0.71-0.02,1.409-0.03,2.12-0.04c0.039-0.01,0.09-0.01,0.14-0.01c0.44-0.01,0.89-0.01,1.33-0.01c0.13,0,0.261,0,0.38,0.01
				c0.75,0,1.49,0.01,2.23,0.03c0.899,0.02,1.8,0.05,2.699,0.09c0.95,0.04,1.9,0.09,2.841,0.16c0.949,0.06,1.89,0.13,2.83,0.21
				c-0.011-0.01-0.03-0.03-0.04-0.04c0.119,0,0.239,0.01,0.359,0.03c0.46,0.04,0.91,0.08,1.37,0.13c0.76,0.06,1.53,0.14,2.28,0.24
				c0.85,0.09,1.689,0.19,2.53,0.31c0.52,0.07,1.029,0.14,1.54,0.22c0.26,0.03,0.51,0.07,0.76,0.11c1.229,0.19,2.45,0.39,3.67,0.62
				c0.68,0.12,1.359,0.25,2.05,0.39c0.68,0.13,1.35,0.27,2.03,0.42c1.39,0.29,2.779,0.62,4.149,0.97c0.561,0.14,1.11,0.28,1.66,0.42
				c1.49,0.39,2.96,0.81,4.42,1.26c0.58,0.17,1.16,0.35,1.74,0.54c0.66,0.2,1.31,0.42,1.95,0.63c0.8,0.27,1.59,0.54,2.37,0.83
				c0.899,0.32,1.8,0.65,2.68,0.99c0.93,0.36,1.85,0.73,2.771,1.1c0.689,0.28,1.369,0.57,2.039,0.87c1.33,0.56,2.65,1.15,3.95,1.77
				c0.87,0.4,1.73,0.82,2.58,1.25c0.75,0.37,1.5,0.75,2.24,1.14c0.7,0.36,1.38,0.73,2.07,1.11c0.63,0.34,1.26,0.68,1.88,1.05
				c0.55,0.3,1.1,0.62,1.64,0.94c0.39,0.22,0.771,0.44,1.14,0.68c0.5,0.29,0.99,0.59,1.471,0.9c0.29,0.17,0.58,0.34,0.859,0.54
				c0.62,0.38,1.24,0.77,1.851,1.18c0.229,0.14,0.46,0.29,0.689,0.45c0.75,0.5,1.5,1,2.24,1.52c0.79,0.54,1.57,1.1,2.351,1.66
				c0.109,0.08,0.22,0.16,0.329,0.24c0.71,0.52,1.41,1.04,2.101,1.57c0.1,0.07,0.21,0.15,0.31,0.23c0.8,0.62,1.59,1.24,2.37,1.87
				c0.811,0.64,1.601,1.3,2.391,1.97c0.789,0.66,1.579,1.34,2.35,2.02c8.81,7.798,16.545,16.778,22.977,26.682
				c-7.347-13.813-17.107-26.146-28.727-36.432c-0.771-0.68-1.561-1.36-2.35-2.02c-0.79-0.67-1.58-1.33-2.391-1.97
				c-0.78-0.63-1.57-1.25-2.37-1.87c-0.1-0.08-0.21-0.16-0.31-0.23c-0.69-0.53-1.391-1.05-2.101-1.57
				c-0.109-0.08-0.22-0.16-0.329-0.24c-0.78-0.56-1.561-1.12-2.351-1.66c-0.74-0.52-1.49-1.02-2.24-1.52
				c-0.229-0.16-0.46-0.31-0.689-0.45c-0.61-0.41-1.23-0.8-1.851-1.18c-0.279-0.2-0.569-0.37-0.859-0.54
				c-0.48-0.31-0.971-0.61-1.471-0.9c-0.369-0.24-0.75-0.46-1.14-0.68c-0.54-0.32-1.09-0.64-1.64-0.94
				c-0.62-0.37-1.25-0.71-1.88-1.05c-0.69-0.38-1.37-0.75-2.07-1.11c-0.74-0.39-1.49-0.77-2.24-1.14c-0.85-0.43-1.71-0.85-2.58-1.25
				c-1.3-0.62-2.62-1.21-3.95-1.77c-0.67-0.3-1.35-0.59-2.039-0.87c-0.921-0.37-1.841-0.74-2.771-1.1
				c-0.88-0.34-1.78-0.67-2.68-0.99c-0.78-0.29-1.57-0.56-2.37-0.83c-0.641-0.21-1.29-0.43-1.95-0.63
				c-0.58-0.19-1.16-0.37-1.74-0.54c-1.46-0.45-2.93-0.87-4.42-1.26c-0.55-0.14-1.1-0.28-1.66-0.42c-1.37-0.35-2.76-0.68-4.149-0.97
				c-0.681-0.15-1.351-0.29-2.03-0.42c-0.69-0.14-1.37-0.27-2.05-0.39c-1.22-0.23-2.44-0.43-3.67-0.62
				c-0.25-0.04-0.5-0.08-0.76-0.11c-0.511-0.08-1.021-0.15-1.54-0.22c-0.841-0.12-1.681-0.22-2.53-0.31
				c-0.75-0.1-1.521-0.18-2.28-0.24c-0.46-0.05-0.91-0.09-1.37-0.13c-0.12-0.02-0.24-0.03-0.359-0.03
				c0.01,0.01,0.029,0.03,0.04,0.04c-0.94-0.08-1.881-0.15-2.83-0.21c-0.94-0.07-1.891-0.12-2.841-0.16
				c-0.899-0.04-1.8-0.07-2.699-0.09c-0.74-0.02-1.48-0.03-2.23-0.03c-0.12-0.01-0.25-0.01-0.38-0.01c-0.44,0-0.89,0-1.33,0.01
				c-0.05,0-0.1,0-0.14,0.01c-0.71,0.01-1.41,0.02-2.12,0.04c-0.39,0-0.77,0.02-1.15,0.04c-0.6,0.02-1.19,0.04-1.78,0.07
				c-0.67,0.03-1.33,0.07-1.99,0.12c-0.05,0-0.1,0-0.15,0.01c-0.92,0.05-1.83,0.12-2.74,0.2c-66.46,5.78-118.6,61.54-118.6,129.5
				c0,13.96,2.21,27.4,6.28,40c0.582-1.8,1.214-3.576,1.871-5.34C132.793,290.348,131.96,282.022,131.96,273.5z"/>
			<path style="fill:#3A843E;" d="M370.986,282.705c3.566,6.69,6.577,13.722,8.943,21.045c0.314-0.973,0.597-1.959,0.889-2.941
				C378.014,294.492,374.72,288.442,370.986,282.705z"/>
		</g>
		<path style="fill:#FFD8A8;" d="M390.21,478.75h-290c-2.761,0-5-2.238-5-5s2.239-5,5-5h290c2.762,0,5,2.238,5,5
			S392.972,478.75,390.21,478.75z"/>
		<g>
			<path style="fill:#3A843E;" d="M189.058,214.125c22.569-18.084,44.055-25.57,44.27-25.644c2.611-0.893,4.005-3.732,3.115-6.344
				c-0.891-2.614-3.733-4.012-6.346-3.119c-0.932,0.317-23.099,8-47.005,27.074c-20.164,16.088-44.961,43.36-54.1,84.412
				c0.944,4.503,2.103,8.928,3.498,13.246c2.32-7.182,5.254-14.085,8.729-20.658C149.188,256.366,165.21,233.233,189.058,214.125z"
				/>
		</g>
		<path style="fill:#84502C;" d="M240.21,338.75h-30c-2.761,0-5-2.238-5-5s2.239-5,5-5h30c2.761,0,5,2.238,5,5
			S242.971,338.75,240.21,338.75z"/>
		<g>
			<g>
				<path style="fill:#84502C;" d="M262.71,408.75c-2.762,0-5,2.238-5,5s2.238,5,5,5h25.535l-0.356-10H262.71z"/>
				<path style="fill:#84502C;" d="M256.21,273.75c0,2.762,2.238,5,5,5h22.035l-0.356-10H261.21
					C258.448,268.75,256.21,270.988,256.21,273.75z"/>
			</g>
		</g>
		<path style="fill:#84502C;" d="M223.21,438.75h-30c-2.761,0-5-2.238-5-5s2.239-5,5-5h30c2.761,0,5,2.238,5,5
			S225.971,438.75,223.21,438.75z"/>
	</g>
</g>
<g id="Layer_1">
</g>
</svg>
