<?xml version="1.0" encoding="utf-8"?>
<!-- Generator: Adobe Illustrator 26.0.2, SVG Export Plug-In . SVG Version: 6.00 Build 0)  -->
<svg version="1.1" id="Glyph_gradient" xmlns="http://www.w3.org/2000/svg" xmlns:xlink="http://www.w3.org/1999/xlink" x="0px"
	 y="0px" viewBox="0 0 512 512" enable-background="new 0 0 512 512" xml:space="preserve">
<linearGradient id="SVGID_1_" gradientUnits="userSpaceOnUse" x1="86.3347" y1="473.6171" x2="449.6817" y2="110.2701">
	<stop  offset="0" style="stop-color:#5EBCE5"/>
	<stop  offset="0" style="stop-color:#66B5E5"/>
	<stop  offset="0.5183" style="stop-color:#B678E6"/>
	<stop  offset="0.995" style="stop-color:#E25B61"/>
</linearGradient>
<path fill="url(#SVGID_1_)" d="M248,56V24c0-4.418,3.582-8,8-8s8,3.582,8,8v32c0,4.418-3.582,8-8,8S248,60.418,248,56z
	 M196.509,64.885c0.958,3.574,4.19,5.932,7.723,5.932c0.685,0,1.382-0.089,2.076-0.274c4.268-1.144,6.8-5.53,5.657-9.798
	l-8.282-30.909c-1.144-4.268-5.526-6.8-9.798-5.657c-4.268,1.144-6.8,5.53-5.657,9.798L196.509,64.885z M149.072,86.795
	c1.482,2.566,4.171,4.001,6.936,4.001c1.357,0,2.733-0.346,3.993-1.073c3.826-2.209,5.137-7.102,2.928-10.928l-16-27.713
	c-2.209-3.825-7.102-5.136-10.928-2.928c-3.826,2.209-5.137,7.102-2.928,10.928L149.072,86.795z M108.922,120.236
	c1.562,1.562,3.609,2.343,5.657,2.343c2.047,0,4.095-0.781,5.657-2.343c3.125-3.124,3.125-8.189,0-11.314L97.608,86.294
	c-3.124-3.122-8.189-3.123-11.313,0c-3.125,3.124-3.125,8.189,0,11.314L108.922,120.236z M51.082,146.928l27.713,16
	c1.26,0.728,2.635,1.073,3.993,1.073c2.765,0,5.454-1.435,6.936-4.001c2.209-3.826,0.898-8.719-2.928-10.928l-27.713-16
	c-3.826-2.21-8.719-0.899-10.928,2.928C45.945,139.826,47.256,144.719,51.082,146.928z M29.834,203.682l30.91,8.282
	c0.693,0.186,1.39,0.274,2.075,0.274c3.532,0,6.765-2.357,7.723-5.932c1.144-4.268-1.389-8.654-5.657-9.798l-30.91-8.282
	c-4.267-1.142-8.654,1.39-9.798,5.657C23.034,198.151,25.567,202.538,29.834,203.682z M305.693,70.542
	c0.694,0.186,1.39,0.274,2.076,0.274c3.532,0,6.765-2.357,7.723-5.932l8.282-30.909c1.144-4.268-1.389-8.654-5.657-9.798
	c-4.267-1.142-8.654,1.39-9.798,5.657l-8.282,30.909C298.893,65.012,301.425,69.398,305.693,70.542z M352,89.723
	c1.26,0.728,2.635,1.073,3.993,1.073c2.765,0,5.454-1.435,6.936-4.001l16-27.713c2.209-3.826,0.898-8.719-2.928-10.928
	c-3.827-2.209-8.719-0.898-10.928,2.928l-16,27.713C346.863,82.621,348.174,87.514,352,89.723z M397.421,122.579
	c2.047,0,4.095-0.781,5.657-2.343l22.627-22.628c3.125-3.125,3.125-8.19,0-11.314c-3.124-3.123-8.189-3.123-11.313,0l-22.627,22.628
	c-3.125,3.125-3.125,8.19,0,11.314C393.327,121.798,395.374,122.579,397.421,122.579z M422.277,160
	c1.482,2.566,4.171,4.001,6.936,4.001c1.357,0,2.733-0.346,3.993-1.073l27.713-16c3.826-2.209,5.137-7.102,2.928-10.928
	c-2.209-3.826-7.102-5.136-10.928-2.928l-27.713,16C421.379,151.281,420.068,156.174,422.277,160z M441.458,206.307
	c0.958,3.574,4.19,5.932,7.723,5.932c0.685,0,1.382-0.089,2.075-0.274l30.91-8.282c4.268-1.144,6.8-5.53,5.657-9.798
	c-1.144-4.268-5.528-6.8-9.798-5.657l-30.91,8.282C442.847,197.652,440.314,202.039,441.458,206.307z M124.766,310.426
	c0.795-0.582,19.671-14.097,38.435-0.025c22.779,17.083,47.638,7.471,57.565,0.025c0.794-0.582,19.671-14.097,38.435-0.025
	c9.374,7.03,19.1,9.54,27.993,9.54c12.717,0,23.73-5.133,29.573-9.515c0.795-0.582,19.671-14.097,38.435-0.025
	c22.779,17.085,47.639,7.471,57.6,0c3.521-2.641,4.229-7.616,1.608-11.151c-2.621-3.534-7.623-4.274-11.174-1.675
	c-0.794,0.583-19.67,14.099-38.435,0.025c-22.78-17.085-47.638-7.473-57.565-0.025c-0.794,0.583-19.67,14.099-38.435,0.025
	c-22.781-17.085-47.639-7.473-57.565-0.025c-0.794,0.583-19.67,14.099-38.435,0.025c-22.78-17.085-47.638-7.473-57.565-0.025
	c-0.794,0.583-19.67,14.099-38.435,0.025c-22.779-17.085-47.639-7.471-57.6,0c-3.521,2.641-4.229,7.616-1.608,11.151
	c2.622,3.535,7.625,4.276,11.174,1.675c0.794-0.582,19.671-14.097,38.435-0.025C89.98,327.483,114.838,317.871,124.766,310.426z
	 M100.766,358.426c0.794-0.582,19.671-14.097,38.435-0.025c22.78,17.084,47.638,7.471,57.565,0.025
	c0.795-0.582,19.671-14.097,38.435-0.025c22.779,17.084,47.637,7.471,57.565,0.025c0.794-0.582,19.671-14.097,38.435-0.025
	c9.374,7.03,19.1,9.54,27.993,9.54c12.717,0,23.73-5.133,29.573-9.515c0.795-0.582,19.671-14.097,38.435-0.025
	c22.78,17.085,47.638,7.471,57.6,0c3.521-2.641,4.229-7.616,1.608-11.151s-7.624-4.275-11.174-1.675
	c-0.794,0.583-19.67,14.1-38.435,0.025c-22.78-17.085-47.638-7.472-57.565-0.025c-0.794,0.583-19.67,14.1-38.435,0.025
	c-22.781-17.085-47.638-7.472-57.565-0.025c-0.794,0.583-19.67,14.1-38.435,0.025c-22.78-17.085-47.639-7.472-57.565-0.025
	c-0.794,0.583-19.67,14.1-38.435,0.025c-22.779-17.085-47.639-7.471-57.6,0c-3.521,2.641-4.229,7.616-1.608,11.151
	C92.214,360.287,97.216,361.027,100.766,358.426z M163.2,406.4c22.779,17.083,47.638,7.471,57.565,0.025
	c0.794-0.582,19.671-14.097,38.435-0.025c9.374,7.03,19.1,9.54,27.993,9.54c12.717,0,23.73-5.133,29.573-9.515
	c0.795-0.582,19.671-14.097,38.435-0.025c22.779,17.084,47.639,7.471,57.6,0c3.521-2.641,4.229-7.616,1.608-11.151
	c-2.621-3.534-7.623-4.275-11.174-1.675c-0.794,0.583-19.67,14.099-38.435,0.025c-22.78-17.086-47.638-7.471-57.565-0.025
	c-0.794,0.583-19.67,14.099-38.435,0.025c-22.781-17.086-47.639-7.471-57.565-0.025c-0.794,0.583-19.67,14.099-38.435,0.025
	c-22.78-17.086-47.638-7.471-57.565-0.025c-0.794,0.583-19.67,14.099-38.435,0.025c-22.779-17.084-47.639-7.471-57.6,0
	c-3.521,2.641-4.229,7.616-1.608,11.151c2.622,3.535,7.625,4.276,11.174,1.675c0.794-0.582,19.671-14.097,38.435-0.025
	c22.78,17.083,47.638,7.471,57.565,0.025C125.561,405.844,144.437,392.329,163.2,406.4z M483.234,441.574
	c-0.794,0.583-19.67,14.1-38.435,0.025c-22.78-17.085-47.638-7.473-57.565-0.025c-0.793,0.583-19.67,14.1-38.435,0.025
	c-22.781-17.085-47.639-7.473-57.565-0.025c-0.794,0.583-19.67,14.1-38.435,0.025c-22.781-17.085-47.639-7.473-57.565-0.025
	c-0.793,0.583-19.67,14.1-38.435,0.025c-22.78-17.085-47.639-7.471-57.6,0c-3.521,2.641-4.229,7.616-1.608,11.151
	c2.622,3.536,7.625,4.277,11.174,1.675c0.795-0.583,19.672-14.097,38.435-0.025c22.78,17.083,47.638,7.471,57.565,0.025
	c0.795-0.583,19.672-14.097,38.435-0.025c22.779,17.083,47.637,7.471,57.565,0.025c0.795-0.583,19.672-14.097,38.435-0.025
	c9.374,7.03,19.1,9.54,27.993,9.54c12.717,0,23.73-5.133,29.573-9.515c0.795-0.583,19.672-14.097,38.435-0.025
	c22.78,17.085,47.638,7.471,57.6,0c3.521-2.641,4.229-7.616,1.608-11.151C491.788,439.715,486.785,438.974,483.234,441.574z M24,264
	h464c4.418,0,8-3.582,8-8s-3.582-8-8-8h-80.208C403.614,167.895,337.127,104,256,104s-147.614,63.895-151.792,144H24
	c-4.418,0-8,3.582-8,8S19.582,264,24,264z"/>
</svg>
